<?xml version="1.0" encoding="utf-8"?>
<svg version="1.1" xmlns:xlink="http://www.w3.org/1999/xlink" width="19px" height="13px" xmlns="http://www.w3.org/2000/svg">
  <g transform="matrix(1 0 0 1 -100 26 )">
    <path d="M 19 2.82608695652174  C 19 1.27173913043478  17.6640625 0  16.03125 0  L 2.96875 0  C 1.3359375 0  0 1.27173913043478  0 2.82608695652174  L 0 10.1739130434783  C 0 11.7282608695652  1.3359375 13  2.96875 13  L 16.03125 13  C 17.6640625 13  19 11.7282608695652  19 10.1739130434783  L 19 2.82608695652174  Z M 2.1315625 1.3395652173913  C 2.3809375 1.2095652173913  2.6659375 1.1304347826087  2.96875 1.1304347826087  L 16.03125 1.1304347826087  C 16.256875 1.1304347826087  16.470625 1.17565217391304  16.6725 1.24913043478261  L 9.345625 7.15  L 2.1315625 1.3395652173913  Z M 1.365625 10.9030434782609  C 1.2528125 10.6769565217391  1.1875 10.4339130434783  1.1875 10.1739130434783  L 1.1875 2.82608695652174  C 1.1875 2.59434782608696  1.235 2.37391304347826  1.3240625 2.1704347826087  L 6.3115625 6.18913043478261  L 1.365625 10.9030434782609  Z M 16.8565625 11.6717391304348  C 16.6071875 11.7904347826087  16.328125 11.8695652173913  16.03125 11.8695652173913  L 2.96875 11.8695652173913  C 2.695625 11.8695652173913  2.4403125 11.8073913043478  2.2028125 11.7  L 7.22 6.92391304347826  L 8.9596875 8.32565217391304  C 9.0725 8.41608695652174  9.2090625 8.46130434782609  9.345625 8.46130434782609  C 9.4821875 8.46130434782609  9.61875 8.41608695652174  9.7315625 8.32565217391304  L 11.6375 6.78826086956522  L 16.8565625 11.6717391304348  Z M 17.8125 2.82608695652174  L 17.8125 10.1739130434783  C 17.8125 10.4113043478261  17.7590625 10.6373913043478  17.67 10.8408695652174  L 12.5459375 6.05347826086956  L 17.4503125 2.10260869565217  C 17.4978125 2.06304347826087  17.5275 2.01782608695652  17.563125 1.96695652173913  C 17.7175 2.22130434782609  17.8125 2.51521739130435  17.8125 2.82608695652174  Z " fill-rule="nonzero" fill="#333333" stroke="none" transform="matrix(1 0 0 1 100 -26 )" />
  </g>
</svg>