<svg width="140" height="54" viewBox="0 0 140 54" fill="none" xmlns="http://www.w3.org/2000/svg">
<path d="M139.653 0H0V53.1224H139.653V0Z" fill="#000B8C"/>
<path d="M38.4578 16.9087C34.995 16.4405 31.5095 16.1588 28.0164 16.065C30.4135 13.621 32.6753 11.048 34.7917 8.35734C32.037 10.3698 29.3922 12.5287 26.8689 14.8247C26.5778 8.37843 25.9365 3.79688 25.9365 3.79688C25.9365 3.79688 25.2742 8.36999 25.0042 14.8078C22.4778 12.5163 19.8317 10.3604 17.0772 8.3489C19.1786 11.0302 21.425 13.5948 23.8061 16.0312C20.3199 16.0588 16.8409 16.3493 13.3984 16.9003C16.8255 17.4497 20.289 17.7402 23.7597 17.7694C21.3294 20.1534 19.092 22.7264 17.0687 25.4643C19.8282 23.5576 22.4374 21.442 24.8734 19.1362C24.787 24.3441 25.1384 29.5501 25.9239 34.6992C26.721 29.554 27.0809 24.3506 26.9997 19.1447C29.4372 21.4504 32.0478 23.5659 34.8086 25.4728C32.7727 22.7284 30.5257 20.1471 28.0881 17.7525C31.5625 17.6504 35.0293 17.3688 38.4747 16.9087H38.4578Z" fill="white"/>
<path d="M42.8242 11.1465V16.808C43.3182 16.3195 43.8991 15.9274 44.537 15.6521C45.1613 15.3931 45.8313 15.2626 46.5072 15.2682C47.2368 15.258 47.9603 15.4032 48.6294 15.6942C49.2986 15.9851 49.8982 16.4152 50.3884 16.9557C50.9273 17.5328 51.3465 18.2109 51.6216 18.951C51.8968 19.691 52.0225 20.4783 51.9915 21.2673C52.0129 22.0492 51.8776 22.8275 51.5936 23.5564C51.3096 24.2853 50.8826 24.95 50.3378 25.5113C49.8394 26.0506 49.2336 26.4795 48.5592 26.7701C47.8849 27.0608 47.1571 27.2068 46.4228 27.1988C45.7806 27.2047 45.1433 27.0873 44.5455 26.8529C43.9085 26.588 43.3252 26.2092 42.8242 25.7349V26.9499H39.8711V11.1465H42.8242ZM45.8997 17.8965C45.4738 17.8836 45.0499 17.9586 44.6543 18.1168C44.2587 18.2751 43.9 18.5131 43.6005 18.8162C43.2939 19.1346 43.0551 19.5118 42.8985 19.9252C42.7419 20.3385 42.6707 20.7792 42.6892 21.2208C42.6698 21.6702 42.7405 22.1188 42.897 22.5405C43.0535 22.9621 43.2926 23.3483 43.6005 23.6762C43.8983 23.982 44.2565 24.2224 44.6524 24.3822C45.0482 24.542 45.473 24.6176 45.8997 24.6043C46.3204 24.6131 46.7383 24.5336 47.1263 24.3708C47.5144 24.208 47.864 23.9656 48.1525 23.6593C48.4596 23.3365 48.6991 22.9557 48.857 22.5392C49.015 22.1226 49.0881 21.6787 49.0722 21.2335C49.088 20.7939 49.0168 20.3555 48.8625 19.9436C48.7083 19.5316 48.4742 19.1542 48.1736 18.833C47.882 18.5249 47.5289 18.2815 47.1371 18.1187C46.7454 17.9559 46.3238 17.8773 45.8997 17.888V17.8965Z" fill="white"/>
<path d="M54.3655 15.5459H57.3186V21.0303C57.2806 21.7773 57.3574 22.5256 57.5464 23.2493C57.6769 23.6428 57.9334 23.9824 58.2762 24.2154C58.6453 24.4567 59.0801 24.5776 59.5208 24.5614C59.9676 24.5786 60.409 24.4594 60.7864 24.2196C61.1387 23.9713 61.3995 23.6141 61.5289 23.2029C61.6897 22.512 61.7522 21.8019 61.7145 21.0935V15.5459H64.6676V20.3679C64.6676 22.355 64.5031 23.7134 64.1825 24.4474C63.8225 25.2938 63.2133 26.0105 62.4359 26.502C61.5388 27.0139 60.5145 27.2597 59.4828 27.2107C58.3813 27.2594 57.2918 26.9645 56.3652 26.367C55.5602 25.7973 54.9667 24.9769 54.6777 24.034C54.4498 23.3464 54.3359 22.085 54.3359 20.2667L54.3655 15.5459Z" fill="white"/>
<path d="M74.7267 17.1658L72.9042 18.9377C72.1406 18.2416 71.4909 17.8872 70.875 17.8872C70.6014 17.8714 70.3298 17.9423 70.0987 18.0897C70.0125 18.1424 69.9409 18.216 69.8907 18.3038C69.8406 18.3916 69.8134 18.4906 69.8119 18.5917C69.8172 18.751 69.8837 18.902 69.9975 19.0136C70.2603 19.2346 70.5565 19.4126 70.875 19.5409L71.955 20.0556C72.8492 20.4228 73.6484 20.9883 74.2922 21.7094C74.7207 22.2802 74.945 22.9785 74.9292 23.6922C74.9394 24.1726 74.842 24.6493 74.6442 25.0873C74.4464 25.5252 74.1531 25.9134 73.7859 26.2234C72.9238 26.927 71.8301 27.2836 70.7189 27.2233C69.9342 27.2451 69.1557 27.0784 68.4487 26.7371C67.7418 26.3957 67.1271 25.8897 66.6562 25.2615L68.4577 23.3462C68.8004 23.7312 69.2108 24.05 69.6684 24.287C70.0404 24.5063 70.4605 24.6309 70.8919 24.6498C71.2254 24.6668 71.5551 24.5717 71.8284 24.3798C71.9327 24.3112 72.0192 24.2188 72.0808 24.1103C72.1424 24.0018 72.1773 23.8801 72.1828 23.7555C72.1828 23.3336 71.7609 22.8906 70.9172 22.4898L69.93 22.0089C68.0316 21.085 67.0908 19.9291 67.0908 18.5411C67.0867 18.1016 67.1808 17.6668 67.3662 17.2683C67.5516 16.8698 67.8236 16.5177 68.1623 16.2377C68.9123 15.5845 69.8809 15.238 70.875 15.2673C71.6201 15.2644 72.3557 15.4343 73.0241 15.7637C73.6924 16.0931 74.2752 16.573 74.7267 17.1658Z" fill="white"/>
<path d="M78.438 10.8711C78.6828 10.8695 78.9256 10.9162 79.1522 11.0088C79.3789 11.1013 79.585 11.2378 79.7588 11.4103C79.9325 11.5829 80.0703 11.7881 80.1644 12.0141C80.2585 12.2401 80.3069 12.4825 80.3069 12.7274C80.3047 13.2141 80.11 13.6803 79.7654 14.0241C79.4209 14.3679 78.9543 14.5614 78.4675 14.5625C78.2201 14.5637 77.975 14.5157 77.7462 14.4216C77.5174 14.3274 77.3095 14.1889 77.1346 14.0139C76.9596 13.839 76.8211 13.6311 76.7269 13.4023C76.6328 13.1736 76.5848 12.9284 76.586 12.681C76.5846 12.4439 76.6323 12.2091 76.7259 11.9913C76.8196 11.7736 76.9572 11.5775 77.1302 11.4154C77.3005 11.2416 77.5041 11.1038 77.7288 11.0103C77.9535 10.9168 78.1946 10.8695 78.438 10.8711ZM76.9446 15.5455H79.8977V26.9361H76.9446V15.5455Z" fill="white"/>
<path d="M82.5273 15.5455H85.4805V16.7225C86.0177 16.2618 86.6224 15.8862 87.2734 15.6088C87.7995 15.3985 88.3606 15.2897 88.9272 15.2881C89.474 15.2759 90.0176 15.3746 90.5252 15.5783C91.0328 15.7821 91.4938 16.0866 91.8803 16.4736C92.5511 17.1444 92.897 18.1316 92.897 19.4267V26.9445H89.9439V21.958C89.9812 21.0527 89.9204 20.146 89.7625 19.2537C89.6688 18.8515 89.4412 18.493 89.117 18.237C88.7908 17.9954 88.3921 17.8719 87.9864 17.8869C87.4291 17.8735 86.8891 18.0813 86.4845 18.4648C86.0388 18.9009 85.7346 19.461 85.6112 20.0722C85.5013 20.8348 85.4604 21.6057 85.4889 22.3756V26.9445H82.5358L82.5273 15.5455Z" fill="white"/>
<path d="M107.385 22.0601H97.9896C98.1002 22.8137 98.4847 23.5001 99.0696 23.988C99.7149 24.4802 100.511 24.7323 101.322 24.701C101.841 24.7092 102.356 24.615 102.838 24.4239C103.32 24.2328 103.76 23.9485 104.132 23.5873L106.583 24.7137C106.023 25.5225 105.265 26.1746 104.381 26.6079C103.424 27.0323 102.385 27.2383 101.339 27.2112C100.52 27.244 99.7027 27.1115 98.9358 26.8216C98.169 26.5317 97.4684 26.0903 96.8758 25.5237C96.314 24.9768 95.8711 24.3199 95.5749 23.5939C95.2788 22.868 95.1357 22.0887 95.1546 21.3049C95.1325 20.5065 95.2734 19.7119 95.5687 18.9698C95.864 18.2276 96.3075 17.5535 96.8721 16.9885C97.4367 16.4235 98.1106 15.9795 98.8525 15.6837C99.5945 15.3879 100.389 15.2464 101.187 15.2679C102.017 15.2243 102.847 15.3564 103.623 15.6555C104.398 15.9546 105.102 16.4141 105.688 17.0038C106.274 17.5936 106.728 18.3003 107.022 19.0778C107.316 19.8553 107.442 20.6861 107.393 21.5159L107.385 22.0601ZM104.453 19.8284C104.26 19.202 103.854 18.663 103.305 18.3054C102.727 17.9107 102.04 17.7057 101.339 17.719C100.572 17.7036 99.8202 17.9326 99.1919 18.3729C98.7198 18.7619 98.3516 19.262 98.1204 19.8284H104.453Z" fill="white"/>
<path d="M116.935 17.1669L115.113 18.9388C114.375 18.2427 113.7 17.8883 113.096 17.8883C112.823 17.8725 112.551 17.9434 112.32 18.0908C112.234 18.1437 112.163 18.2175 112.114 18.3053C112.064 18.3931 112.038 18.4921 112.037 18.5929C112.041 18.7516 112.106 18.9027 112.219 19.0147C112.481 19.2372 112.777 19.4153 113.096 19.5421L114.172 20.0568C115.067 20.4222 115.867 20.9879 116.509 21.7105C117 22.3885 117.221 23.2245 117.129 24.0563C117.038 24.888 116.641 25.6563 116.016 26.2119C115.157 26.9161 114.066 27.2728 112.957 27.2117C112.165 27.2426 111.377 27.0815 110.661 26.7421C109.945 26.4027 109.321 25.8951 108.844 25.2627L110.649 23.3474C110.988 23.735 111.397 24.0543 111.856 24.2882C112.23 24.5059 112.651 24.6304 113.084 24.651C113.417 24.6673 113.747 24.5723 114.02 24.381C114.124 24.3121 114.21 24.2196 114.271 24.111C114.331 24.0025 114.366 23.881 114.37 23.7566C114.37 23.3347 113.948 22.8918 113.105 22.491L112.118 22.01C110.216 21.0763 109.266 19.9147 109.266 18.5254C109.265 18.0864 109.36 17.6526 109.546 17.2546C109.731 16.8566 110.001 16.5041 110.337 16.2219C111.097 15.571 112.075 15.2306 113.075 15.2685C113.819 15.2654 114.554 15.4343 115.222 15.7621C115.896 16.0884 116.483 16.5699 116.935 17.1669Z" fill="white"/>
<path d="M126.609 17.1667L124.786 18.9386C124.031 18.2425 123.373 17.8881 122.766 17.8881C122.492 17.8717 122.22 17.9426 121.989 18.0906C121.904 18.1435 121.833 18.2173 121.783 18.3051C121.734 18.3929 121.707 18.4919 121.707 18.5926C121.709 18.751 121.772 18.9024 121.884 19.0145C122.149 19.2343 122.447 19.4121 122.766 19.5419L123.846 20.0565C124.741 20.4202 125.539 20.9862 126.179 21.7103C126.609 22.2802 126.833 22.9792 126.816 23.6931C126.827 24.1737 126.73 24.6506 126.532 25.0888C126.334 25.5269 126.04 25.9149 125.672 26.2243C124.811 26.9266 123.719 27.283 122.61 27.2242C121.825 27.2471 121.046 27.0808 120.339 26.7394C119.632 26.398 119.017 25.8914 118.547 25.2625L120.348 23.3472C120.688 23.7338 121.097 24.053 121.555 24.2879C121.929 24.5063 122.35 24.6308 122.782 24.6508C123.116 24.6677 123.446 24.5727 123.719 24.3808C123.823 24.3127 123.91 24.2203 123.971 24.1116C124.032 24.0029 124.066 23.881 124.069 23.7564C124.069 23.3176 123.647 22.8958 122.804 22.4908L121.812 22.0098C119.917 21.0761 118.969 19.9145 118.969 18.5251C118.965 18.0856 119.059 17.6508 119.244 17.2523C119.43 16.8538 119.702 16.5017 120.04 16.2217C120.796 15.5724 121.77 15.2319 122.766 15.2683C123.51 15.2641 124.245 15.4331 124.913 15.7619C125.581 16.0898 126.162 16.5712 126.609 17.1667Z" fill="white"/>
<path d="M13.8591 36.4875H17.0612V48.9877H13.8591V47.6714C13.3112 48.2045 12.6707 48.6334 11.9691 48.9371C11.3162 49.1992 10.6182 49.331 9.91462 49.3252C9.1066 49.3293 8.30674 49.1635 7.5669 48.8386C6.82705 48.5138 6.16373 48.0371 5.61993 47.4394C5.01921 46.8207 4.54846 46.088 4.23545 45.2845C3.92244 44.4809 3.77351 43.6228 3.79744 42.7608C3.73311 41.0071 4.36559 39.2993 5.55665 38.0105C6.09617 37.418 6.7554 36.9469 7.49069 36.6283C8.22598 36.3098 9.02056 36.1511 9.8218 36.1627C10.5652 36.1611 11.3017 36.3044 11.9902 36.5846C12.6881 36.8836 13.3225 37.3132 13.8591 37.8502V36.4875ZM10.4841 39.0188C10.0171 39.0077 9.55314 39.0964 9.12317 39.279C8.6932 39.4616 8.30717 39.7339 7.99087 40.0777C7.32663 40.7949 6.97324 41.7459 7.0079 42.7229C6.97682 43.7127 7.3394 44.6745 8.01618 45.3975C8.33022 45.7368 8.71246 46.0057 9.1378 46.1868C9.56314 46.3678 10.022 46.4568 10.4841 46.448C10.951 46.4617 11.4156 46.3767 11.8474 46.1986C12.2792 46.0205 12.6686 45.7533 12.9901 45.4144C13.3301 45.0522 13.594 44.6255 13.7665 44.1596C13.9389 43.6938 14.0163 43.198 13.9941 42.7018C14.0152 42.2139 13.937 41.7268 13.7645 41.27C13.5919 40.8131 13.3285 40.3961 12.9901 40.0439C12.6643 39.7086 12.2719 39.4452 11.8381 39.2708C11.4043 39.0964 10.9387 39.0149 10.4715 39.0315L10.4841 39.0188Z" fill="white"/>
<path d="M20.2969 36.4883H23.5537V42.5084C23.5129 43.3319 23.5968 44.1569 23.8027 44.9553C23.9507 45.3866 24.2312 45.7602 24.6042 46.0226C25.0074 46.2815 25.4795 46.4124 25.9584 46.3981C26.444 46.4122 26.9227 46.2815 27.3337 46.0226C27.7255 45.7589 28.0214 45.3757 28.1775 44.93C28.3561 44.1717 28.4243 43.3917 28.38 42.6139V36.4883H31.582V41.7912C31.582 43.9681 31.409 45.4616 31.0547 46.2716C30.6598 47.1986 29.9898 47.9821 29.1351 48.5159C28.1599 49.0742 27.0476 49.3475 25.9247 49.3048C24.7185 49.3601 23.5253 49.0371 22.5117 48.3809C21.6342 47.7578 20.9875 46.8619 20.6723 45.8328C20.4234 45.0734 20.2969 43.7234 20.2969 41.69V36.4883Z" fill="white"/>
<path d="M35.1629 31.8848H38.3649V36.4874H40.2634V39.179H38.3649V48.9876H35.1629V39.179H33.5176V36.4874H35.1629V31.8848Z" fill="white"/>
<path d="M48.029 36.1633C49.2236 36.1582 50.3993 36.4619 51.4419 37.045C52.4768 37.6037 53.3402 38.4335 53.9394 39.4455C54.5323 40.4357 54.843 41.5693 54.838 42.7234C54.8406 43.8898 54.5287 45.0353 53.9352 46.0394C53.3504 47.052 52.498 47.884 51.4715 48.444C50.4226 49.0298 49.2387 49.3308 48.0374 49.3173C47.1633 49.3327 46.2952 49.1709 45.4853 48.8417C44.6754 48.5126 43.9406 48.0228 43.3251 47.402C42.6873 46.7743 42.1855 46.022 41.8507 45.1921C41.516 44.3622 41.3555 43.4723 41.3793 42.5777C41.403 41.6832 41.6104 40.803 41.9887 39.992C42.367 39.181 42.908 38.4565 43.5782 37.8634C44.7954 36.7575 46.3844 36.1505 48.029 36.1633ZM48.0838 39.1164C47.6164 39.1005 47.1508 39.1819 46.7165 39.3555C46.2822 39.529 45.8887 39.791 45.561 40.1247C45.2277 40.47 44.9671 40.8786 44.7946 41.3265C44.6222 41.7743 44.5413 42.2522 44.5569 42.7319C44.5368 43.2173 44.6142 43.7019 44.7845 44.1569C44.9548 44.6119 45.2145 45.0283 45.5484 45.3812C45.876 45.7219 46.2721 45.9894 46.7106 46.1661C47.149 46.3428 47.6199 46.4247 48.0923 46.4064C48.5621 46.4192 49.0294 46.3348 49.465 46.1584C49.9006 45.982 50.295 45.7174 50.6235 45.3812C50.9598 45.0311 51.222 44.6168 51.3945 44.163C51.567 43.7093 51.6463 43.2254 51.6276 42.7403C51.6468 42.2571 51.5677 41.775 51.3951 41.3232C51.2225 40.8714 50.96 40.4594 50.6235 40.112C50.2952 39.7765 49.9005 39.5132 49.4647 39.3388C49.0288 39.1645 48.5614 39.083 48.0923 39.0995L48.0838 39.1164Z" fill="white"/>
<path d="M57.4336 36.487H60.6356V37.9256C61.153 37.3614 61.7804 36.9092 62.4792 36.5967C63.1777 36.3053 63.9289 36.1617 64.6856 36.1748C65.4579 36.1578 66.219 36.3621 66.8791 36.7635C67.5391 37.1649 68.0706 37.7467 68.4108 38.4403C68.8845 37.7301 69.5292 37.1504 70.2855 36.7545C71.0419 36.3587 71.8856 36.1593 72.7392 36.1748C73.5844 36.1587 74.4182 36.3716 75.1523 36.7907C75.8003 37.1606 76.321 37.718 76.6458 38.3896C76.9495 39.0604 77.0972 40.1446 77.0972 41.6465V48.9787H73.8951V42.6506C73.8951 41.2331 73.7179 40.2754 73.3509 39.7734C73.16 39.5258 72.9115 39.3287 72.6269 39.1992C72.3423 39.0698 72.0303 39.012 71.7183 39.0309C71.1839 39.0241 70.6606 39.1833 70.2206 39.4865C69.7714 39.7992 69.4273 40.2403 69.2334 40.7521C68.9769 41.5918 68.8684 42.4698 68.9128 43.3467V48.9829H65.7066V42.9417C65.7418 42.1236 65.6565 41.3049 65.4534 40.5117C65.319 40.0676 65.0491 39.6767 64.6814 39.3937C64.3188 39.1437 63.8855 39.0165 63.4453 39.0309C62.9177 39.025 62.4019 39.1876 61.973 39.495C61.5193 39.8203 61.1739 40.2745 60.9816 40.7986C60.7205 41.6519 60.6091 42.544 60.6525 43.4353V48.9871H57.4505L57.4336 36.487Z" fill="white"/>
<path d="M89.5813 36.4879H92.7834V48.9881H89.5813V47.6718C89.0356 48.2056 88.3964 48.6346 87.6956 48.9374C87.041 49.1991 86.3417 49.331 85.6368 49.3256C84.8288 49.3296 84.0289 49.1639 83.2891 48.839C82.5492 48.5141 81.8859 48.0374 81.3421 47.4398C80.744 46.8214 80.2754 46.0897 79.9638 45.2878C79.6523 44.4858 79.5042 43.6296 79.5281 42.7696C79.4626 41.0165 80.0935 39.3088 81.2831 38.0193C81.8208 37.4268 82.4785 36.9556 83.2124 36.637C83.9464 36.3184 84.7397 36.1597 85.5398 36.1715C86.2859 36.1699 87.0252 36.3132 87.7167 36.5934C88.4127 36.8935 89.0454 37.323 89.5813 37.859V36.4879ZM86.2063 39.0192C85.74 39.0081 85.2766 39.0969 84.8473 39.2795C84.4181 39.4621 84.0328 39.7344 83.7173 40.0781C83.0796 40.8212 82.7307 41.769 82.7346 42.7482C82.7385 43.7275 83.0948 44.6725 83.7384 45.4106C84.0531 45.7501 84.436 46.0192 84.8621 46.2003C85.2882 46.3813 85.7477 46.4702 86.2106 46.461C86.6773 46.4734 87.1414 46.3878 87.5731 46.2098C88.0047 46.0318 88.3942 45.7652 88.7165 45.4274C89.0544 45.0641 89.3164 44.6371 89.4874 44.1713C89.6583 43.7056 89.7347 43.2104 89.7121 42.7148C89.7335 42.2276 89.6564 41.741 89.4853 41.2844C89.3142 40.8277 89.0527 40.4102 88.7165 40.057C88.3903 39.7202 87.9974 39.4552 87.5631 39.2787C87.1287 39.1022 86.6623 39.0181 86.1937 39.0318L86.2063 39.0192Z" fill="white"/>
<path d="M96.4123 31.8848H99.6143V36.4874H101.517V39.179H99.6143V48.9876H96.4123V39.179H94.7754V36.4874H96.4123V31.8848Z" fill="white"/>
<path d="M104.507 31.3538C104.777 31.3499 105.044 31.401 105.293 31.504C105.541 31.607 105.767 31.7598 105.954 31.9528C106.145 32.1394 106.297 32.3623 106.4 32.6082C106.503 32.8542 106.557 33.1183 106.557 33.3851C106.557 33.6519 106.503 33.916 106.4 34.162C106.297 34.4079 106.145 34.6308 105.954 34.8174C105.769 35.0069 105.547 35.157 105.302 35.2585C105.057 35.36 104.794 35.4108 104.528 35.408C104.257 35.4119 103.987 35.3609 103.735 35.258C103.484 35.155 103.256 35.0023 103.065 34.8089C102.87 34.6198 102.715 34.3927 102.612 34.1416C102.508 33.8905 102.457 33.6209 102.461 33.3492C102.457 33.0855 102.508 32.8239 102.611 32.5812C102.714 32.3385 102.867 32.1201 103.06 31.9402C103.25 31.7504 103.476 31.6007 103.724 31.4999C103.973 31.3992 104.239 31.3495 104.507 31.3538ZM102.913 36.488H106.119V48.9881H102.913V36.488Z" fill="white"/>
<path d="M115.062 36.1633C116.258 36.1571 117.435 36.4608 118.479 37.045C119.514 37.6037 120.377 38.4335 120.977 39.4455C121.57 40.4358 121.882 41.569 121.879 42.7234C121.881 43.8908 121.566 45.0368 120.968 46.0394C120.387 47.0521 119.537 47.8843 118.513 48.444C117.462 49.0288 116.277 49.3298 115.075 49.3173C114.201 49.332 113.333 49.1698 112.523 48.8407C111.713 48.5116 110.978 48.0222 110.362 47.402C109.723 46.7752 109.22 46.0234 108.884 45.1935C108.548 44.3636 108.387 43.4735 108.41 42.5785C108.434 41.6836 108.641 40.8031 109.02 39.9919C109.398 39.1806 109.94 38.4561 110.611 37.8634C111.828 36.7575 113.417 36.1505 115.062 36.1633ZM115.121 39.1164C114.654 39.1044 114.191 39.1894 113.758 39.3658C113.326 39.5423 112.936 39.8064 112.611 40.1416C112.279 40.4874 112.02 40.8963 111.849 41.3442C111.678 41.792 111.598 42.2697 111.615 42.7487C111.594 43.234 111.67 43.7186 111.839 44.1738C112.009 44.629 112.269 45.0453 112.602 45.3981C112.927 45.733 113.318 45.9964 113.75 46.1715C114.182 46.3465 114.646 46.4294 115.113 46.4148C115.583 46.4297 116.051 46.3463 116.487 46.1697C116.922 45.9932 117.317 45.7275 117.644 45.3897C117.981 45.0398 118.244 44.6256 118.417 44.1718C118.59 43.7181 118.67 43.2341 118.652 42.7487C118.672 42.2678 118.594 41.7878 118.424 41.3376C118.253 40.8874 117.994 40.4763 117.661 40.1289C117.332 39.7903 116.937 39.5239 116.499 39.3467C116.062 39.1694 115.593 39.0853 115.121 39.0995V39.1164Z" fill="white"/>
<path d="M124.453 36.4879H127.659V37.7535C128.254 37.2338 128.924 36.8071 129.646 36.4879C130.226 36.256 130.845 36.1371 131.469 36.1377C132.069 36.1249 132.666 36.2334 133.223 36.4567C133.781 36.68 134.288 37.0134 134.713 37.4371C135.46 38.1712 135.831 39.2596 135.831 40.694V48.9627H132.659V43.4783C132.701 42.4809 132.631 41.4819 132.452 40.4999C132.35 40.0551 132.095 39.6605 131.73 39.3857C131.366 39.1109 130.916 38.9736 130.461 38.998C129.837 38.9825 129.231 39.211 128.773 39.6351C128.281 40.1229 127.951 40.7504 127.828 41.4323C127.705 42.2701 127.659 43.1173 127.689 43.9635V48.9838H124.453V36.4879Z" fill="white"/>
</svg>
