<svg xmlns="http://www.w3.org/2000/svg" xmlns:xlink="http://www.w3.org/1999/xlink" width="38.684" height="31.497" viewBox="0 0 38.684 31.497">
  <defs>
    <clipPath id="clip-path">
      <rect id="Rectangle_5451" data-name="Rectangle 5451" width="38.684" height="31.497" transform="translate(0 0)" fill="#fff"/>
    </clipPath>
  </defs>
  <g id="Group_20914" data-name="Group 20914" clip-path="url(#clip-path)">
    <path id="Path_21093" data-name="Path 21093" d="M1187.755,157.7h-2.768l-1.96-3.126a2.5,2.5,0,0,0-2.229-1.039,2.334,2.334,0,0,0-2.063,1.239l-3.831,8.313-5.51-13.256a2.558,2.558,0,0,0-4.446-.018l-4.228,9.87-.743-1.029a2.472,2.472,0,0,0-2.024-.953h-4.177a1.954,1.954,0,1,0,0,3.829h2.819l2.614,3.68a2.521,2.521,0,0,0,2.255.943,2.3,2.3,0,0,0,2-1.274l3.665-8.544,5.433,13.067a2.569,2.569,0,0,0,4.433.058l4.266-9.278.193.306a2.457,2.457,0,0,0,2.1,1.042h4.2a1.956,1.956,0,1,0,0-3.829Z" transform="translate(-1151.43 -143.864)" fill="#fff"/>
  </g>
</svg>
