<svg width="148" height="57" viewBox="0 0 148 57" fill="none" xmlns="http://www.w3.org/2000/svg">
<rect x="0.5" y="0.5" width="146.245" height="55.4414" rx="9.5" fill="#007536"/>
<path d="M36.2846 14.1974L41.9675 15.3868C42.6968 15.5391 43.3521 15.9356 43.8246 16.5103C44.297 17.0851 44.5583 17.8037 44.565 18.5469L44.6192 24.342C44.6241 24.8411 44.7437 25.3325 44.9689 25.7782L47.5883 30.9569C47.9236 31.6206 48.0213 32.3786 47.8653 33.1053C47.7093 33.832 47.3089 34.4837 46.7306 34.9523L42.2219 38.6076C41.8332 38.9221 41.5224 39.3216 41.3135 39.7752L38.8856 45.0402C38.5739 45.7163 38.0398 46.2657 37.3718 46.5972C36.7038 46.9288 35.9422 47.0224 35.2135 46.8626L29.5376 45.6253C29.0472 45.5183 28.5387 45.5251 28.0513 45.6453L22.4104 47.0344C21.687 47.2128 20.9242 47.1392 20.2486 46.8258C19.5729 46.5124 19.0249 45.978 18.6955 45.3114L16.1347 40.1126C15.9135 39.665 15.5919 39.2742 15.1949 38.9704L10.5891 35.4362C9.99883 34.9827 9.58167 34.3416 9.40675 33.6192C9.23184 32.8969 9.30968 32.1366 9.62738 31.4644L12.0999 26.2203C12.3127 25.7687 12.4186 25.2743 12.4094 24.7754L12.3071 18.9811C12.2944 18.2385 12.5364 17.5138 12.9931 16.9271C13.4497 16.3404 14.0936 15.9268 14.8181 15.7548L20.4704 14.4128C20.9573 14.2976 21.4112 14.072 21.7967 13.7536L26.2748 10.0608C26.8491 9.58728 27.5685 9.3237 28.3136 9.31371C29.0586 9.30372 29.7848 9.54792 30.3717 10.0058L34.9478 13.581C35.3406 13.8851 35.7978 14.0959 36.2846 14.1974Z" fill="url(#paint0_linear_1763_6499)"/>
<path d="M21.6485 47.4414C20.9778 47.4411 20.3204 47.2545 19.7501 46.9024C19.1798 46.5503 18.7191 46.0467 18.4197 45.4481L15.8502 40.2511C15.65 39.847 15.36 39.4939 15.0021 39.2187L10.3963 35.6863C9.75056 35.1868 9.29402 34.4834 9.10151 33.6913C8.90899 32.8992 8.99191 32.0654 9.3367 31.3264L11.8092 26.0823C12.0014 25.6734 12.0974 25.226 12.0898 24.7744L11.9867 18.9801C11.9775 18.1669 12.2448 17.3746 12.7452 16.7324C13.2455 16.0903 13.9492 15.6362 14.7416 15.4442L20.3939 14.1022C20.8333 13.9974 21.2429 13.794 21.5917 13.5075L26.0698 9.81471C26.7014 9.29854 27.4899 9.01142 28.3064 9.00033C29.1229 8.98925 29.919 9.25484 30.5645 9.75367L35.1406 13.3288C35.4965 13.6059 35.9113 13.7983 36.3532 13.8912L42.0361 15.0806C42.8345 15.2513 43.5511 15.6873 44.0687 16.3171C44.5863 16.9469 44.8743 17.7333 44.8854 18.5476L44.9396 24.3427C44.9439 24.7932 45.0516 25.2368 45.2544 25.6394L47.8676 30.8146C48.2314 31.5437 48.3364 32.3743 48.1655 33.1707C47.9946 33.9671 47.558 34.6821 46.9269 35.1989L42.4173 38.8542C42.0673 39.1388 41.7871 39.4994 41.5981 39.9084L39.1746 45.1699C38.8299 45.9079 38.2445 46.5075 37.5141 46.8708C36.7836 47.2341 35.9512 47.3397 35.1528 47.1703L29.4743 45.9321C29.0329 45.8362 28.5753 45.8422 28.1366 45.9495L22.4957 47.3394C22.2184 47.4073 21.934 47.4415 21.6485 47.4414V47.4414ZM28.3552 9.63159C27.6689 9.62988 27.0035 9.86702 26.4737 10.3021L21.9956 13.995C21.5724 14.3436 21.0747 14.5909 20.5407 14.7178L14.8885 16.0598C14.2356 16.2186 13.656 16.5934 13.2441 17.1229C12.8323 17.6525 12.6125 18.3056 12.6205 18.9757L12.7237 24.7656C12.733 25.313 12.6166 25.8553 12.3836 26.3509L9.91111 31.595C9.62886 32.2033 9.56164 32.8891 9.72042 33.5404C9.8792 34.1918 10.2546 34.7702 10.7854 35.1814L15.3894 38.7173C15.8239 39.0517 16.1762 39.4805 16.4193 39.9712L18.9889 45.1699C19.2895 45.7692 19.7848 46.2492 20.394 46.5317C21.0032 46.8142 21.6904 46.8825 22.3435 46.7256L27.9845 45.3365C28.5175 45.2055 29.0735 45.198 29.6098 45.3147L35.2866 46.552C35.9435 46.6914 36.6283 46.6047 37.2295 46.3063C37.8308 46.0078 38.3129 45.5151 38.5975 44.9083L41.0254 39.6433C41.2556 39.1463 41.5965 38.7082 42.0221 38.3624L46.5308 34.7062C47.0498 34.2806 47.4089 33.6922 47.5496 33.0369C47.6903 32.3817 47.6042 31.6982 47.3055 31.098L44.6922 25.9219C44.4459 25.4326 44.3149 24.8937 44.3093 24.3462L44.2551 18.5519C44.2453 17.8818 44.0082 17.2347 43.5823 16.7163C43.1565 16.1978 42.5671 15.8385 41.9102 15.6971L36.2273 14.5077C35.6902 14.3948 35.186 14.1609 34.7532 13.8241L30.1728 10.2524C29.6536 9.84857 29.0136 9.62997 28.3552 9.63159V9.63159Z" fill="white"/>
<path d="M28.3932 13.6693L16.0098 20.8003V35.0624L28.3932 42.1934L40.7776 35.0624V20.8003L28.3932 13.6693Z" fill="white"/>
<path d="M37.1411 34.0533V35.3342L28.657 37.4505L20.1729 35.3325V34.0524L28.657 36.1696L37.1411 34.0533Z" fill="black"/>
<path d="M37.5171 21.2492L37.5154 33.96L28.6561 36.1696H28.6553V19.0396L37.5171 21.2492Z" fill="black"/>
<path d="M28.655 19.0396V36.1696L19.7949 33.9583L19.7958 21.2492L28.655 19.0396Z" fill="#232222"/>
<path d="M20.3691 35.1712V34.7361L28.6557 36.8044L36.9414 34.7361V35.1729L28.6557 37.2404L20.3691 35.1712Z" fill="white"/>
<path d="M20.3691 34.5364V34.1004L28.6557 36.1687L36.9414 34.1013V34.5381L28.6557 36.6047L20.3691 34.5364Z" fill="white"/>
<path d="M20.8145 21.2282L28.6577 19.2724L36.5001 21.2282L28.656 23.185L20.8145 21.2282Z" fill="white"/>
<path d="M20.041 24.7188V23.7518L28.596 25.8872C28.6354 25.8965 28.6764 25.8965 28.7157 25.8872L37.2689 23.7535V24.7205L28.6563 26.8691L20.041 24.7188Z" fill="#E29A1B"/>
<path d="M60.8785 24.3973C60.868 24.0709 60.7838 23.8392 60.6258 23.7024C60.4679 23.555 60.1889 23.4813 59.7888 23.4813H58.857C58.0568 23.4813 57.404 23.4076 56.8986 23.2601C56.4037 23.1022 56.0142 22.8653 55.7299 22.5495C55.5299 22.3283 55.3824 22.0704 55.2877 21.7756C55.2035 21.4702 55.1613 21.1228 55.1613 20.7332C55.1613 20.5753 55.1666 20.4331 55.1771 20.3068C55.1877 20.1699 55.2087 20.0067 55.2403 19.8172L57.2145 19.9436C57.2039 20.0383 57.1934 20.1225 57.1829 20.1962C57.1829 20.2699 57.1829 20.3384 57.1829 20.4016C57.1829 20.6227 57.2039 20.8227 57.2461 21.0017C57.2987 21.1702 57.3829 21.3123 57.4988 21.4281C57.6146 21.5334 57.762 21.6124 57.941 21.665C58.12 21.7177 58.4095 21.744 58.8096 21.744H59.8046C60.4258 21.744 60.9154 21.7914 61.2734 21.8861C61.6419 21.9809 61.9525 22.1494 62.2052 22.3915C62.4052 22.5916 62.5579 22.8548 62.6632 23.1812C62.779 23.497 62.8422 23.9024 62.8527 24.3973H60.8785ZM59.4413 26.5609C60.41 26.5609 61.1786 26.7084 61.7472 27.0032C62.3262 27.2874 62.7421 27.6507 62.9948 28.0929C63.2475 28.5351 63.3739 28.9879 63.3739 29.4511C63.3739 30.3145 63.1001 30.9778 62.5526 31.4411C62.0156 31.8938 61.2523 32.1992 60.2626 32.3571L59.8993 31.7096C60.4258 31.8464 60.947 32.0149 61.4629 32.215C61.9788 32.415 62.4894 32.6519 62.9948 32.9257C63.5107 33.1994 64.0161 33.51 64.511 33.8575L63.4054 35.3262C62.9106 34.9683 62.3841 34.6366 61.8261 34.3313C61.2786 34.0259 60.6943 33.7522 60.0731 33.51C59.4624 33.2573 58.8201 33.0362 58.1463 32.8467C57.4724 32.6572 56.7617 32.5045 56.0142 32.3887L56.3616 30.7304C56.7301 30.8251 57.0881 30.8988 57.4356 30.9515C57.7936 31.0041 58.1515 31.0305 58.5095 31.0305C59.1834 31.0305 59.7203 30.9673 60.1204 30.8409C60.5205 30.7041 60.8101 30.5198 60.9891 30.2882C61.1786 30.0565 61.2734 29.7828 61.2734 29.4669C61.2734 29.0879 61.1259 28.7825 60.8311 28.5509C60.5469 28.3193 60.1415 28.2035 59.6151 28.2035C59.3097 28.2035 59.0623 28.2298 58.8728 28.2824C58.6938 28.3351 58.5622 28.4193 58.4779 28.5351C58.4042 28.6404 58.3674 28.772 58.3674 28.9299C58.3674 28.9826 58.3779 29.0458 58.399 29.1195C58.42 29.1932 58.4411 29.2563 58.4621 29.309L56.5038 29.5933C56.4406 29.4353 56.388 29.2563 56.3458 29.0563C56.3037 28.8457 56.2827 28.6509 56.2827 28.4719C56.2827 28.0929 56.409 27.7612 56.6617 27.477C56.9144 27.1822 57.2776 26.9558 57.7514 26.7978C58.2252 26.6399 58.7885 26.5609 59.4413 26.5609ZM57.5777 27.4612C57.5251 27.1137 57.3671 26.8136 57.1039 26.5609C56.8407 26.3083 56.4617 26.124 55.9668 26.0082L57.1671 25.3133L57.8936 25.487C58.4832 25.7292 58.9096 25.9977 59.1728 26.2925C59.4361 26.5873 59.5887 26.961 59.6308 27.4138L57.5777 27.4612ZM64.4952 24.3973V26.1345H55.1298V24.3973H64.4952ZM72.1268 27.5559V29.7986H65.1778V27.5559H72.1268ZM77.6715 26.5609C78.6401 26.5609 79.4088 26.7084 79.9773 27.0032C80.5564 27.2874 80.9723 27.6507 81.225 28.0929C81.4777 28.5351 81.604 28.9879 81.604 29.4511C81.604 30.3145 81.3303 30.9778 80.7828 31.4411C80.2458 31.8938 79.4825 32.1992 78.4927 32.3571L78.1295 31.7096C78.6559 31.8464 79.1771 32.0149 79.693 32.215C80.209 32.415 80.7196 32.6519 81.225 32.9257C81.7409 33.1994 82.2463 33.51 82.7411 33.8575L81.6356 35.3262C81.1408 34.9683 80.6143 34.6366 80.0563 34.3313C79.5088 34.0259 78.9244 33.7522 78.3032 33.51C77.6925 33.2573 77.0503 33.0362 76.3764 32.8467C75.7026 32.6572 74.9919 32.5045 74.2443 32.3887L74.5918 30.7304C74.9603 30.8251 75.3183 30.8988 75.6657 30.9515C76.0237 31.0041 76.3817 31.0305 76.7397 31.0305C77.4135 31.0305 77.9505 30.9673 78.3506 30.8409C78.7507 30.7041 79.0402 30.5198 79.2192 30.2882C79.4088 30.0565 79.5035 29.7828 79.5035 29.4669C79.5035 29.0879 79.3561 28.7825 79.0613 28.5509C78.777 28.3193 78.3717 28.2035 77.8452 28.2035C77.5399 28.2035 77.2925 28.2298 77.1029 28.2824C76.9239 28.3351 76.7923 28.4193 76.7081 28.5351C76.6344 28.6404 76.5975 28.772 76.5975 28.9299C76.5975 28.9826 76.6081 29.0458 76.6291 29.1195C76.6502 29.1932 76.6712 29.2563 76.6923 29.309L74.7339 29.5933C74.6708 29.4353 74.6181 29.2563 74.576 29.0563C74.5339 28.8457 74.5128 28.6509 74.5128 28.4719C74.5128 28.0929 74.6392 27.7612 74.8919 27.477C75.1446 27.1822 75.5078 26.9558 75.9816 26.7978C76.4554 26.6399 77.0187 26.5609 77.6715 26.5609ZM75.8079 27.4612C75.7552 27.1137 75.5973 26.8136 75.3341 26.5609C75.0709 26.3083 74.6918 26.124 74.197 26.0082L75.3973 25.3133L76.1237 25.487C76.7134 25.7292 77.1398 25.9977 77.403 26.2925C77.6662 26.5873 77.8189 26.961 77.861 27.4138L75.8079 27.4612ZM82.7253 24.3973V26.1345H73.3599V24.3973H82.7253ZM89.5203 33.7469C88.7622 33.7469 88.0515 33.6469 87.3882 33.4468C86.7249 33.2363 86.1089 32.8941 85.5404 32.4203C84.9824 31.9465 84.4717 31.3042 84.0084 30.4935C83.5557 29.6828 83.1609 28.672 82.8239 27.4612L84.7981 26.9084C85.1666 28.1824 85.5667 29.1879 85.9984 29.9249C86.4406 30.6514 86.9407 31.1673 87.4988 31.4727C88.0568 31.778 88.6938 31.9307 89.4097 31.9307C90.1573 31.9307 90.689 31.7991 91.0049 31.5358C91.3313 31.2621 91.4945 30.9146 91.4945 30.4935C91.4945 30.1355 91.4523 29.8407 91.3681 29.6091C91.2944 29.3774 91.2154 29.1826 91.1312 29.0247L92.5842 29.1037C92.2578 29.3985 91.9314 29.6617 91.605 29.8933C91.2786 30.1144 90.9206 30.2934 90.5311 30.4303C90.152 30.5567 89.6993 30.6198 89.1728 30.6198C88.7201 30.6198 88.3147 30.5461 87.9568 30.3987C87.5988 30.2513 87.3145 30.0249 87.1039 29.7196C86.9039 29.4037 86.8038 29.0036 86.8038 28.5193C86.8038 28.0982 86.9197 27.6875 87.1513 27.2874C87.3829 26.8768 87.8146 26.4872 88.4464 26.1187C88.2463 26.1293 88.062 26.1345 87.8936 26.1345C87.7357 26.1345 87.5514 26.1345 87.3408 26.1345H82.4133V24.3973H98.4751V26.1345H93.8003C93.516 26.1345 93.1843 26.1293 92.8053 26.1187C92.4368 26.0977 92.1157 26.0819 91.8419 26.0714C91.2207 26.2819 90.689 26.5136 90.2468 26.7663C89.8046 27.0084 89.4677 27.2611 89.236 27.5243C89.0044 27.777 88.8886 28.0245 88.8886 28.2666C88.8886 28.4772 88.9465 28.6351 89.0623 28.7404C89.1781 28.8352 89.315 28.8826 89.4729 28.8826C89.7572 28.8826 90.0099 28.8247 90.231 28.7088C90.4521 28.593 90.7048 28.4298 90.9891 28.2192L93.2949 28.8984C93.3686 29.1089 93.4265 29.3511 93.4686 29.6249C93.5213 29.8986 93.5476 30.1881 93.5476 30.4935C93.5476 31.0199 93.416 31.5358 93.1528 32.0412C92.8895 32.5361 92.4631 32.9467 91.8735 33.2731C91.2839 33.589 90.4995 33.7469 89.5203 33.7469ZM96.7694 31.1094C96.7694 31.5306 96.8115 31.9833 96.8958 32.4676C96.9905 32.952 97.1221 33.4521 97.2906 33.968L95.2533 34.3944C95.0532 33.8259 94.9058 33.2784 94.8111 32.7519C94.7163 32.2255 94.6689 31.6411 94.6689 30.9989C94.6689 30.6093 94.6952 30.2303 94.7479 29.8618C94.8111 29.4827 94.9005 29.13 95.0164 28.8036C94.2267 28.6878 93.5476 28.5088 92.979 28.2666C92.4105 28.0245 91.9314 27.7297 91.5418 27.3822C91.1628 27.0242 90.8469 26.6241 90.5942 26.1819L92.7737 25.9766C92.9001 26.1661 93.0791 26.3504 93.3107 26.5294C93.5529 26.6978 93.8635 26.84 94.2425 26.9558C94.6321 27.0611 95.1111 27.1137 95.6797 27.1137C95.7955 27.1137 95.9061 27.1085 96.0113 27.0979C96.1272 27.0874 96.2693 27.0769 96.4378 27.0663L97.4012 28.6299C97.2011 28.9879 97.0432 29.3669 96.9274 29.767C96.8221 30.1671 96.7694 30.6146 96.7694 31.1094ZM116.985 24.3973V26.1345H115.468V34.2207H113.384C113.089 33.6627 112.673 33.1836 112.136 32.7835C111.61 32.3729 111.099 32.036 110.604 31.7727L111.52 30.4303C111.92 30.6619 112.283 30.9094 112.61 31.1726C112.947 31.4253 113.221 31.6727 113.431 31.9149C113.421 31.7991 113.41 31.6832 113.4 31.5674C113.4 31.4516 113.394 31.3305 113.384 31.2042C113.384 31.0673 113.384 30.9304 113.384 30.7936V26.1345H101.507V24.3973H116.985ZM107.951 32.9257C107.087 32.9257 106.277 32.7572 105.519 32.4203C104.771 32.0833 104.092 31.5148 103.481 30.7146C102.881 29.9144 102.355 28.8299 101.902 27.4612L103.876 26.9084C104.213 27.8876 104.566 28.6878 104.934 29.309C105.303 29.9302 105.724 30.3882 106.198 30.683C106.672 30.9673 107.224 31.1094 107.856 31.1094C108.351 31.1094 108.756 31.0462 109.072 30.9199C109.399 30.7936 109.641 30.6093 109.799 30.3671C109.957 30.125 110.036 29.8407 110.036 29.5143C110.036 29.1142 109.925 28.8036 109.704 28.5825C109.493 28.3509 109.22 28.235 108.883 28.235C108.651 28.235 108.472 28.2929 108.346 28.4088C108.219 28.5246 108.156 28.6773 108.156 28.8668C108.156 28.951 108.167 29.0458 108.188 29.1511C108.209 29.2458 108.235 29.3353 108.267 29.4195L106.308 29.7038C106.224 29.5038 106.161 29.309 106.119 29.1195C106.077 28.9299 106.056 28.7667 106.056 28.6299C106.056 28.114 106.177 27.7086 106.419 27.4138C106.661 27.1085 106.977 26.8873 107.366 26.7505C107.767 26.6136 108.182 26.5452 108.614 26.5452C109.341 26.5452 109.967 26.6873 110.494 26.9716C111.02 27.2453 111.42 27.6244 111.694 28.1087C111.978 28.593 112.12 29.1405 112.12 29.7512C112.12 30.3198 111.978 30.8462 111.694 31.3305C111.41 31.8149 110.957 32.2044 110.336 32.4992C109.725 32.7835 108.93 32.9257 107.951 32.9257ZM106.956 27.4612C106.914 27.1137 106.761 26.8136 106.498 26.5609C106.235 26.3083 105.856 26.124 105.361 26.0082L106.545 25.3133L107.272 25.487C107.861 25.7292 108.288 25.9977 108.551 26.2925C108.814 26.5873 108.972 26.961 109.025 27.4138L106.956 27.4612ZM121.485 24.3973V26.1345H120.222L121.153 25.8345C120.859 26.0977 120.622 26.3451 120.443 26.5767C120.274 26.8084 120.153 27.04 120.079 27.2716C120.006 27.5033 119.969 27.7612 119.969 28.0455C119.969 28.393 120.011 28.7562 120.095 29.1353C120.19 29.5038 120.28 29.8828 120.364 30.2724C120.459 30.6514 120.506 31.0305 120.506 31.4095C120.506 31.8412 120.453 32.2413 120.348 32.6098C120.253 32.9783 120.074 33.3152 119.811 33.6206C119.548 33.9154 119.179 34.1786 118.705 34.4102C118.232 34.6524 117.616 34.863 116.858 35.042L116.4 33.3363C116.989 33.1889 117.426 33.0204 117.71 32.8309C117.995 32.6414 118.179 32.4255 118.263 32.1834C118.358 31.9412 118.405 31.678 118.405 31.3937C118.405 30.9936 118.358 30.6093 118.263 30.2408C118.179 29.8723 118.09 29.509 117.995 29.1511C117.911 28.7931 117.868 28.4246 117.868 28.0455C117.868 27.7297 117.905 27.4559 117.979 27.2243C118.053 26.9821 118.163 26.7505 118.311 26.5294C118.469 26.3083 118.658 26.0766 118.879 25.8345L118.69 26.1345H116.668V24.3973H121.485ZM126.289 24.3973V26.1345H124.773V34.2207H122.688V27.2085C122.561 26.8821 122.383 26.6241 122.151 26.4346C121.919 26.2346 121.619 26.1345 121.251 26.1345H121.172V24.3973H121.488C121.73 24.3973 121.956 24.4604 122.167 24.5868C122.377 24.7131 122.572 24.9816 122.751 25.3922C122.74 25.3396 122.725 25.2185 122.704 25.029C122.693 24.8395 122.688 24.6763 122.688 24.5394V23.3549H124.394L124.757 24.3973H126.289ZM138.366 24.3973V26.1345H136.85V34.2207H134.765V28.0297L134.86 28.8352C134.534 28.393 134.207 27.9981 133.881 27.6507C133.554 27.3032 133.228 27.0084 132.902 26.7663C132.575 26.5241 132.243 26.3398 131.907 26.2135C131.57 26.0872 131.227 26.024 130.88 26.024C130.459 26.024 130.075 26.1029 129.727 26.2609C129.39 26.4188 129.074 26.6347 128.779 26.9084C128.495 27.1822 128.206 27.5033 127.911 27.8718L127.863 27.5085C128.074 27.3717 128.3 27.2506 128.543 27.1453C128.795 27.0295 129.09 26.9716 129.427 26.9716C129.953 26.9716 130.332 27.119 130.564 27.4138C130.806 27.6981 130.927 28.0192 130.927 28.3772C130.927 28.5456 130.922 28.7036 130.912 28.851C130.912 28.9984 130.901 29.0984 130.88 29.1511L130.39 29.0089C130.496 28.8826 130.617 28.751 130.754 28.6141C130.901 28.4667 131.054 28.3193 131.212 28.1719C131.37 28.0245 131.522 27.8876 131.67 27.7612L133.565 26.1187L134.813 27.3664L130.138 31.6148L128.701 30.2724L130.185 28.9142L129.585 29.7196L128.937 30.0987C129.116 29.9197 129.253 29.7354 129.348 29.5459C129.443 29.3564 129.49 29.1774 129.49 29.0089C129.49 28.7562 129.422 28.5772 129.285 28.4719C129.148 28.3561 128.974 28.2982 128.764 28.2982C128.627 28.2982 128.485 28.3245 128.337 28.3772C128.2 28.4193 128.053 28.4877 127.895 28.5825L126.332 27.1453C126.816 26.5452 127.284 26.0345 127.737 25.6134C128.19 25.1817 128.664 24.8553 129.159 24.6342C129.653 24.4025 130.206 24.2867 130.817 24.2867C131.354 24.2867 131.843 24.3762 132.286 24.5552C132.728 24.7342 133.159 24.9921 133.581 25.3291C134.012 25.666 134.46 26.0714 134.923 26.5452L134.86 26.8768C134.839 26.6662 134.818 26.4241 134.797 26.1503C134.776 25.8766 134.765 25.6081 134.765 25.3449V23.3549H136.471L136.834 24.3973H138.366Z" fill="white"/>
<rect x="0.5" y="0.5" width="146.245" height="55.4414" rx="9.5" stroke="white"/>
<defs>
<linearGradient id="paint0_linear_1763_6499" x1="11.2941" y1="20.0522" x2="47.3144" y2="13.5936" gradientUnits="userSpaceOnUse">
<stop stop-color="#006DEE"/>
<stop offset="1" stop-color="#0AF0FF"/>
</linearGradient>
</defs>
</svg>
