<svg width="66" height="66" viewBox="0 0 66 66" fill="none" xmlns="http://www.w3.org/2000/svg">
<g clip-path="url(#clip0_2094_7843)">
<path d="M32.9625 65.2792C50.9018 65.2792 65.4445 50.7372 65.4445 32.7988C65.4445 14.8603 50.9018 0.318359 32.9625 0.318359C15.0232 0.318359 0.480469 14.8603 0.480469 32.7988C0.480469 50.7372 15.0232 65.2792 32.9625 65.2792Z" fill="white"/>
<path d="M33.0016 66C14.804 66 0 51.1951 0 32.9984C0 14.8016 14.804 0 33.0016 0C51.1993 0 66 14.8032 66 32.9984C66 51.1935 51.196 66 33.0016 66ZM33.0016 1.03429C15.3739 1.03429 1.03434 15.3732 1.03434 32.9984C1.03434 50.6236 15.3739 64.9657 33.0016 64.9657C50.6293 64.9657 64.964 50.6252 64.964 32.9984C64.964 15.3715 50.6261 1.03429 33.0016 1.03429Z" fill="#006600"/>
<path d="M4.57125 30.2932C4.16693 30.6926 3.56126 31.5142 3.39402 32.8797C3.28035 35.0928 5.01779 35.1529 5.01779 35.1415L5.54391 34.4304C5.54391 34.4417 4.73201 33.6039 5.06651 32.8229C5.41238 32.0728 6.24374 33.5633 6.54089 34.2631L7.12384 33.3344C7.08487 33.3344 6.73251 31.8454 5.80371 31.5077C4.87491 31.17 4.43973 32.844 4.55339 33.3879C4.55339 33.3879 3.76749 32.8067 4.47546 31.2771C4.62661 30.887 4.90993 30.5624 5.27599 30.3597C6.00091 30.427 6.71998 30.5469 7.42749 30.7186C7.673 30.2789 7.97008 29.8701 8.31244 29.5008L4.52418 29.1241L4.7239 27.8414L4.18642 27.7407C4.07113 28.5737 3.89577 29.4002 3.83245 30.2347C3.83082 30.2364 4.13283 30.2542 4.57125 30.2932Z" fill="#006600"/>
<path d="M6.51941 22.7512C5.38276 23.2919 4.33056 24.7678 4.69428 26.2357C5.04989 27.8139 6.51942 27.3219 7.08124 26.437C7.60897 25.5375 7.41574 24.2223 6.66717 24.4804C5.88127 24.7516 5.92511 25.7615 5.91699 25.7534C5.90887 25.7453 5.21714 26.0782 5.42986 24.9221C5.51925 24.4843 5.71778 24.0761 6.00704 23.7355C6.2963 23.3948 6.66692 23.1328 7.0845 22.9736C7.74852 23.2331 8.39365 23.5386 9.01517 23.8878C9.02978 23.8878 9.82705 23.0857 10.1697 22.9477L6.62333 21.5513L7.1949 20.3855L6.70777 20.1436C6.31396 20.8853 5.97477 21.6548 5.69291 22.4459C5.69291 22.4459 6.03877 22.5661 6.51941 22.7512Z" fill="#006600"/>
<path d="M37.2691 4.59191L36.4816 4.47176L36.1422 8.34427C35.91 8.05363 34.9211 7.49346 34.9179 7.49346C35.1517 6.59231 35.2784 5.11311 35.3222 4.35972C34.3788 4.32887 33.437 4.19736 32.492 4.2753C32.7291 4.57731 32.9044 5.1797 31.9691 5.95745C32.3702 6.03814 32.7457 6.21473 33.0636 6.47215C33.1965 6.59988 33.3127 6.74391 33.4094 6.90081L33.398 9.33635C33.1234 9.09558 32.7659 8.97098 32.401 8.98888C31.8132 9.03272 31.4154 9.59938 30.5759 9.2714C29.4815 8.8671 29.337 7.91724 29.3435 7.91724C29.35 7.91724 29.9069 8.72909 30.7562 8.67064C31.6086 8.67064 31.3716 8.05526 32.5797 8.63005V6.96738C32.5797 6.96738 32.1136 6.02076 31.3862 6.69459C31.3862 6.69459 32.0601 6.94302 31.7109 7.45124C31.3683 7.93835 30.308 7.93836 30.0011 7.31648C29.7576 6.83911 30.6279 5.68141 31.961 5.96393C31.935 5.94932 31.0566 5.14073 30.1749 5.42812C30.1749 5.42812 30.4525 5.80644 29.954 6.17339C29.3045 6.6605 28.0916 6.33576 28.3302 5.64244C28.6777 4.72181 30.6181 4.61953 31.292 5.18944C31.292 5.18944 31.9415 4.68448 31.003 4.33863C27.1677 4.60823 23.4244 5.63756 19.9905 7.36681L21.866 10.7766C21.5185 10.6856 20.3867 10.7766 20.3819 10.7766C20.0734 9.89815 19.3556 8.59595 18.9757 7.94648C17.6669 8.63005 16.4848 9.5101 15.2832 10.3625L15.0802 10.6613C16.5579 10.9422 17.4461 9.37531 17.4591 9.35258C17.928 9.42371 18.393 9.51855 18.8523 9.63673C17.8374 11.9521 19.6642 11.9343 19.6203 11.9408L19.4872 12.0934C18.0258 12.4896 17.3763 10.4697 17.3892 10.4697C16.585 10.9132 15.6879 11.1618 14.7701 11.1955C14.0004 12.6568 14.4291 13.1861 14.9747 12.8078C15.6486 12.3418 15.5869 11.7248 15.5869 11.7232C16.5205 11.2085 17.3129 11.3205 17.6019 11.8969C17.8536 12.4831 17.4542 14.1701 15.5398 14.5955C13.6708 15.1524 12.4075 13.722 12.4205 13.7008C15.0543 14.9462 16.92 12.8403 16.8599 12.1859C16.7982 11.7865 16.1422 12.1859 16.1519 12.2054C16.0821 12.8306 14.6191 14.0077 13.864 13.2917C13.6621 13.1042 13.5293 12.8543 13.4868 12.5821C13.4444 12.3099 13.4949 12.0314 13.6302 11.7914C12.6787 12.6243 11.844 13.5856 10.9916 14.5224L13.9874 16.8606C13.6627 16.932 12.6251 17.4354 12.6218 17.4402C12.0779 17.7487 12.3572 19.5153 11.1296 20.4165C10.8648 20.6081 10.5618 20.7404 10.2412 20.8042C9.92061 20.8681 9.59003 20.8621 9.27199 20.7867C9.55729 20.7545 9.83261 20.6626 10.08 20.5168C10.3273 20.3711 10.5411 20.1747 10.7074 19.9407C11.1718 19.2279 11.128 18.2813 11.6622 17.7763C11.8987 17.5629 12.1744 17.3974 12.4741 17.2892C12.0124 16.8314 11.5245 16.4009 11.0127 16C10.5483 16.9953 10.2203 19.2165 10.2268 19.2036L9.17294 19.7767C9.21841 19.4049 9.30283 18.9486 9.40675 18.4778C8.67118 18.6629 8.48445 19.5218 8.49744 19.5218C8.38865 19.8676 7.92913 20.2102 7.71317 20.1323C7.49721 20.0544 6.84282 18.796 7.87555 17.273C8.63385 16.0244 10.0238 15.6964 10.5207 15.6184C10.1261 15.3164 9.84356 15.1167 9.84356 15.1167C15.3953 7.75649 24.6313 3.46831 33.8089 3.75083C33.5572 2.8302 32.0227 3.59983 31.2953 3.10135C30.4834 2.63535 31.6703 1.2812 34.5136 1.83326C36.7511 2.28952 36.6407 3.52352 36.5401 3.94406L37.3519 4.06746L37.2691 4.59191ZM9.48957 18.0686C9.61423 17.4533 9.78965 16.8494 10.014 16.263C8.27823 16.9304 8.67119 18.5021 8.66307 18.468C8.90305 18.2706 9.18622 18.1327 9.48957 18.0653V18.0686ZM34.5867 3.78007L35.3888 3.82879C35.5934 2.41292 32.7908 1.80403 32.1981 2.42266C31.4804 3.10624 33.01 2.47137 33.9323 2.8091C34.7685 3.07863 34.6841 3.53975 34.5802 3.77194L34.5867 3.78007Z" fill="#006600"/>
<path d="M23.485 6.49622C23.0595 7.28209 24.2108 7.97054 25.0698 7.43147C25.9287 6.89241 25.5569 6.29489 25.5406 6.27378C27.2862 5.94904 27.0914 8.09556 24.961 8.42192C22.79 8.71744 21.137 7.3649 21.1094 7.32268C22.9589 10.0716 25.4936 9.43349 26.5782 8.87494C27.6142 8.31152 28.2507 6.60178 26.7926 5.88086C25.2159 5.08687 23.9088 5.70548 23.485 6.49622Z" fill="#006600"/>
<path d="M46.7684 7.76775L45.0715 11.1645C44.9351 10.8593 44.232 9.94511 44.2288 9.94349C44.7581 9.21932 45.3979 7.9561 45.7292 7.25791L44.8101 6.80489L43.2902 10.1107C42.1958 8.41884 40.2408 7.55017 40.244 7.59888V6.37623C42.4345 6.5386 43.7335 6.39247 43.7465 6.35025C42.579 5.9086 41.418 5.45561 40.1953 5.18932L40.3317 4.66162C42.2868 5.14317 44.1789 5.85158 45.9695 6.77243L46.5037 7.03546C47.0829 7.30808 47.6414 7.62283 48.1746 7.9772L47.8936 8.44482C47.5104 8.21426 47.1532 7.96097 46.7684 7.76775ZM43.399 7.17835C43.399 7.17835 42.1958 7.35207 41.556 7.2855C41.556 7.2855 42.6472 8.28733 42.7852 8.61694L43.399 7.17835Z" fill="#006600"/>
<path d="M62.1077 36.4146C62.2117 35.58 62.223 34.7373 62.2798 33.9011C62.2798 33.9011 61.9453 33.9011 61.468 33.9011C61.8706 33.5098 62.3529 32.7646 62.3724 32.2336C62.4033 31.5354 61.6888 30.7349 61.6888 30.7414C61.99 30.2646 62.1056 29.6937 62.0135 29.1372C61.5088 25.3641 60.2769 21.7248 58.386 18.4208C57.9899 17.6794 57.54 16.9679 57.0399 16.2922L56.7671 15.909C56.3008 15.2094 55.7801 14.5476 55.2099 13.9297C54.0827 12.5927 52.8275 11.3691 51.4622 10.2764L51.1148 10.7001C52.4604 11.7752 53.6971 12.9798 54.8072 14.2966C54.6319 14.459 54.4061 14.6457 54.1577 14.8536C54.1564 14.5429 54.0438 14.243 53.8403 14.0083C53.6369 13.7736 53.356 13.6195 53.0487 13.5741C52.9155 12.871 52.3407 12.3596 52.0225 12.1128C51.2674 11.4503 49.8547 11.499 49.6777 12.6746C49.4601 14.058 50.8144 15.0387 51.433 15.0289C52.0517 15.0192 52.3521 14.2707 51.6425 13.6001C50.9329 12.9295 50.3727 13.4377 50.3727 13.4377C49.7865 12.9246 50.4344 12.0218 51.4801 12.6989C52.5258 13.376 52.5145 14.4395 52.4998 14.4428C52.661 14.3812 52.8381 14.3753 53.003 14.4263C53.1678 14.4772 53.3108 14.5819 53.4092 14.7237C53.5269 14.8916 53.6007 15.0865 53.6235 15.2903C53.226 15.6141 52.8084 15.9124 52.3732 16.1834C52.3732 16.1834 52.6687 17.2989 52.6687 17.6447L55.5639 15.1832L56.3238 16.2369L56.5966 16.625C55.9747 17.0764 54.8007 17.872 53.984 18.2487C53.984 18.2487 54.1772 19.3739 54.1204 19.7279L57.2624 17.57L57.9119 18.6969L58.4315 19.6094C58.1075 19.4543 57.755 19.3677 57.396 19.3548C57.037 19.342 56.6792 19.4032 56.345 19.5347C54.9761 20.0754 55.4486 21.5919 55.5574 21.9702C55.7717 22.5142 56.3985 23.2302 56.8564 22.7285C57.363 22.1423 56.4992 21.134 56.0819 21.1324C56.0819 21.1438 55.8221 20.0721 57.3809 20.3319C58.2253 20.4943 58.9089 21.1178 59.3993 21.6504C59.5756 22.0133 59.7317 22.3857 59.8669 22.7658L57.7398 23.5777L57.6651 24.6071C58.189 24.8585 58.6666 25.1967 59.0778 25.6073C59.0778 25.6073 57.6391 25.9694 57.4621 27.1433L57.5563 27.3512C57.5563 27.3836 58.6085 25.8898 60.039 27.3512L60.6626 26.3412C60.6918 26.3233 59.6737 24.586 59.0274 24.2645L60.2355 23.8537C60.7796 25.4077 61.1717 27.0107 61.4062 28.6404C61.5686 30.5011 60.9191 30.2397 60.9191 30.2413C61.0295 29.8533 60.7275 28.6761 60.0569 28.6631C59.3863 28.6501 59.4301 29.673 59.6136 30.1342C59.768 30.4457 59.9665 30.7333 60.203 30.9882C59.935 31.3773 59.7922 31.8391 59.7938 32.3115C59.7938 32.4025 59.9562 33.151 60.4434 33.1234C61.1221 33.0909 61.0474 31.6799 61.0474 31.6799C61.0474 31.6799 61.619 31.4266 61.5589 32.4561C61.5378 33.1055 61.0929 33.6056 60.747 33.8817C60.0517 33.8565 59.3589 33.7838 58.6734 33.6641C58.6734 33.6641 58.1002 34.687 57.8616 34.9354L61.6596 35.0686C61.6238 35.4989 61.6336 35.9373 61.5573 36.3675L62.1077 36.4146Z" fill="#006600"/>
<path d="M47.5444 9.84609L46.6221 10.1919C47.9633 11.6971 48.1971 13.1714 48.1971 13.1666L48.4212 13.0643C48.759 12.0803 47.5866 9.82499 47.5444 9.84609Z" fill="#006600"/>
<path d="M50.6098 10.8186C50.2591 11.2538 49.4163 11.1726 48.7262 10.64C48.002 10.1626 47.6318 9.41575 47.9143 8.93839C48.1969 8.46102 49.0899 8.47075 49.8791 8.99196C50.6358 9.56513 50.9605 10.3867 50.6098 10.8186ZM49.3449 9.38978C48.4063 9.22741 48.3576 9.67067 48.356 9.67067C48.2391 9.8509 48.6986 10.2049 49.6225 10.3721C50.5725 10.5393 50.2591 9.61547 49.3449 9.38978Z" fill="#006600"/>
<path d="M45.2058 59.5427C44.7025 59.7684 44.394 60.2068 44.5271 60.5169C44.6603 60.827 45.1896 60.8936 45.7173 60.6549C46.2451 60.4162 46.5487 59.9778 46.3928 59.6807C46.2369 59.3835 45.7076 59.3154 45.2058 59.5427Z" fill="#006600"/>
<path d="M28.1826 61.8206C27.6386 61.7346 27.1401 61.9294 27.0703 62.2606C27.0005 62.5919 27.408 62.9393 27.9796 63.027C28.5512 63.1147 29.0513 62.9199 29.0935 62.5838C29.1357 62.2477 28.7347 61.9067 28.1826 61.8206Z" fill="#006600"/>
<path d="M47.1994 54.3579L47.2758 54.9717C46.9482 55.1905 46.6094 55.3921 46.2609 55.5757L48.0747 58.7273C45.8225 58.8458 43.71 59.3767 43.7164 59.4255L42.9663 58.4659C44.7914 57.2351 45.3532 56.1294 45.3386 56.1066C44.4618 56.6067 43.5054 56.9542 42.5944 57.3877L42.2404 57.5095L41.474 57.7693L42.8591 61.3122C42.4694 61.2148 41.1785 61.1109 41.185 61.1109C41.1087 60.2032 40.6979 58.8377 40.4754 58.1086C39.2592 58.409 38.0527 58.7825 36.804 58.9026L36.8138 58.9773C37.4065 58.9936 39.1163 58.7857 39.8989 59.6268C40.7255 60.5068 39.6424 61.1304 39.0871 61.283C38.6373 61.434 37.5104 61.2684 37.8189 60.5815C38.1583 59.82 39.1033 59.8541 39.1098 59.8687C39.0952 59.8249 38.6373 59.2663 36.9323 59.7989L37.309 62.5089C35.1786 61.7766 33.0158 61.4778 33.006 61.52L32.6715 60.3477C34.8246 59.8915 35.7567 59.0796 35.7567 59.0488C34.6657 59.1566 33.5697 59.207 32.4734 59.1998H32.3565L31.2881 59.1397L31.0234 62.7638C29.7622 61.998 28.4212 61.3724 27.024 60.8982L26.9445 59.6609C29.1366 59.6999 30.2326 59.0569 30.2277 59.0796C29.2535 58.9091 28.2792 58.8101 27.3196 58.5925L27.24 58.5682L26.8795 58.4756L26.0936 58.2726L25.2492 61.9795C24.9765 61.684 23.9632 60.8933 23.9811 60.8641C24.2459 60.361 24.4702 59.8376 24.6517 59.2988C24.5504 59.1642 24.4159 59.0581 24.2614 58.9909C24.1069 58.9237 23.9375 58.8978 23.77 58.9156C23.1042 59 21.9627 59.997 21.0859 59.2988C20.829 59.0993 20.6194 58.8455 20.472 58.5555C20.3247 58.2656 20.2432 57.9466 20.2334 57.6215C20.6751 58.2937 21.37 58.6347 21.9741 58.461C22.1738 58.4074 22.531 58.1915 22.9078 58.0664C22.4369 57.1961 21.0696 56.7529 21.0534 56.7756V56.308L20.2967 55.9378L20.5614 55.4604C22.0601 56.2575 23.6214 56.9308 25.2298 57.4738L27.0078 57.9446L27.3585 58.0405L27.5209 58.0794C29.1172 58.4169 30.7403 58.6126 32.3711 58.664L32.7527 58.6851C35.3112 58.6708 37.8557 58.3081 40.3162 57.6069L41.0567 57.3552L42.057 57.0175L42.4028 56.899C44.0799 56.2087 45.6863 55.3577 47.1994 54.3579ZM25.0722 57.982L22.7714 57.1279C22.9794 57.3698 23.1298 57.6557 23.2114 57.9641C23.3673 57.9238 23.5303 57.9197 23.688 57.9524C23.8457 57.9851 23.9937 58.0535 24.1207 58.1525C24.3843 58.3672 24.6047 58.63 24.7702 58.927C24.8904 58.573 24.9992 58.2418 25.0722 57.982ZM30.1254 59.958C30.1254 59.958 29.0391 60.377 28.3572 60.4305C28.3572 60.4305 29.6562 61.205 29.929 61.5087L30.1254 59.958ZM35.8444 59.9386C35.8541 59.9645 34.8701 60.627 34.2206 60.7926C34.2109 60.7926 35.6641 61.3187 35.9824 61.4989L35.8444 59.9386ZM45.7592 56.8941C45.7754 56.9169 45.1178 57.9008 44.5706 58.2954C44.5608 58.2954 46.105 58.2418 46.4655 58.2954L45.7592 56.8941Z" fill="#006600"/>
<path d="M55.2765 32.9984C55.2767 35.924 54.7006 38.821 53.5811 41.524C52.4616 44.2269 50.8207 46.6829 48.7519 48.7517C46.6832 50.8205 44.2272 52.4616 41.5241 53.5812C38.8211 54.7009 35.924 55.2771 32.9983 55.2771C30.0727 55.2769 27.1757 54.7005 24.4729 53.5807C21.7701 52.461 19.3143 50.8199 17.2457 48.7512C15.1771 46.6824 13.5363 44.2265 12.4169 41.5236C11.2975 38.8207 10.7215 35.9238 10.7217 32.9984C10.7221 27.0907 13.0693 21.4251 17.2468 17.2477C21.4244 13.0703 27.0903 10.7233 32.9983 10.7229C38.9065 10.7229 44.5728 13.0697 48.7508 17.2471C52.9287 21.4246 55.276 27.0904 55.2765 32.9984Z" fill="#EC1C24"/>
<path d="M32.9985 55.329C30.0652 55.3368 27.1594 54.7628 24.4494 53.6402C21.7394 52.5176 19.279 50.8686 17.2106 48.7888C15.1306 46.7198 13.4816 44.2589 12.3589 41.5485C11.2362 38.8381 10.6622 35.932 10.67 32.9983C10.67 20.6875 20.6871 10.6709 32.9985 10.6709C45.31 10.6709 55.3287 20.6875 55.3287 32.9983C55.3365 35.932 54.7625 38.8381 53.6398 41.5485C52.5171 44.2589 50.8681 46.7198 48.7881 48.7888C46.7194 50.8687 44.2587 52.5176 41.5484 53.6403C38.8382 54.7629 35.9321 55.3369 32.9985 55.329ZM32.9985 10.7748C20.7439 10.7748 10.7739 20.7443 10.7739 32.9983C10.7739 45.2524 20.7439 55.2251 32.9985 55.2251C45.2532 55.2251 55.2248 45.254 55.2248 32.9983C55.2248 20.7427 45.2532 10.7748 32.9985 10.7748Z" fill="#FF0000"/>
<path d="M21.5896 18.3478C21.5896 18.3478 21.7065 17.4288 22.2781 17.1999C22.8496 16.9709 22.0507 15.5924 23.1987 15.1329C24.3468 14.6734 24.462 16.0535 25.0336 16.1688C25.6052 16.2841 26.6411 15.823 26.6411 16.742C26.6411 17.661 28.0181 18.4599 28.8203 18.4599C29.6224 18.4599 30.3141 17.8883 30.1972 19.8384C30.0803 21.7884 30.4262 22.8211 31.1179 23.0517C32.2115 23.4558 33.284 23.9148 34.3313 24.4269C35.2455 24.8881 36.9716 24.0843 37.8858 24.4269C38.8 24.7695 38.9201 25.2388 40.0665 25.1154C41.2129 24.992 42.5915 24.4269 43.9636 25.1154C45.3357 25.8038 45.6815 26.4971 45.1132 26.6092C44.5449 26.7212 44.1942 26.8381 43.8499 27.8708C43.6966 28.3959 43.4332 28.8823 43.0774 29.2977C42.7216 29.7132 42.2814 30.0481 41.7861 30.2804C41.7861 30.2804 41.4402 31.0825 40.1769 31.0825C38.9136 31.0825 38.8016 31.313 38.4574 31.7709C38.1131 32.2288 37.7656 33.4937 37.1941 34.0684C36.6225 34.6432 37.7656 34.8706 37.9978 36.1338C38.23 37.397 38.6863 36.9456 38.9169 37.8549C39.1475 38.7642 40.1769 39.0012 40.6381 38.3128C41.0993 37.6243 40.8654 36.9391 41.5555 36.1338C42.2456 35.3284 42.015 34.5263 42.8188 34.6416C43.6226 34.7569 43.8499 34.8706 43.6307 36.1338C43.4115 37.397 44.087 38.8843 44.3176 39.3438C44.5481 39.8033 44.7738 40.7223 44.8908 41.4092C45.0077 42.096 46.0388 41.8719 45.2334 43.7051C44.428 45.5382 45.6945 44.9683 45.0044 46.6894C44.3143 48.4106 45.1213 48.7532 44.4296 48.9837C43.7379 49.2143 43.4001 48.6411 43.1696 49.2143C42.939 49.7874 42.7117 51.1627 42.4795 50.8185C42.0995 50.2486 42.1368 50.5895 42.1368 48.87C42.1368 47.1506 41.2714 46.1211 41.4484 44.1613C41.5636 42.8965 39.9561 43.244 40.0714 40.9497C40.1867 38.6554 39.037 39.8017 38.0059 39.5695C36.9748 39.3373 36.1678 39.8017 35.2455 39.1116C35.2455 39.1116 35.554 39.4575 34.8639 39.4575C34.8639 39.4575 34.4434 39.8017 35.0263 40.9497C35.6093 42.0976 35.1384 42.7812 34.6805 43.1287C34.2226 43.4761 33.3051 43.0134 32.6166 43.9308C31.9282 44.8482 31.6976 44.3887 31.2364 45.0787C30.7753 45.7688 30.09 45.0787 30.09 44.7345C30.09 44.3903 29.4032 45.0803 29.1726 45.4213C28.942 45.7623 28.0262 45.3125 28.0262 44.6192C28.0262 43.9259 27.5667 44.8514 27.3361 45.3093C27.1055 45.7672 27.2225 45.5366 26.4187 45.0787C25.6149 44.6208 25.2691 46.3436 24.6959 44.9667C24.1227 43.5898 24.9281 44.3903 24.8111 42.5555C24.6942 40.7207 24.2396 39.7952 24.5822 38.4232C24.9248 37.0512 24.4539 37.8143 24.6845 36.0916C24.3719 36.0493 24.0814 35.9071 23.8564 35.6862C23.6313 35.4652 23.4838 35.1774 23.4358 34.8657C23.2069 33.7291 22.5168 33.3751 22.7473 32.2288C22.9779 31.0825 24.1259 31.9998 24.1259 30.2804C24.1259 28.5609 23.8953 28.6729 23.314 28.6729C22.7327 28.6729 21.4775 27.6419 20.9043 26.8381C20.3312 26.0344 20.677 24.8897 21.2502 24.8897C21.8234 24.8897 22.2797 25.0034 23.314 23.857C24.3484 22.7107 24.5757 23.857 25.3795 23.2839C26.1832 22.7107 25.2658 21.5627 24.8047 21.2185C24.3435 20.8743 22.6272 20.1842 22.6272 19.4974C22.6272 18.8106 21.4792 19.0346 21.5896 18.3478Z" fill="#FFF100"/>
<path d="M51.0968 48.792L53.474 49.8052L55.1725 47.8584L54.9435 50.432L57.3191 51.4484L54.8006 52.0264L54.5684 54.6L53.2418 52.382L50.7217 52.9552L52.4201 51.01L51.0968 48.792Z" fill="#EC1C24"/>
<path d="M55.5332 41.3199L58.1118 41.4206L59.013 38.998L59.7112 41.4839L62.2946 41.5895L60.1431 43.0264L60.843 45.5139L58.8132 43.913L56.6601 45.3451L57.5597 42.9209L55.5332 41.3199Z" fill="#EC1C24"/>
<path d="M10.4997 41.3992L8.47808 43.005L9.37928 45.4292L7.22453 44.0004L5.19968 45.6062L5.88978 43.1171L3.73828 41.6866L6.32171 41.5746L7.01506 39.0854L7.91788 41.5064L10.4997 41.3992Z" fill="#EC1C24"/>
<path d="M14.9596 48.8537L13.6411 51.0749L15.3461 53.0184L12.8244 52.4518L11.5026 54.6714L11.2623 52.0994L8.74219 51.5279L11.1161 50.505L10.8807 47.9314L12.5857 49.875L14.9596 48.8537Z" fill="#EC1C24"/>
</g>
<defs>
<clipPath id="clip0_2094_7843">
<rect width="66" height="66" fill="white"/>
</clipPath>
</defs>
</svg>
