<svg xmlns="http://www.w3.org/2000/svg" width="40.003" height="40" viewBox="0 0 40.003 40">
  <g id="Group_21590" data-name="Group 21590" transform="translate(758.681 -42.606)">
    <path id="Path_41695" data-name="Path 41695" d="M-718.819,51.446a7.726,7.726,0,0,0-5.9-5.679,10.538,10.538,0,0,0-2.673-.22c-.281.005-.409-.092-.393-.384.015-.272,0-.545,0-.819a1.544,1.544,0,0,0-1.354-1.739h-.7a1.63,1.63,0,0,0-1.29,1.785c0,.235-.011.469,0,.7.017.315-.113.463-.432.436-.078-.006-.156,0-.235,0h-13.724c-.117,0-.234,0-.35-.005a.279.279,0,0,1-.311-.313c-.007-.272,0-.545-.005-.819a1.577,1.577,0,0,0-1.447-1.786h-.625a1.556,1.556,0,0,0-1.286,1.766c0,.247-.009.5,0,.742.012.294-.1.431-.408.422-.52-.016-1.038.035-1.557.066a7.218,7.218,0,0,0-3.817,1.337,7.472,7.472,0,0,0-3.36,6.459c.027,7.179.016,14.359,0,21.537a6.926,6.926,0,0,0,.867,3.593,7.366,7.366,0,0,0,6.6,4.063c8.362.029,16.724.01,25.087.01a6.406,6.406,0,0,0,1.087-.069,7.63,7.63,0,0,0,5.251-3.518,6.539,6.539,0,0,0,1.106-3.24V52.517C-718.763,52.165-718.715,51.794-718.819,51.446Zm-36.7,3.028a8.3,8.3,0,0,1,.26-2.583A4.628,4.628,0,0,1-750.99,48.8c.429-.017.859.006,1.288-.011.224-.009.284.067.281.286-.011.9-.008,1.795,0,2.692a1.543,1.543,0,0,0,1.566,1.627,1.546,1.546,0,0,0,1.551-1.606c.008-.9.01-1.795,0-2.693,0-.236.055-.307.3-.307q7.354.011,14.708,0c.244,0,.307.067.3.306-.015.845-.006,1.691-.005,2.535a1.574,1.574,0,0,0,1.551,1.765,1.564,1.564,0,0,0,1.569-1.742c0-.858,0-1.717,0-2.575,0-.113-.069-.284.154-.282a8.273,8.273,0,0,1,2.928.289,4.628,4.628,0,0,1,3,4.293c0,.43-.006.859,0,1.288,0,.169-.049.238-.22.218a2.384,2.384,0,0,0-.273,0h-16.386q-8.213,0-16.426.008C-755.44,54.893-755.533,54.818-755.522,54.473ZM-721.8,74.757a4.583,4.583,0,0,1-4.62,4.674q-12.232.02-24.461,0a4.586,4.586,0,0,1-4.631-4.665q0-8.153-.008-16.308c0-.362.065-.472.455-.471q8.211.023,16.425.01t16.425-.008c.336,0,.428.069.427.419Q-721.809,66.584-721.8,74.757Z" transform="translate(0 0)" fill="#b9b9b9"/>
    <path id="Path_41696" data-name="Path 41696" d="M-678.527,323.979a1.547,1.547,0,0,1-1.485,1.557c-1.065.027-2.131.023-3.2,0a1.558,1.558,0,0,1-1.512-1.572,1.562,1.562,0,0,1,1.544-1.539c.519-.01,1.04,0,1.559,0s1.04-.009,1.559,0A1.557,1.557,0,0,1-678.527,323.979Z" transform="translate(-66.246 -250.633)" fill="#b9b9b9"/>
    <path id="Path_41697" data-name="Path 41697" d="M-501.807,323.955a1.573,1.573,0,0,1-1.555,1.574c-.519.013-1.039,0-1.559,0s-1.014.009-1.521,0A1.565,1.565,0,0,1-508,323.962a1.558,1.558,0,0,1,1.572-1.55q1.521-.012,3.041,0A1.562,1.562,0,0,1-501.807,323.955Z" transform="translate(-224.537 -250.62)" fill="#b9b9b9"/>
    <path id="Path_41698" data-name="Path 41698" d="M-501.81,235.709a1.557,1.557,0,0,1-1.529,1.555c-1.052.018-2.106.02-3.158,0A1.551,1.551,0,0,1-508,235.687a1.56,1.56,0,0,1,1.547-1.536c.519-.01,1.04,0,1.559,0s1.014-.007,1.521,0A1.568,1.568,0,0,1-501.81,235.709Z" transform="translate(-224.535 -171.564)" fill="#b9b9b9"/>
    <path id="Path_41699" data-name="Path 41699" d="M-678.527,235.691a1.55,1.55,0,0,1-1.509,1.572c-1.052.021-2.106.019-3.158,0a1.559,1.559,0,0,1-1.526-1.559,1.57,1.57,0,0,1,1.571-1.555c.519-.008,1.04,0,1.559,0s1.014-.008,1.521,0A1.56,1.56,0,0,1-678.527,235.691Z" transform="translate(-66.247 -171.564)" fill="#b9b9b9"/>
    <path id="Path_41700" data-name="Path 41700" d="M-590.271,235.722a1.548,1.548,0,0,1-1.537,1.543q-1.56.023-3.119,0a1.557,1.557,0,0,1-1.533-1.551,1.566,1.566,0,0,1,1.561-1.563c.519-.008,1.04,0,1.559,0s1.014-.008,1.521,0A1.555,1.555,0,0,1-590.271,235.722Z" transform="translate(-145.303 -171.564)" fill="#b9b9b9"/>
    <path id="Path_41701" data-name="Path 41701" d="M-590.272,323.966a1.558,1.558,0,0,1-1.562,1.56c-.506.011-1.014,0-1.521,0s-1.014.007-1.521,0a1.576,1.576,0,0,1-1.586-1.58,1.561,1.561,0,0,1,1.586-1.537q1.521-.013,3.041,0A1.548,1.548,0,0,1-590.272,323.966Z" transform="translate(-145.301 -250.618)" fill="#b9b9b9"/>
  </g>
</svg>
