<svg id="Group_2130" data-name="Group 2130" xmlns="http://www.w3.org/2000/svg" width="29.911" height="29.911" viewBox="0 0 29.911 29.911">
  <rect id="Rectangle_135" data-name="Rectangle 135" width="29.911" height="29.911" rx="7.224" fill="#009343"/>
  <g id="Group_2129" data-name="Group 2129" transform="translate(3.329 3.34)">
    <g id="Group_2128" data-name="Group 2128">
      <path id="Path_2698" data-name="Path 2698" d="M199.1,875.811l-.792-.7a4.716,4.716,0,0,0-6.651.4l-2.265,2.557a1.645,1.645,0,0,0,.138,2.322l.213.189a1.644,1.644,0,0,0,1.092.414l.1,0a1.634,1.634,0,0,0,1.133-.551l2.267-2.558a1.175,1.175,0,0,1,1.607-.1l.792.7a1.14,1.14,0,0,1,.1,1.606l-4.958,5.591a1.168,1.168,0,0,1-1.373.256,1.8,1.8,0,0,0-2.122.394l-.038.044a1.766,1.766,0,0,0,.5,2.734,4.731,4.731,0,0,0,2.18.541h0a4.723,4.723,0,0,0,3.527-1.591l4.956-5.595A4.723,4.723,0,0,0,199.1,875.811Z" transform="translate(-177.43 -873.927)" fill="#fff"/>
      <path id="Path_2699" data-name="Path 2699" d="M190.574,888.937a1.692,1.692,0,0,0-2.322.139l-2.265,2.557a1.173,1.173,0,0,1-1.605.1l-.793-.7a1.138,1.138,0,0,1-.1-1.605l4.956-5.591a1.169,1.169,0,0,1,1.353-.266,1.868,1.868,0,0,0,2.2-.451,1.737,1.737,0,0,0-.48-2.682,4.716,4.716,0,0,0-5.748,1.029l-4.958,5.59a4.717,4.717,0,0,0,.4,6.652l.792.692a4.69,4.69,0,0,0,3.123,1.176h0a4.709,4.709,0,0,0,3.528-1.576l2.265-2.55a1.625,1.625,0,0,0,.412-1.187,1.647,1.647,0,0,0-.551-1.133Z" transform="translate(-179.634 -872.339)" fill="#fff"/>
    </g>
  </g>
</svg>
