<svg width="31" height="31" viewBox="0 0 31 31" fill="none" xmlns="http://www.w3.org/2000/svg">
<g clip-path="url(#clip0_100_7938)">
<path d="M12.4095 22.7658C12.7595 23.116 13.175 23.3938 13.6324 23.5833C14.0898 23.7729 14.5801 23.8705 15.0752 23.8705C15.5704 23.8705 16.0606 23.7729 16.518 23.5833C16.9754 23.3938 17.391 23.116 17.741 22.7658L21.7748 18.7319C21.9911 18.4927 22.1071 18.1795 22.0988 17.8572C22.0906 17.5348 21.9586 17.228 21.7304 17.0002C21.5021 16.7724 21.195 16.6411 20.8726 16.6335C20.5502 16.6259 20.2372 16.7426 19.9985 16.9594L16.3227 20.6364L16.3315 1.25625C16.3315 0.923072 16.1991 0.60354 15.9635 0.367947C15.728 0.132355 15.4084 0 15.0752 0V0C14.7421 0 14.4225 0.132355 14.1869 0.367947C13.9513 0.60354 13.819 0.923072 13.819 1.25625L13.8077 20.6126L10.152 16.9594C9.91627 16.7238 9.59663 16.5916 9.26338 16.5917C8.93014 16.5918 8.61059 16.7243 8.37503 16.96C8.13948 17.1957 8.00721 17.5154 8.00732 17.8486C8.00744 18.1819 8.13994 18.5014 8.37566 18.737L12.4095 22.7658Z" fill="#BE44B0"/>
<path d="M28.8938 20.0996C28.5606 20.0996 28.241 20.232 28.0054 20.4676C27.7699 20.7031 27.6375 21.0227 27.6375 21.3559V26.3808C27.6375 26.714 27.5051 27.0336 27.2696 27.2691C27.034 27.5047 26.7144 27.6371 26.3813 27.6371H3.76875C3.43557 27.6371 3.11604 27.5047 2.88045 27.2691C2.64485 27.0336 2.5125 26.714 2.5125 26.3808V21.3559C2.5125 21.0227 2.38015 20.7031 2.14455 20.4676C1.90896 20.232 1.58943 20.0996 1.25625 20.0996C0.923072 20.0996 0.60354 20.232 0.367947 20.4676C0.132355 20.7031 0 21.0227 0 21.3559L0 26.3808C0 27.3804 0.397064 28.339 1.10384 29.0458C1.81062 29.7525 2.76922 30.1496 3.76875 30.1496H26.3813C27.3808 30.1496 28.3394 29.7525 29.0462 29.0458C29.7529 28.339 30.15 27.3804 30.15 26.3808V21.3559C30.15 21.0227 30.0176 20.7031 29.7821 20.4676C29.5465 20.232 29.2269 20.0996 28.8938 20.0996Z" fill="#BE44B0"/>
</g>
<defs>
<clipPath id="clip0_100_7938">
<rect width="30.15" height="30.15" fill="white"/>
</clipPath>
</defs>
</svg>
