<svg width="18" height="18" viewBox="0 0 18 18" fill="none" xmlns="http://www.w3.org/2000/svg">
<path d="M8.99899 12.0002C8.82375 12.0005 8.65392 11.9395 8.51899 11.8277L4.01899 8.07771C3.86582 7.9504 3.76951 7.76747 3.75122 7.56915C3.73294 7.37083 3.79418 7.17337 3.92149 7.02021C4.04879 6.86704 4.23172 6.77073 4.43004 6.75244C4.62836 6.73416 4.82582 6.7954 4.97899 6.92271L8.99899 10.2827L13.019 7.04271C13.0957 6.98041 13.184 6.93388 13.2787 6.90581C13.3735 6.87774 13.4729 6.86867 13.5711 6.87912C13.6694 6.88957 13.7646 6.91935 13.8514 6.96673C13.9381 7.01411 14.0146 7.07816 14.0765 7.15521C14.1452 7.23232 14.1972 7.32279 14.2293 7.42095C14.2614 7.5191 14.2729 7.62283 14.263 7.72563C14.2531 7.82842 14.2222 7.92808 14.172 8.01835C14.1218 8.10861 14.0536 8.18755 13.9715 8.25021L9.47149 11.8727C9.33267 11.9668 9.16631 12.0117 8.99899 12.0002Z" fill="#545D69"/>
</svg>
