<svg id="Group_21640" data-name="Group 21640" xmlns="http://www.w3.org/2000/svg" xmlns:xlink="http://www.w3.org/1999/xlink" width="87" height="67.224" viewBox="0 0 87 67.224">
  <defs>
    <clipPath id="clip-path">
      <rect id="Rectangle_5133" data-name="Rectangle 5133" width="87" height="21.452" transform="translate(0 0)" fill="#fff"/>
    </clipPath>
    <clipPath id="clip-path-2">
      <rect id="Rectangle_5134" data-name="Rectangle 5134" width="40.334" height="40.334" transform="translate(0)" fill="#fff"/>
    </clipPath>
  </defs>
  <g id="Group_19380" data-name="Group 19380" transform="translate(0 45.772)" clip-path="url(#clip-path)">
    <path id="Path_41655" data-name="Path 41655" d="M156.308,136.163H154.6v7.186l-.179-.327-.285-.7a3.161,3.161,0,0,0-.6-.836,4.186,4.186,0,0,0-.761-.684,6.775,6.775,0,0,0-.9-.506,4,4,0,0,0-1.069-.232l-.795-1.08q.822-.616,1.521-1.1c.182-.129.254-.194.22-.194a1.276,1.276,0,0,1-1.262-.627,1.41,1.41,0,0,1-.164-.589.979.979,0,0,1,.506-.916,1.305,1.305,0,0,1,.7-.179c.475.046.714.228.726.547a.5.5,0,0,1-.137.381.516.516,0,0,1-.51.148,1.038,1.038,0,0,1-.411-.164c-.061.046-.1.175-.107.381a.607.607,0,0,0,.285.506,1.019,1.019,0,0,0,.6.205.718.718,0,0,0,.2-.027.86.86,0,0,1,.19-.1c.43-.247.935-.548,1.521-.905v-.882H155.6Zm-2.407,5.175v-3.723a8.248,8.248,0,0,0-2.437,1.574A5.437,5.437,0,0,1,153.9,141.338Z" transform="translate(-150 -131.988)" fill="#008542"/>
    <path id="Path_41656" data-name="Path 41656" d="M165.251,136.191h-1.806v7l-.29-.315a3.962,3.962,0,0,0-.179-.616,2.277,2.277,0,0,0-.6-1.069,4.444,4.444,0,0,0-1.069-.761c0,.053-.129.186-.411.38a1.227,1.227,0,0,1-.761.247,1.089,1.089,0,0,1-.837-.285,2.339,2.339,0,0,1-.217-.274,1.1,1.1,0,0,0-.049-.281,1.274,1.274,0,0,1-.046-.281,1.072,1.072,0,0,1,.422-.9,1.524,1.524,0,0,1,.973-.289c.292,0,.459.042.506.122a1.7,1.7,0,0,0-.727-1.422,3.948,3.948,0,0,0-.89-.327,2.015,2.015,0,0,1-.7-.277,1.754,1.754,0,0,1-.38-.381l-.152-.3-.684-.684h7.187Zm-2.464,4.764v-4.764h-3.175q.943.779,1.232,1.072a2.235,2.235,0,0,1,.586,1,4.546,4.546,0,0,1,.194,1.319C161.9,139.863,162.285,140.323,162.787,140.955Z" transform="translate(-152.357 -132.016)" fill="#008542"/>
    <path id="Path_41657" data-name="Path 41657" d="M167.428,130.457l-2.916,2.833h-1.646l3.942-2.9Z" transform="translate(-154.121 -130.389)" fill="#008542"/>
    <path id="Path_41658" data-name="Path 41658" d="M180.666,133.263l-1.164-.875a3.887,3.887,0,0,0-2.4-.795,2.334,2.334,0,0,0-1.315.381l-.327.22a3.445,3.445,0,0,0-.316.38c-.346.449-.5.734-.468.863l.262.586h1.274l.684.7h-1.73v6.9l-.7-.669v-6.251h-1.007l-.673-.684h1.764l-.6-.643a.455.455,0,0,1-.1-.315,1.182,1.182,0,0,1,.137-.574,4.389,4.389,0,0,1,.506-.749,3.651,3.651,0,0,1,1.08-.722,2,2,0,0,1,.89-.179,5.4,5.4,0,0,1,2.821.931,7.337,7.337,0,0,1,1.217,1.054Z" transform="translate(-157.301 -130.534)" fill="#008542"/>
    <path id="Path_41659" data-name="Path 41659" d="M184.327,136.208h-1.684v7.064l-.358-.521a4.27,4.27,0,0,0-1.791-2.187,4.054,4.054,0,0,0-1.734-.559l-.874-1.243a14.465,14.465,0,0,1,1.684-1.065,16.732,16.732,0,0,1,2.4-1.026v-.464h-4.422l-.665-.684h6.776Zm-2.354,5.148v-3.6a11.833,11.833,0,0,0-2.643,1.369A5.54,5.54,0,0,1,181.973,141.357Z" transform="translate(-158.608 -132.034)" fill="#008542"/>
    <path id="Path_41660" data-name="Path 41660" d="M193.45,136.2h-1.59v6.92l-.273-.3a4.863,4.863,0,0,0-1.354-1.765,3.274,3.274,0,0,0-2.053-.795l-.916-1.19c.209-.19.559-.506,1.053-.943l1.011-.81a2.688,2.688,0,0,0-.517-.205,2.433,2.433,0,0,0-.684-.027,1.894,1.894,0,0,1-.726-.046.921.921,0,0,1-.506-.578c0-.053-.053-.141-.164-.258a1.722,1.722,0,0,1-.205-.205l-.479-.495h6.722Zm-2.247,2.163V136.2h-2.662l.833.6a4.5,4.5,0,0,1,.742.719A12.911,12.911,0,0,1,191.2,138.364Zm0,3v-2.281a8.5,8.5,0,0,0-1.1-.947,7.647,7.647,0,0,0-1.347,1.232,5.406,5.406,0,0,1,1.1.657A5.684,5.684,0,0,1,191.2,141.36Z" transform="translate(-161.545 -132.026)" fill="#008542"/>
    <path id="Path_41661" data-name="Path 41661" d="M202.8,136.208h-1.78v7.049l-.285-.315-.3-.627a3.954,3.954,0,0,0-.822-1.088,3.4,3.4,0,0,0-1.1-.76,4.184,4.184,0,0,0-1.194-.194l-.909-1.137q.715-.708,1.274-1.164c.072-.053.323-.247.761-.585a1.308,1.308,0,0,0-.289-.262,2.549,2.549,0,0,0-1.027-.286,1.563,1.563,0,0,1-1.19-.6l-.741-.711h6.886Zm-4.483,6.57a.764.764,0,0,1-.479-.171.707.707,0,0,1-.274-.418.718.718,0,0,1,0-.311.7.7,0,0,1,.133-.282.639.639,0,0,1,.54-.27.763.763,0,0,1,.479.167.687.687,0,0,1,.273.411.709.709,0,0,1-.137.593.637.637,0,0,1-.532.281Zm2.011-1.316v-5.254H197.85a7.265,7.265,0,0,1,.7.532c.072.065.381.418.943,1.064a7.518,7.518,0,0,1-.711.669,10.2,10.2,0,0,0-.916.985,4.017,4.017,0,0,1,.692.286,4.56,4.56,0,0,1,1.768,1.718Z" transform="translate(-164.477 -132.034)" fill="#008542"/>
    <path id="Path_41662" data-name="Path 41662" d="M213.568,136.208H209.9v.506a.282.282,0,0,1,.137-.027,2.14,2.14,0,0,1,1.521.7,2.827,2.827,0,0,1,.852,1.463,2.725,2.725,0,0,1,.072.574,1.482,1.482,0,0,1-.289.9.978.978,0,0,1-.821.422.887.887,0,0,1-.612-.247.77.77,0,0,1-.2-.262.751.751,0,0,1-.071-.324.9.9,0,0,1,.38-.7,1.32,1.32,0,0,1,.38-.069,1.14,1.14,0,0,1,.7.358.431.431,0,0,0,0-.126,1.624,1.624,0,0,0-.532-1.163,1.842,1.842,0,0,0-1.521-.574v5.46l-.247-.243-.205-.6a3.162,3.162,0,0,0-.582-.943,3.954,3.954,0,0,0-.836-.761,4.028,4.028,0,0,0-1.669-.586l-.947-1.163a9.558,9.558,0,0,1,1.266-.875,11.88,11.88,0,0,1,2.567-1.194v-.532h-4.182l-.689-.684h8.529Zm-4.331,5.037V137.66a8.552,8.552,0,0,0-1.574.761l-.875.616A4.808,4.808,0,0,1,209.237,141.246Z" transform="translate(-167.412 -132.034)" fill="#008542"/>
    <path id="Path_41663" data-name="Path 41663" d="M229.632,136.191h-1.806v7l-.29-.315a4.264,4.264,0,0,0-.175-.616,2.317,2.317,0,0,0-.6-1.069,4.381,4.381,0,0,0-1.069-.761c0,.053-.129.186-.411.38a1.227,1.227,0,0,1-.761.247,1.08,1.08,0,0,1-.833-.285,2.03,2.03,0,0,1-.221-.274,1.234,1.234,0,0,0-.046-.281,1.138,1.138,0,0,1-.049-.281,1.072,1.072,0,0,1,.422-.9,1.524,1.524,0,0,1,.973-.289c.292,0,.46.042.506.122a1.7,1.7,0,0,0-.727-1.422,3.962,3.962,0,0,0-.886-.327,2.055,2.055,0,0,1-.7-.277,1.758,1.758,0,0,1-.381-.381l-.148-.3-.684-.684h7.183Zm-2.464,4.764v-4.764h-3.175q.947.779,1.232,1.072a2.232,2.232,0,0,1,.589,1,4.476,4.476,0,0,1,.19,1.319c.259.281.646.742,1.148,1.373Z" transform="translate(-172.978 -132.016)" fill="#008542"/>
    <path id="Path_41664" data-name="Path 41664" d="M237.606,138.74q-1-.178-.958-.342a3.253,3.253,0,0,1-.574-.464,2.147,2.147,0,0,0-.931-.468l-.026.057a.685.685,0,0,1,.247.491,1.05,1.05,0,0,1-.247.616.68.68,0,0,1-.548.3.925.925,0,0,1-.795-.438.868.868,0,0,1-.1-.737,1.1,1.1,0,0,1,1.19-.931,2.031,2.031,0,0,1,1.11.342c.639.411.973.68,1,.806a1.085,1.085,0,0,0,.54-.38,1.157,1.157,0,0,0-.072-1.206.434.434,0,0,0-.175-.143.423.423,0,0,0-.224-.035h-4.984l-.711-.684h8.228l.7.7h-2.281c.046,0,.118.141.221.422a3.677,3.677,0,0,1,.232.844,1.21,1.21,0,0,1-.415.814Z" transform="translate(-176.054 -132.034)" fill="#008542"/>
    <path id="Path_41665" data-name="Path 41665" d="M239.223,139.915a9.668,9.668,0,0,1,.042,1.3v3.654l-.262-.232a4.789,4.789,0,0,0-.327-.559,1.206,1.206,0,0,0-1-.425,4.534,4.534,0,0,0-.761.1,5.985,5.985,0,0,1-.711.11,2.268,2.268,0,0,1-.947-.164,1.479,1.479,0,0,1-.761-.547,2.441,2.441,0,0,1-.411-1.274,3.1,3.1,0,0,1,.19-1c.084-.228.133-.334.152-.327l.316.243a2.658,2.658,0,0,0-.137.8,1.228,1.228,0,0,0,.449,1.069,3.15,3.15,0,0,0,1.78.133h.4a1.521,1.521,0,0,1,1.038.3,3.718,3.718,0,0,1,.315.331v-2.875a1.56,1.56,0,0,0-.1-.434c-.065-.194-.129-.285-.19-.266a.122.122,0,0,0-.045-.031.106.106,0,0,0-.054-.006,1.1,1.1,0,0,0-.353.094,3.137,3.137,0,0,0-.521.411,1.259,1.259,0,0,0-.29.642,1.2,1.2,0,0,1,.316-.057.5.5,0,0,1,.38.186.631.631,0,0,1,.156.418.675.675,0,0,1-.077.308.687.687,0,0,1-.208.24,1,1,0,0,1-.616.205.986.986,0,0,1-.548-.194.789.789,0,0,1-.358-.438,1.807,1.807,0,0,1-.068-.49,1.387,1.387,0,0,1,.289-.89c.091-.11.255-.3.49-.578l.631-.381c.1-.118.339-.179.711-.179a1.073,1.073,0,0,1,1.084.806Z" transform="translate(-176.93 -133.181)" fill="#008542"/>
    <path id="Path_41666" data-name="Path 41666" d="M250.781,135.552H249V142.5l-.761-.761v-3.8a2.195,2.195,0,0,0-.631-1.521,1.711,1.711,0,0,0-1.011-.563,1.142,1.142,0,0,0-1.1.468,1.315,1.315,0,0,0-.327.7,1.692,1.692,0,0,0,.122.795c.122.339.293.506.521.506.057,0,.072-.019.057-.065a1.412,1.412,0,0,1-.057-.38c0-.354.217-.533.642-.533a.76.76,0,0,1,.761.533.837.837,0,0,1,.069.315.79.79,0,0,1-.43.711,1.449,1.449,0,0,1-.9.22,1.809,1.809,0,0,1-1.308-.7,2.058,2.058,0,0,1-.4-1.464,2.4,2.4,0,0,1,.468-1.315,1.808,1.808,0,0,1,1.164-.723,2.631,2.631,0,0,1,.506-.057,1.14,1.14,0,0,1,.464.084c.228.13.381.213.438.259a2.71,2.71,0,0,1,.821,1.053l.452.932q-.106-.628-.216-1.791a15.929,15.929,0,0,1,0-1.837l.247.27a.564.564,0,0,1,.148.255.929.929,0,0,0,.316.589l.273.186h.795Z" transform="translate(-180.18 -131.405)" fill="#008542"/>
    <path id="Path_41667" data-name="Path 41667" d="M255.938,135.62h-1.711V142.8l-.646-.711V136.97a1.219,1.219,0,0,0-.194-.723,1.3,1.3,0,0,0-1.1-.627h-.179l-.7-.684a4.223,4.223,0,0,1,1.08,0,1.313,1.313,0,0,1,1.041.931,7.957,7.957,0,0,1,.316.837,16.418,16.418,0,0,1-.24-1.9c-.026-.324-.026-.692-.026-1.114l.262.22a3.024,3.024,0,0,0,.183.761,2.059,2.059,0,0,0,.209.27h1.027Z" transform="translate(-182.479 -131.446)" fill="#008542"/>
    <path id="Path_41668" data-name="Path 41668" d="M264.621,136.169h-1.7v7.023l-.7-.67v-3.8a.883.883,0,0,0-.088-.353.868.868,0,0,0-.224-.286.785.785,0,0,0-.658-.251.457.457,0,0,0-.38.27.756.756,0,0,0-.057.5l.057.346-.289.11a.716.716,0,0,0-.137-.327,2.4,2.4,0,0,0-.38-.521,1.312,1.312,0,0,0-.97-.38,1.229,1.229,0,0,0-.871.349,1.1,1.1,0,0,0-.38.841.925.925,0,0,0,.9.969.847.847,0,0,1-.205-.532.68.68,0,0,1,.224-.532.8.8,0,0,1,.525-.194.768.768,0,0,1,.727.586,1.036,1.036,0,0,1,.106.684,1.01,1.01,0,0,1-1.026.657,2.038,2.038,0,0,1-1.217-.38,1.63,1.63,0,0,1-.658-1.042,2.685,2.685,0,0,1-.053-.532,2.115,2.115,0,0,1,.38-1.258,1.32,1.32,0,0,1,1.1-.631,1.7,1.7,0,0,1,1.27.536l.247.312a.807.807,0,0,1,.3-.525.761.761,0,0,1,.236-.2.75.75,0,0,1,.293-.086,1.029,1.029,0,0,1,.639.247c.072.1.152.2.232.3a1.694,1.694,0,0,1,.342.642v-1.9h-5.3l-.711-.7h7.693Z" transform="translate(-184.012 -132.01)" fill="#008542"/>
    <path id="Path_41669" data-name="Path 41669" d="M274.39,136.208h-1.78v7.049l-.285-.315-.3-.627a3.827,3.827,0,0,0-.822-1.088,3.318,3.318,0,0,0-1.1-.76,4.157,4.157,0,0,0-1.19-.194l-.9-1.137c.475-.472.9-.859,1.274-1.164.072-.053.323-.247.76-.585a1.393,1.393,0,0,0-.289-.262,2.583,2.583,0,0,0-1.026-.286,1.563,1.563,0,0,1-1.19-.6l-.749-.711h6.886Zm-4.475,6.57a.764.764,0,0,1-.479-.171.74.74,0,0,1-.274-.418.712.712,0,0,1,.118-.582.635.635,0,0,1,.54-.27.787.787,0,0,1,.475.156.691.691,0,0,1,.274.411.706.706,0,0,1-.137.593.636.636,0,0,1-.517.281Zm2.015-1.316v-5.254h-2.479a7.183,7.183,0,0,1,.7.532c.073.065.381.418.943,1.064a8.06,8.06,0,0,1-.711.669,10.038,10.038,0,0,0-.916.985,4.177,4.177,0,0,1,.692.286,4.605,4.605,0,0,1,1.756,1.718Z" transform="translate(-187.405 -132.034)" fill="#008542"/>
    <path id="Path_41670" data-name="Path 41670" d="M155.555,153.735h-1.186v4.753l-.521-.548.038-2.463a1.58,1.58,0,0,0-.224-.761,1.876,1.876,0,0,0-.506-.635,1.011,1.011,0,0,0-.6-.224,1.041,1.041,0,0,0-1.038.684,1.245,1.245,0,0,1,.491-.08.788.788,0,0,1,.928.734c.049.353-.232.852-.841,1.521l-.528-.593q.231-.212.547-.547c.266-.293.4-.483.4-.567a.23.23,0,0,0-.243-.2,1.406,1.406,0,0,0-.434.19,1.28,1.28,0,0,1-.464.194.274.274,0,0,1-.152-.046.689.689,0,0,1-.358-.6,1.137,1.137,0,0,1,.183-.578,1.291,1.291,0,0,1,.43-.452,1.374,1.374,0,0,1,.7-.187,1.553,1.553,0,0,1,1.7,1.065l.2.657c0-.273-.041-.73-.091-1.376-.023-.33-.034-.76-.034-1.27l.273.266a.578.578,0,0,0-.022.248.572.572,0,0,0,.084.235c.026.057.1.1.213.118h.6Z" transform="translate(-150.278 -137.438)" fill="#008542"/>
    <path id="Path_41671" data-name="Path 41671" d="M161.892,153.705H160.7v4.634l-.5-.509V155.3a1.466,1.466,0,0,0-.418-1.03,1.107,1.107,0,0,0-.673-.38.76.76,0,0,0-.734.311.907.907,0,0,0-.22.464,1.132,1.132,0,0,0,.084.528c.08.228.194.339.346.339.038,0,.049,0,.038-.046a.871.871,0,0,1-.038-.247c0-.235.144-.353.43-.353a.527.527,0,0,1,.309.1.522.522,0,0,1,.193.258.565.565,0,0,1,.046.213.522.522,0,0,1-.289.471.944.944,0,0,1-.6.149,1.2,1.2,0,0,1-.871-.468,1.361,1.361,0,0,1-.27-.973,1.617,1.617,0,0,1,.312-.878,1.208,1.208,0,0,1,.76-.483,1.954,1.954,0,0,1,.339-.038.758.758,0,0,1,.308.057c.152.084.251.141.293.171a1.832,1.832,0,0,1,.548.7l.3.62c-.049-.277-.094-.676-.144-1.194a10.813,10.813,0,0,1,0-1.224l.167.178a.4.4,0,0,1,.1.171.629.629,0,0,0,.209.381l.183.122h.528Z" transform="translate(-152.409 -137.428)" fill="#008542"/>
    <path id="Path_41672" data-name="Path 41672" d="M168.888,153.839H167.72v4.615a4.492,4.492,0,0,1-.49-.475l.065-2.35a3.5,3.5,0,0,0-.183-.475.99.99,0,0,0-.334-.38l-1.544,1.555-.669-.243.38-.419a.428.428,0,0,0,.065-.38c-.042-.213-.137-.312-.281-.308a3.8,3.8,0,0,0-.566.163.264.264,0,0,1-.255-.1.377.377,0,0,1-.129-.258.477.477,0,0,1,.084-.247,1.922,1.922,0,0,1,1.669-1.041,1.575,1.575,0,0,1,1,.346,2.134,2.134,0,0,1,.658.844,4.085,4.085,0,0,1,.274.715l-.156-1.232-.057-1.441.247.182a.277.277,0,0,0,.027.046.576.576,0,0,0,.129.358l.164.1h.285a2.507,2.507,0,0,1,.319,0Zm-2.491.426a2.407,2.407,0,0,0-.266-.209.684.684,0,0,0-.418-.11,1.048,1.048,0,0,0-1.035.582.494.494,0,0,1,.457.183.963.963,0,0,1,.2.517.26.26,0,0,1-.019.107Z" transform="translate(-154.413 -137.543)" fill="#008542"/>
    <path id="Path_41673" data-name="Path 41673" d="M167.731,160.075a2.174,2.174,0,0,1-.293-.456q-.262-.471-.308-.536a1.38,1.38,0,0,0-.485-.273,1.363,1.363,0,0,0-.553-.058c-.213,0-.57,0-1.076.038a1.687,1.687,0,0,1-.761-.137,1.184,1.184,0,0,1-.578-.487,1.405,1.405,0,0,1-.228-.76,2.508,2.508,0,0,1,.057-.761l.255.255a.447.447,0,0,0-.046.2.9.9,0,0,0,.593.829,1.912,1.912,0,0,0,.593.092l.7.038a3.557,3.557,0,0,1,1.069.228,1.675,1.675,0,0,1,.559.476,2.27,2.27,0,0,1,.437.711A1.942,1.942,0,0,1,167.731,160.075Z" transform="translate(-154.305 -138.798)" fill="#008542"/>
    <path id="Path_41674" data-name="Path 41674" d="M176.507,154.145h-2.837a1.365,1.365,0,0,0-.285.152.184.184,0,0,0-.051.061.194.194,0,0,0-.022.076c0,.137.152.254.456.349a1.752,1.752,0,0,0,.62.1,4.07,4.07,0,0,0,.822-.236c.194.2.426.43.684.7a2.679,2.679,0,0,0-.418.589,2.089,2.089,0,0,0-.3.931,3.7,3.7,0,0,0-.046.548,3.427,3.427,0,0,0,.346,1.3.031.031,0,0,1-.013,0,.031.031,0,0,1-.014,0,1.078,1.078,0,0,1-.236-.049c-.122-.033-.186-.06-.194-.08,0-.065-.076-.349-.2-.848a4.337,4.337,0,0,1-.156-1,3.8,3.8,0,0,1,.281-1.338,3.854,3.854,0,0,1-.932-.129,1.477,1.477,0,0,1-.81-.411c-.019-.031-.107-.145-.266-.346a.058.058,0,0,0-.034,0c-.13,0-.281.141-.457.422a1.345,1.345,0,0,0-.266.639c0,.205.114.311.339.311a2.474,2.474,0,0,0,.76-.3,1.783,1.783,0,0,1,.221-.1.091.091,0,0,1,.035.007.1.1,0,0,1,.029.02c.034,0,.126.073.274.255a1.76,1.76,0,0,1,.38.723,1.142,1.142,0,0,1-.019.574,1.248,1.248,0,0,1-.243.48,1.263,1.263,0,0,1-.423.334,1.232,1.232,0,0,1-.528.118,1.71,1.71,0,0,1-1.376-.761,3.249,3.249,0,0,1-.475-.962,5.926,5.926,0,0,1-.175-1.753,1.275,1.275,0,0,1,.255.149,3.219,3.219,0,0,0,.285,1.521,2,2,0,0,0,.848.924.892.892,0,0,0,.528.13,1.99,1.99,0,0,0,.65-.156c.255-.118.38-.273.38-.475a.406.406,0,0,0-.061-.22.184.184,0,0,0-.183-.152.259.259,0,0,0-.11.027,1.951,1.951,0,0,1-.723.19,1.013,1.013,0,0,1-.456-.107,1.262,1.262,0,0,1-.566-.791,1.137,1.137,0,0,1,.038-.639,2.121,2.121,0,0,1,.338-.517c.054-.053.137-.141.247-.262h-1.81l-.456-.468h5.871Z" transform="translate(-156.466 -137.849)" fill="#008542"/>
    <path id="Path_41675" data-name="Path 41675" d="M180.893,153.74h-1.141v4.779l-.437-.475v-3.422a.829.829,0,0,0-.126-.479.868.868,0,0,0-.73-.418h-.118l-.468-.468a2.857,2.857,0,0,1,.723,0,.876.876,0,0,1,.692.62,5.258,5.258,0,0,1,.209.559,11.182,11.182,0,0,1-.156-1.258c-.019-.213-.027-.46-.027-.761l.175.148a2.012,2.012,0,0,0,.126.491,1.273,1.273,0,0,0,.137.182h.689Z" transform="translate(-158.927 -137.444)" fill="#008542"/>
    <path id="Path_41676" data-name="Path 41676" d="M187.256,154.144h-5.7l-.456-.468h5.7Zm-1.061,1.733a1.852,1.852,0,0,1,.091.574,1.387,1.387,0,0,1-.73,1.278,1.741,1.741,0,0,1-1.589.19,1.454,1.454,0,0,1-.5-.262,4,4,0,0,1-.475-.547,4.151,4.151,0,0,1-.529-.878c-.3-.761-.517-1.354-.654-1.833l.262.111c.156.38.3.7.418.958a6.641,6.641,0,0,0,.51.9,1.9,1.9,0,0,0,1.6.9,1.441,1.441,0,0,0,.92-.4.943.943,0,0,0,.362-.738,1.113,1.113,0,0,0-.206-.646.66.66,0,0,0-.562-.338,1.439,1.439,0,0,0-.3.046.763.763,0,0,1,.175.517c0,.434-.243.65-.711.65a.711.711,0,0,1-.761-.639,1.077,1.077,0,0,1-.027-.228.852.852,0,0,1,.339-.7,1.1,1.1,0,0,1,.738-.262,2.083,2.083,0,0,1,.411.053A1.757,1.757,0,0,1,186.195,155.877Z" transform="translate(-159.959 -137.847)" fill="#008542"/>
    <path id="Path_41677" data-name="Path 41677" d="M193.015,155.833q-.666-.121-.639-.228a1.838,1.838,0,0,1-.38-.311,1.529,1.529,0,0,0-.62-.312l-.019.038a.452.452,0,0,1,.117.146.439.439,0,0,1,.046.181.722.722,0,0,1-.163.411.445.445,0,0,1-.38.2.609.609,0,0,1-.3-.076.6.6,0,0,1-.225-.217.574.574,0,0,1-.088-.238.58.58,0,0,1,.024-.253.727.727,0,0,1,.795-.619,1.344,1.344,0,0,1,.737.228c.426.274.646.453.665.536a.715.715,0,0,0,.362-.243.732.732,0,0,0-.031-.81.283.283,0,0,0-.262-.118h-3.331l-.476-.468h5.483l.468.468h-1.521c.031,0,.08.091.145.281a2.524,2.524,0,0,1,.156.563.809.809,0,0,1-.274.551Z" transform="translate(-162.44 -137.849)" fill="#008542"/>
    <path id="Path_41678" data-name="Path 41678" d="M194.106,156.635a7.034,7.034,0,0,1,.026.863v2.438l-.175-.156a3.753,3.753,0,0,0-.217-.38.807.807,0,0,0-.669-.281,2.9,2.9,0,0,0-.5.061,3.952,3.952,0,0,1-.471.076,1.521,1.521,0,0,1-.631-.11.983.983,0,0,1-.51-.38,1.609,1.609,0,0,1-.273-.848,2.081,2.081,0,0,1,.125-.669c.057-.148.088-.224.1-.217l.209.163a1.749,1.749,0,0,0-.091.529.822.822,0,0,0,.3.715,2.064,2.064,0,0,0,1.186.091h.266a1,1,0,0,1,.693.2,2.774,2.774,0,0,1,.209.22v-1.9a.984.984,0,0,0-.065-.289c-.041-.129-.084-.19-.125-.179a.084.084,0,0,0-.046-.007.761.761,0,0,0-.235.065,1.9,1.9,0,0,0-.35.274.87.87,0,0,0-.19.43.757.757,0,0,1,.209-.038.337.337,0,0,1,.145.033.332.332,0,0,1,.117.093.419.419,0,0,1,.1.277.458.458,0,0,1-.047.214.445.445,0,0,1-.143.166.668.668,0,0,1-.411.137.648.648,0,0,1-.38-.129.536.536,0,0,1-.24-.29,1.261,1.261,0,0,1-.046-.33.93.93,0,0,1,.194-.593l.328-.38.421-.255c.065-.08.225-.118.472-.118a.715.715,0,0,1,.711.509Z" transform="translate(-163.03 -138.632)" fill="#008542"/>
    <path id="Path_41679" data-name="Path 41679" d="M197.823,153.038h-1.262v4.684l-.449-.453v-4.231h-.574l-.494-.468h1.141l-.076-.347a1.976,1.976,0,0,0-.38-.688,1.649,1.649,0,0,0-.536-.468,3.345,3.345,0,0,0-1.582-.38,1.927,1.927,0,0,0-1.213.323.15.15,0,0,0-.046.122c0,.141.144.217.43.232.661.023,1.03.042,1.1.054q1.046.137,1.061.924a.961.961,0,0,1-.038.274h-.483c.145-.118.221-.224.221-.319a.266.266,0,0,0-.065-.156q-.118-.155-.685-.182l-.761-.038a1.6,1.6,0,0,1-.723-.262.638.638,0,0,1-.319-.566.455.455,0,0,1,.037-.2.442.442,0,0,1,.12-.16,1.859,1.859,0,0,1,.319-.228,4.043,4.043,0,0,1,.912-.255,1.625,1.625,0,0,1,.293-.027,3.921,3.921,0,0,1,1.141.228,2.4,2.4,0,0,1,.761.456,2.272,2.272,0,0,1,.471.551,2.419,2.419,0,0,1,.316.673l.118.426h.821Z" transform="translate(-163.481 -136.742)" fill="#008542"/>
    <path id="Path_41680" data-name="Path 41680" d="M208.018,154.14h-1.107v4.707l-.239-.346a2.847,2.847,0,0,0-1.194-1.457,2.659,2.659,0,0,0-1.141-.38l-.585-.829a9.808,9.808,0,0,1,1.141-.711,11.337,11.337,0,0,1,1.6-.684v-.308h-3l-.449-.468h4.517Zm-1.57,3.422V155.17a7.815,7.815,0,0,0-1.761.913,3.679,3.679,0,0,1,1.761,1.487Z" transform="translate(-166.987 -137.843)" fill="#008542"/>
    <path id="Path_41681" data-name="Path 41681" d="M211.786,153.74h-1.141v4.779l-.437-.475v-3.422a.829.829,0,0,0-.13-.479.857.857,0,0,0-.73-.418h-.118l-.468-.468a2.857,2.857,0,0,1,.723,0,.868.868,0,0,1,.692.62,4.815,4.815,0,0,1,.213.559,10.321,10.321,0,0,1-.16-1.258q-.022-.32-.022-.761l.175.148a2.005,2.005,0,0,0,.122.491,1.3,1.3,0,0,0,.141.182h.684Z" transform="translate(-168.82 -137.444)" fill="#008542"/>
    <path id="Path_41682" data-name="Path 41682" d="M214.865,155.826a.932.932,0,0,1-.353.285,1.078,1.078,0,0,1-.319.034.991.991,0,0,1-.742-.319,1.027,1.027,0,0,1-.308-.761,1.069,1.069,0,0,1,.426-.8.86.86,0,0,1,.586-.228.938.938,0,0,1,.714.327,1.1,1.1,0,0,1,.3.761A1.032,1.032,0,0,1,214.865,155.826Zm1.088,3.59-.548-.532a17.6,17.6,0,0,0-1.981-1.521v-1.023c.232.183.574.491,1.03.932a21.669,21.669,0,0,1,1.5,1.753Zm-1.571-3.943a.718.718,0,0,0,.274-.285.8.8,0,0,0,.038-.308c0-.251-.1-.38-.3-.38a.935.935,0,0,0-.559.289.753.753,0,0,0-.173.26.765.765,0,0,0-.055.307c0,.224.084.338.266.338A.985.985,0,0,0,214.382,155.473Z" transform="translate(-170.223 -137.963)" fill="#008542"/>
    <path id="Path_41683" data-name="Path 41683" d="M221.759,154.128h-1.141v4.7l-.468-.445v-2.544a.578.578,0,0,0-.205-.426.538.538,0,0,0-.2-.134.526.526,0,0,0-.238-.033.31.31,0,0,0-.251.179.53.53,0,0,0-.053.33l.034.228-.19.076a.338.338,0,0,0-.091-.221,1.648,1.648,0,0,0-.255-.346.88.88,0,0,0-.65-.247.841.841,0,0,0-.578.232.761.761,0,0,0-.251.563.618.618,0,0,0,.6.646.557.557,0,0,1-.137-.353.46.46,0,0,1,.037-.2.455.455,0,0,1,.115-.162.531.531,0,0,1,.381-.137.51.51,0,0,1,.483.381.7.7,0,0,1,.076.456.677.677,0,0,1-.684.437,1.368,1.368,0,0,1-.814-.243,1.085,1.085,0,0,1-.437-.7,1.554,1.554,0,0,1-.038-.354,1.45,1.45,0,0,1,.255-.84.887.887,0,0,1,.73-.422,1.144,1.144,0,0,1,.852.358l.163.209a.532.532,0,0,1,.2-.35.493.493,0,0,1,.353-.186.674.674,0,0,1,.426.164c.05.068.1.133.156.2a1.1,1.1,0,0,1,.224.426v-1.247H216.63l-.472-.464h5.129Z" transform="translate(-171.188 -137.843)" fill="#008542"/>
    <path id="Path_41684" data-name="Path 41684" d="M225.864,153.747h-1.141v4.78l-.445-.475v-3.422a.829.829,0,0,0-.126-.479.868.868,0,0,0-.73-.418H223.3l-.464-.468a2.857,2.857,0,0,1,.723,0,.874.874,0,0,1,.718.635,5.267,5.267,0,0,1,.209.559,11.2,11.2,0,0,1-.156-1.259c-.019-.213-.027-.46-.027-.761l.175.148a2.066,2.066,0,0,0,.1.521,1.414,1.414,0,0,0,.141.182h.684Z" transform="translate(-173.328 -137.451)" fill="#008542"/>
    <path id="Path_41685" data-name="Path 41685" d="M229.678,154.125a2.237,2.237,0,0,0-.761.171,2.508,2.508,0,0,0-.669.381,2.21,2.21,0,0,0-.787,1.49,3.439,3.439,0,0,0-.019,1.141,1.481,1.481,0,0,0,.7.965.323.323,0,0,0,.19.038c.084,0,.122,0,.111-.038s-.088-.053-.156-.163a.74.74,0,0,1-.11-.236.479.479,0,0,1,.293-.521.5.5,0,0,1,.255-.073.343.343,0,0,1,.138.022.324.324,0,0,1,.116.077.513.513,0,0,1,.293.5.7.7,0,0,1-.239.536.849.849,0,0,1-.57.213,1.06,1.06,0,0,1-.7-.217,2.26,2.26,0,0,1-.761-1.311,3.285,3.285,0,0,1-.076-.677,3.461,3.461,0,0,1,.924-2.281h-1.381l-.456-.468h3.213Z" transform="translate(-174.347 -137.847)" fill="#008542"/>
    <path id="Path_41686" data-name="Path 41686" d="M235.305,154.144h-3.7v1.9a3.054,3.054,0,0,0,.319-.266c.262-.232.421-.38.483-.418a4.468,4.468,0,0,1,1.24-.684l.795.593a4.772,4.772,0,0,0-.612,2.152,2.96,2.96,0,0,0,.031.411,8.154,8.154,0,0,0,.137.977l-.308-.156-.114-.548a6.142,6.142,0,0,1-.144-1.323,5.55,5.55,0,0,1,.125-1.194,2.7,2.7,0,0,0-.893.5,3.383,3.383,0,0,0-.939,1.266l-.612-.627v-2.585h-.464l-.468-.468h4.666Z" transform="translate(-175.678 -137.847)" fill="#008542"/>
    <path id="Path_41687" data-name="Path 41687" d="M242.06,153.776h-1.042v4.653l-.464-.464.026-2.848a1.358,1.358,0,0,0-.281-.62q-.33-.482-.6-.456a.687.687,0,0,0-.309.118.283.283,0,0,0-.156.239,4.005,4.005,0,0,1,.381.324.822.822,0,0,1,.285.57,1.735,1.735,0,0,1-.057.323c-.072.19-.247.285-.528.285a.81.81,0,0,1-.665-.491.888.888,0,0,1-.574.51.468.468,0,0,1-.156.027c-.262,0-.438-.156-.529-.472a.6.6,0,0,1-.027-.186.993.993,0,0,1,.117-.389,1,1,0,0,1,.263-.31c.031-.031.111-.091.24-.19a.341.341,0,0,1,.171-.08,1.591,1.591,0,0,0-.254-.381.656.656,0,0,0-.4-.163h-.563l-.456-.464h.916a.921.921,0,0,1,.555.171l.221.209a.889.889,0,0,1,.255.468,1.236,1.236,0,0,1,.912-.791,1.133,1.133,0,0,1,.2-.041c.122,0,.3.148.547.449.072.091.19.27.353.532a3.651,3.651,0,0,1,.3.532l-.129-1.479-.046-.856a3.686,3.686,0,0,1,.281.274.266.266,0,0,1,.057.179.51.51,0,0,0,0,.164.386.386,0,0,0,.274.205h.381Z" transform="translate(-177.695 -137.472)" fill="#008542"/>
    <path id="Path_41688" data-name="Path 41688" d="M252.864,154.144H251.75v4.684l-.445-.517V156.2a.689.689,0,0,0-.247-.358.656.656,0,0,0-.38-.175.589.589,0,0,0-.475.312q-.742,1.141-.943,1.141a.939.939,0,0,1-.163,0c-.213,0-.339-.027-.381-.084-.125,0-.292-.209-.5-.574l-.182-.339.3-.289a.956.956,0,0,0,.1.27.884.884,0,0,0,.152.247.269.269,0,0,0,.082.064.258.258,0,0,0,.1.027c.1,0,.251-.125.441-.38l.38-.529a2.24,2.24,0,0,0-.072-.445.761.761,0,0,0-.761-.567,3.21,3.21,0,0,1-.51-.046.757.757,0,0,1-.38-.346l-.129-.065-.407-.387H252.4Zm-1.559,1.6v-1.6h-2.072l.255.205a.944.944,0,0,1,.256.351.955.955,0,0,1,.075.428.907.907,0,0,1,0,.171,1.209,1.209,0,0,0,.3-.179.71.71,0,0,1,.315-.167.652.652,0,0,1,.381.2A6.236,6.236,0,0,1,251.306,155.748Z" transform="translate(-181.173 -137.847)" fill="#008542"/>
    <path id="Path_41689" data-name="Path 41689" d="M259.07,154.144H258v4.615l-.175-.163-.411-.761a2.26,2.26,0,0,0-.833-.84,2.455,2.455,0,0,0-1.141-.38l-.593-.814a9.6,9.6,0,0,1,2.7-1.357v-.3h-2.783l-.464-.468h4.316Zm-2.8,4.243a.479.479,0,0,1-.308-.114.49.49,0,0,1-.175-.281.427.427,0,0,1,.084-.381.423.423,0,0,1,.342-.175.483.483,0,0,1,.3.11.465.465,0,0,1,.172.465.475.475,0,0,1-.081.182.383.383,0,0,1-.136.14.378.378,0,0,1-.188.054Zm1.266-.76v-2.518a5.6,5.6,0,0,0-1.768.932,3.229,3.229,0,0,1,1.783,1.6Z" transform="translate(-183.405 -137.847)" fill="#008542"/>
    <path id="Path_41690" data-name="Path 41690" d="M266.251,154.172h-2.445v.334a.209.209,0,0,1,.092,0,1.4,1.4,0,0,1,.551.13,1.42,1.42,0,0,1,.457.334,1.9,1.9,0,0,1,.57.977,1.785,1.785,0,0,1,.046.38.993.993,0,0,1-.19.6.638.638,0,0,1-.238.21.652.652,0,0,1-.309.071.595.595,0,0,1-.434-.175.516.516,0,0,1-.133-.171.509.509,0,0,1-.05-.21.595.595,0,0,1,.27-.46.905.905,0,0,1,.262-.046.764.764,0,0,1,.468.236.31.31,0,0,0,0-.08,1.08,1.08,0,0,0-.353-.761,1.222,1.222,0,0,0-1.023-.38V158.8l-.164-.164-.137-.4a2.179,2.179,0,0,0-.4-.631,2.638,2.638,0,0,0-.555-.517,2.722,2.722,0,0,0-1.114-.381l-.631-.761a7.18,7.18,0,0,1,.844-.581,8.232,8.232,0,0,1,1.711-.784v-.353h-2.776l-.464-.468h5.7Zm-2.894,3.357v-2.392a5.952,5.952,0,0,0-1.049.5s-.2.144-.582.411a3.22,3.22,0,0,1,1.624,1.479Z" transform="translate(-185.263 -137.876)" fill="#008542"/>
    <path id="Path_41691" data-name="Path 41691" d="M270.61,153.74h-1.141v4.779l-.441-.475v-3.422a.828.828,0,0,0-.125-.479.868.868,0,0,0-.73-.418h-.122l-.464-.468a2.857,2.857,0,0,1,.723,0,.876.876,0,0,1,.692.62,4.987,4.987,0,0,1,.209.559,11.17,11.17,0,0,1-.156-1.258c0-.213-.027-.46-.027-.761l.175.148a2.026,2.026,0,0,0,.129.536,1.275,1.275,0,0,0,.137.182h.7Z" transform="translate(-187.66 -137.444)" fill="#008542"/>
    <path id="Path_41692" data-name="Path 41692" d="M275.645,154.136h-1.069v4.616l-.175-.163-.411-.761a2.231,2.231,0,0,0-.833-.84,2.459,2.459,0,0,0-1.141-.381l-.593-.814a9.57,9.57,0,0,1,2.7-1.372v-.3h-2.787l-.464-.468h4.3Zm-2.8,4.244a.464.464,0,0,1-.3-.114.481.481,0,0,1-.175-.281.417.417,0,0,1,0-.2.427.427,0,0,1,.09-.179.418.418,0,0,1,.343-.175.482.482,0,0,1,.3.11.465.465,0,0,1,.172.465.474.474,0,0,1-.081.181.379.379,0,0,1-.342.194Zm1.27-.761V155.1a5.736,5.736,0,0,0-1.749.932,3.24,3.24,0,0,1,1.749,1.6Z" transform="translate(-188.713 -137.84)" fill="#008542"/>
  </g>
  <g id="Group_19381" data-name="Group 19381" transform="translate(23.304 0)" clip-path="url(#clip-path-2)">
    <path id="Path_41693" data-name="Path 41693" d="M204.541,103.066a19.907,19.907,0,1,0-19.908-19.907A19.907,19.907,0,0,0,204.541,103.066Z" transform="translate(-184.396 -63.116)" fill="#fff"/>
    <path id="Path_41694" data-name="Path 41694" d="M204.454,103.386A20.167,20.167,0,1,1,224.62,83.217,20.191,20.191,0,0,1,204.454,103.386Zm0-39.816A19.649,19.649,0,1,0,224.1,83.217,19.672,19.672,0,0,0,204.454,63.57Z" transform="translate(-184.285 -63.051)" fill="#039949"/>
    <path id="Path_41695" data-name="Path 41695" d="M187.98,89.538a2.644,2.644,0,0,0-.721,1.585c-.07,1.357,1,1.389,1,1.383l.322-.432c0,.007-.493-.507-.293-.985.213-.46.722.454.9.883l.357-.57c-.023,0-.239-.914-.808-1.124s-.837.819-.767,1.151c0,.005-.482-.355-.048-1.3a1.092,1.092,0,0,1,.49-.563,9.339,9.339,0,0,1,1.319.22,3.843,3.843,0,0,1,.541-.746l-2.321-.231.122-.786-.328-.062c-.071.511-.178,1.017-.217,1.528C187.526,89.5,187.712,89.515,187.98,89.538Z" transform="translate(-185.236 -71.031)" fill="#039949"/>
    <path id="Path_41696" data-name="Path 41696" d="M189.53,82.727a1.992,1.992,0,0,0-1.118,2.136c.218.968,1.118.666,1.463.124.323-.551.205-1.357-.254-1.2-.481.166-.455.785-.46.778s-.432.2-.3-.508a1.619,1.619,0,0,1,1.013-1.194,9.316,9.316,0,0,1,1.183.56,4.319,4.319,0,0,1,.708-.577l-2.172-.853.346-.713-.3-.149a10.682,10.682,0,0,0-.621,1.412S189.236,82.614,189.53,82.727Z" transform="translate(-185.592 -68.842)" fill="#039949"/>
    <path id="Path_41697" data-name="Path 41697" d="M209.149,66.266l-.483-.073-.207,2.373a4.051,4.051,0,0,0-.75-.519,12.223,12.223,0,0,0,.247-1.921,15.117,15.117,0,0,0-1.735-.052c.146.185.254.555-.321,1.031a1.537,1.537,0,0,1,.671.315,1.322,1.322,0,0,1,.212.264l-.006,1.492a.866.866,0,0,0-.612-.212c-.36.026-.6.373-1.118.173a1.125,1.125,0,0,1-.756-.829,1.1,1.1,0,0,0,.865.462c.523,0,.378-.378,1.118-.026V67.717s-.287-.58-.732-.167c0,0,.413.152.2.463a.67.67,0,0,1-1.047-.086c-.15-.293.384-1,1.2-.829a1.281,1.281,0,0,0-1.1-.328s.173.232-.135.457c-.4.3-1.142.1-1-.327.213-.564,1.4-.627,1.816-.277,0,0,.4-.309-.173-.519a17.777,17.777,0,0,0-6.75,1.855l1.145,2.091a5.382,5.382,0,0,0-.909-.005,12.029,12.029,0,0,0-.865-1.734,19.91,19.91,0,0,0-2.262,1.481l-.124.184c.9.173,1.45-.789,1.457-.8a8.494,8.494,0,0,1,.854.173c-.622,1.418.5,1.407.47,1.412l-.081.093c-.892.243-1.3-.991-1.287-1a3.6,3.6,0,0,1-1.6.445c-.472.892-.209,1.22.125.987a.769.769,0,0,0,.375-.664c.572-.316,1.058-.247,1.236.106a1.445,1.445,0,0,1-1.265,1.654,1.866,1.866,0,0,1-1.911-.548,1.883,1.883,0,0,0,2.721-.929c-.038-.245-.44.005-.432.012-.044.384-.94,1.106-1.4.666a.753.753,0,0,1-.144-.92,20.118,20.118,0,0,0-1.617,1.674l1.837,1.432a6.53,6.53,0,0,0-.837.356c-.334.188-.163,1.272-.916,1.824a1.392,1.392,0,0,1-1.138.226,1.254,1.254,0,0,0,.88-.519c.284-.437.259-1.017.585-1.326a1.508,1.508,0,0,1,.5-.3,10.254,10.254,0,0,0-.9-.79,9.531,9.531,0,0,0-.481,1.964l-.644.353c.028-.227.08-.507.143-.8a.841.841,0,0,0-.557.641c-.067.211-.346.422-.481.373s-.534-.819.1-1.753a2.347,2.347,0,0,1,1.621-1.014c-.242-.185-.415-.307-.415-.307a17.971,17.971,0,0,1,14.688-6.968c-.154-.564-1.09-.092-1.542-.4-.5-.286.231-1.116,1.973-.778,1.372.278,1.3,1.037,1.243,1.3l.5.076ZM192.12,74.523a6.958,6.958,0,0,1,.323-1.106,1.179,1.179,0,0,0-.829,1.351,1.249,1.249,0,0,1,.509-.246Zm15.385-8.761.492.03c.125-.864-1.588-1.241-1.956-.864-.439.419.5.03,1.063.238C207.617,65.338,207.565,65.621,207.505,65.762Z" transform="translate(-186.366 -63.509)" fill="#039949"/>
    <path id="Path_41698" data-name="Path 41698" d="M204.689,68.539c-.26.481.445.9.971.573s.293-.7.288-.71c1.07-.2.95,1.117-.355,1.316a3.24,3.24,0,0,1-2.36-.673,2.484,2.484,0,0,0,3.351.951c.636-.346,1.026-1.4.132-1.835A1.477,1.477,0,0,0,204.689,68.539Z" transform="translate(-190.353 -64.616)" fill="#039949"/>
    <path id="Path_41699" data-name="Path 41699" d="M224.467,69.072l-1.037,2.082a6.95,6.95,0,0,0-.519-.749,12.329,12.329,0,0,0,.92-1.642l-.566-.278-.933,2.022a4.343,4.343,0,0,0-1.867-1.539l0-.749a8.912,8.912,0,0,0,2.147-.016,15.543,15.543,0,0,0-2.177-.711l.086-.323a15.8,15.8,0,0,1,3.458,1.289l.326.162a7.834,7.834,0,0,1,1.024.577l-.173.286C224.921,69.345,224.7,69.19,224.467,69.072Zm-2.065-.36a6.334,6.334,0,0,1-1.129.065,5.169,5.169,0,0,1,.753.816Z" transform="translate(-195.861 -64.37)" fill="#039949"/>
    <path id="Path_41700" data-name="Path 41700" d="M236.606,88.254c.064-.511.071-1.027.105-1.539h-.5a1.852,1.852,0,0,0,.553-1.022,1.6,1.6,0,0,0-.418-.915,1.409,1.409,0,0,0,.2-.983,18.016,18.016,0,0,0-2.223-6.564,10.423,10.423,0,0,0-.824-1.3l-.167-.235a9.841,9.841,0,0,0-.951-1.21,16.467,16.467,0,0,0-2.3-2.238l-.212.259a16.1,16.1,0,0,1,2.262,2.2c-.108.1-.245.214-.4.341a.8.8,0,0,0-.68-.783,1.631,1.631,0,0,0-.629-.9c-.462-.405-1.329-.375-1.437.346a1.327,1.327,0,0,0,1.077,1.443c.359,0,.561-.465.128-.876a.553.553,0,0,0-.778-.1c-.358-.314.038-.864.679-.452a1.292,1.292,0,0,1,.625,1.068.472.472,0,0,1,.557.173.742.742,0,0,1,.132.346,7.605,7.605,0,0,1-.767.547,6.453,6.453,0,0,1,.181.891L232.6,75.24l.466.647.167.238a11.918,11.918,0,0,1-1.6,1,5.661,5.661,0,0,1,.086.907l1.923-1.323.4.691.318.56a1.6,1.6,0,0,0-1.279-.047c-.839.332-.549,1.26-.483,1.49.132.334.519.773.8.465.311-.36-.218-.978-.474-.978,0,.006-.16-.65.792-.491a2.378,2.378,0,0,1,1.237.808,6.718,6.718,0,0,1,.287.683l-1.3.5-.045.63a3.159,3.159,0,0,1,.865.614s-.882.221-.99.94l.057.128a.938.938,0,0,1,1.522,0l.382-.62a4.051,4.051,0,0,0-1-1.272l.74-.25a15.669,15.669,0,0,1,.717,2.934h0c.1,1.14-.3.979-.3.981.069-.239-.117-.959-.528-.968s-.384.62-.271.9a2.215,2.215,0,0,0,.36.524,1.421,1.421,0,0,0-.25.811c0,.055.094.519.4.5.415-.021.369-.885.369-.885s.35-.155.313.476a1.242,1.242,0,0,1-.494.874,9.394,9.394,0,0,1-1.27-.141,7.174,7.174,0,0,1-.493.778l2.327.081c-.021.265-.016.532-.063.794Z" transform="translate(-198.6 -65.995)" fill="#039949"/>
    <path id="Path_41701" data-name="Path 41701" d="M226.8,71.842l-.566.213a3.978,3.978,0,0,1,.965,1.823l.138-.063C227.547,73.212,226.827,71.829,226.8,71.842Z" transform="translate(-197.72 -65.867)" fill="#039949"/>
    <path id="Path_41702" data-name="Path 41702" d="M229.027,72.077c-.215.266-.732.217-1.155-.111-.443-.292-.671-.749-.493-1.042s.721-.287,1.2.033C229.041,71.309,229.242,71.813,229.027,72.077Zm-.778-.877c-.575-.1-.6.173-.6.173-.072.11.21.327.778.432s.39-.467-.17-.605Z" transform="translate(-198.067 -65.504)" fill="#039949"/>
    <path id="Path_41703" data-name="Path 41703" d="M224.755,116.611c-.308.138-.494.406-.416.6s.406.231.73.086.509-.415.414-.6S225.063,116.473,224.755,116.611Z" transform="translate(-197.107 -80.177)" fill="#039949"/>
    <path id="Path_41704" data-name="Path 41704" d="M209.286,118.7c-.332-.053-.638.067-.681.269s.208.416.557.47.657-.067.684-.273S209.622,118.752,209.286,118.7Z" transform="translate(-192.072 -80.87)" fill="#039949"/>
    <path id="Path_41705" data-name="Path 41705" d="M218.973,111.977l.047.376a6.9,6.9,0,0,1-.621.37l1.111,1.932a12.131,12.131,0,0,0-2.67.427l-.461-.588a4.05,4.05,0,0,0,1.454-1.445c-.537.306-1.124.519-1.682.785l-.217.075-.47.158.849,2.172c-.239-.059-1.029-.123-1.026-.124a10.721,10.721,0,0,0-.432-1.839,15.788,15.788,0,0,1-2.248.486l.006.046c.362.01,1.411-.118,1.886.4.508.539-.156.921-.5,1.015-.275.093-.967-.009-.778-.432a.835.835,0,0,1,.791-.438c-.01-.026-.29-.369-1.334-.041l.231,1.661a12.027,12.027,0,0,0-2.637-.6l-.206-.718a4.027,4.027,0,0,0,1.89-.8,19.132,19.132,0,0,1-2.013.092l-.07,0-.655-.036-.163,2.221a12.215,12.215,0,0,0-2.45-1.143l-.049-.759a4.41,4.41,0,0,0,2.013-.356c-.592-.1-1.2-.166-1.782-.3l-.048-.014-.222-.057-.481-.124-.519,2.272c-.168-.181-.788-.666-.778-.684a6.49,6.49,0,0,0,.411-.96.591.591,0,0,0-.539-.234c-.409.052-1.109.663-1.643.234a1.353,1.353,0,0,1-.519-1.028,1.018,1.018,0,0,0,1.067.519c.122-.033.341-.164.572-.242a2.073,2.073,0,0,0-1.137-.791v-.285l-.464-.228.162-.291a19.2,19.2,0,0,0,2.86,1.232l1.09.289.215.058.1.024a17.02,17.02,0,0,0,2.973.358l.233.013a17.25,17.25,0,0,0,4.636-.66l.454-.154.613-.207.212-.073A17.234,17.234,0,0,0,218.973,111.977ZM205.412,114.2,204,113.679a1.278,1.278,0,0,1,.271.513.643.643,0,0,1,.557.115,1.644,1.644,0,0,1,.4.476C205.3,114.56,205.363,114.357,205.412,114.2Zm3.1,1.211a4.886,4.886,0,0,1-1.084.29,7.631,7.631,0,0,1,.964.66Zm3.5-.012a3.482,3.482,0,0,1-1,.523c-.006,0,.884.322,1.08.432Zm6.077-1.867a3.416,3.416,0,0,1-.729.859c-.005,0,.941-.033,1.161,0Z" transform="translate(-190.103 -78.721)" fill="#039949"/>
    <path id="Path_41706" data-name="Path 41706" d="M221.173,86.285a13.652,13.652,0,1,1-4-9.653A13.653,13.653,0,0,1,221.173,86.285Z" transform="translate(-187.354 -66.12)" fill="#d81f26"/>
    <path id="Path_41707" data-name="Path 41707" d="M203.385,78.553s.071-.563.421-.7-.14-.985.564-1.265.778.564,1.124.634.984-.213.984.351.845,1.053,1.336,1.053.916-.346.844.844.141,1.829.564,1.97a21.21,21.21,0,0,1,1.969.843c.561.283,1.619-.211,2.179,0s.634.493,1.336.422a3.956,3.956,0,0,1,2.392,0c.844.422,1.053.846.7.916s-.564.14-.778.772a2.385,2.385,0,0,1-1.265,1.477,1.009,1.009,0,0,1-.986.491c-.774,0-.843.142-1.054.423a9.418,9.418,0,0,1-.778,1.408c-.354.353.351.491.494,1.266s.421.493.562,1.054a.587.587,0,0,0,1.055.281c.283-.422.139-.842.563-1.335s.281-.985.778-.915.631.139.493.915a3.575,3.575,0,0,0,.42,1.967,5.509,5.509,0,0,1,.352,1.265c.071.422.7.283.21,1.407s.283.778-.141,1.829.071,1.265-.352,1.406-.631-.21-.773.141-.28,1.2-.421.984c-.234-.345-.211-.141-.211-1.194s-.53-1.684-.421-2.883c.071-.778-.914-.563-.845-1.969s-.633-.7-1.264-.846-1.124.143-1.689-.28c0,0,.189.212-.235.212,0,0-.259.211.1.915a.969.969,0,0,1-.212,1.335c-.28.212-.843-.071-1.264.492s-.563.281-.846.7-.7,0-.7-.211-.42.213-.562.422-.7-.067-.7-.491-.281.141-.423.421-.069.139-.561-.141-.7.778-1.056-.069.141-.353.071-1.477a8.091,8.091,0,0,1-.141-2.533c.21-.844-.079-.373.062-1.429a.89.89,0,0,1-.765-.752c-.141-.7-.564-.913-.422-1.616s.845-.141.845-1.2-.141-.985-.493-.985a2.977,2.977,0,0,1-1.477-1.124c-.354-.491-.139-1.2.211-1.2s.631.069,1.266-.634.773,0,1.266-.351-.069-1.055-.352-1.265-1.336-.634-1.336-1.055S203.315,78.975,203.385,78.553Z" transform="translate(-190.207 -67.367)" fill="#fff100"/>
    <path id="Path_41708" data-name="Path 41708" d="M230.162,106.689l1.457.621,1.04-1.194-.14,1.578,1.457.623-1.543.354-.143,1.577-.814-1.359-1.544.351,1.041-1.193Z" transform="translate(-198.904 -76.844)" fill="#ec1c24"/>
    <path id="Path_41709" data-name="Path 41709" d="M234.269,99.551l1.581.061.552-1.485.428,1.524,1.584.065-1.319.881.428,1.525-1.244-.981-1.319.877.551-1.486Z" transform="translate(-200.293 -74.285)" fill="#ec1c24"/>
    <path id="Path_41710" data-name="Path 41710" d="M191.713,99.625l-1.238.985.551,1.486-1.32-.877-1.241.985.423-1.526-1.319-.878,1.584-.068.425-1.526.554,1.484Z" transform="translate(-185.336 -74.31)" fill="#ec1c24"/>
    <path id="Path_41711" data-name="Path 41711" d="M195.892,106.749l-.808,1.361,1.045,1.191-1.546-.347-.81,1.361-.147-1.578-1.546-.35,1.455-.626-.145-1.577,1.045,1.19Z" transform="translate(-186.781 -76.865)" fill="#ec1c24"/>
  </g>
</svg>
