<svg xmlns="http://www.w3.org/2000/svg" xmlns:xlink="http://www.w3.org/1999/xlink" width="341" height="96.4" viewBox="0 0 341 96.4">
  <defs>
    <clipPath id="clip-path">
      <path id="Path_41605" data-name="Path 41605" d="M671.992-232.512v33.488L712.078-186.4l40.086-12.628v-33.488l-40.086,7.357Z" transform="translate(-671.992 232.512)" fill="none"/>
    </clipPath>
    <linearGradient id="linear-gradient" x1="1.288" y1="0.124" x2="-0.353" y2="0.8" gradientUnits="objectBoundingBox">
      <stop offset="0.003" stop-color="#7b5e42"/>
      <stop offset="1" stop-color="#423132"/>
    </linearGradient>
    <linearGradient id="linear-gradient-2" y1="0.5" x2="1" y2="0.5" gradientUnits="objectBoundingBox">
      <stop offset="0.003" stop-color="#5b4539"/>
      <stop offset="1" stop-color="#8d745c"/>
    </linearGradient>
    <linearGradient id="linear-gradient-3" x1="0.964" y1="0.237" x2="-0.546" y2="0.697" gradientUnits="objectBoundingBox">
      <stop offset="0" stop-color="#e5e2dc"/>
      <stop offset="0.185" stop-color="#d8d5ce"/>
      <stop offset="0.527" stop-color="#b8b5ac"/>
      <stop offset="0.836" stop-color="#969488"/>
      <stop offset="0.859" stop-color="#908e81"/>
      <stop offset="0.941" stop-color="#817d6d"/>
      <stop offset="0.998" stop-color="#7c7767"/>
    </linearGradient>
    <linearGradient id="linear-gradient-4" x1="0.726" y1="-0.201" x2="0.355" y2="0.95" xlink:href="#linear-gradient"/>
    <linearGradient id="linear-gradient-6" x1="0.86" y1="-0.301" x2="0.338" y2="1.144" gradientUnits="objectBoundingBox">
      <stop offset="0.002" stop-color="#c7c1b3"/>
      <stop offset="0.362" stop-color="#d8d5cb"/>
      <stop offset="0.74" stop-color="#e6e5df"/>
      <stop offset="1" stop-color="#ecebe6"/>
    </linearGradient>
    <linearGradient id="linear-gradient-7" x1="0.128" y1="0.29" x2="1.207" y2="0.91" gradientUnits="objectBoundingBox">
      <stop offset="0.003" stop-color="#98652f"/>
      <stop offset="0.546" stop-color="#be7b2d"/>
      <stop offset="1" stop-color="#bf7e46"/>
    </linearGradient>
    <linearGradient id="linear-gradient-8" x1="0.13" y1="0.671" x2="1.134" y2="0.382" gradientUnits="objectBoundingBox">
      <stop offset="0.116" stop-color="#be7b2e"/>
      <stop offset="0.385" stop-color="#c17e31"/>
      <stop offset="0.632" stop-color="#cc893b"/>
      <stop offset="0.869" stop-color="#df9c4b"/>
      <stop offset="1" stop-color="#edaa58"/>
    </linearGradient>
    <linearGradient id="linear-gradient-9" x1="0.489" y1="0.096" x2="0.521" y2="0.935" gradientUnits="objectBoundingBox">
      <stop offset="0" stop-color="#2b2620"/>
      <stop offset="0.414" stop-color="#26221c"/>
      <stop offset="0.853" stop-color="#1a1611"/>
      <stop offset="1" stop-color="#14110c"/>
    </linearGradient>
  </defs>
  <g id="Group_19590" data-name="Group 19590" transform="translate(-543 112.4)">
    <g id="Group_9949" data-name="Group 9949" transform="translate(666.065 -92.768)">
      <text id="ই-হজ_ব্যবস্থাপনা" data-name="ই-হজ ব্যবস্থাপনা" transform="translate(0.935 38.768)" fill="#009444" font-size="35" font-family="HindSiliguri-Bold, Hind Siliguri" font-weight="700"><tspan x="0" y="0">ই-হজ ব্যবস্থাপনা</tspan></text>
    </g>
    <g id="Group_19175" data-name="Group 19175" transform="translate(543 -112.4)">
      <g id="Group_19174" data-name="Group 19174">
        <g id="Group_19173" data-name="Group 19173">
          <g id="Group_19163" data-name="Group 19163" transform="translate(0 62.441)" opacity="0.32" style="mix-blend-mode: multiply;isolation: isolate">
            <path id="Path_41432" data-name="Path 41432" d="M732.637-169.972l40.087,12.628,40.086-12.628,26.809-17.809L761.025-191.3Z" transform="translate(-697.061 191.303)" fill="#f6f1ea" opacity="0"/>
            <path id="Path_41433" data-name="Path 41433" d="M772.35-157.384l40.087-12.628,26.643-17.741-78.588-3.5-28.238,21.246Z" transform="translate(-696.893 191.282)" fill="#f5f0e9" opacity="0.005"/>
            <path id="Path_41434" data-name="Path 41434" d="M771.977-157.423l40.087-12.628,26.477-17.673-78.583-3.482-28.087,21.162Z" transform="translate(-696.724 191.26)" fill="#f4efe8" opacity="0.01"/>
            <path id="Path_41435" data-name="Path 41435" d="M771.6-157.462l40.087-12.628L838-187.695l-78.577-3.462-27.936,21.078Z" transform="translate(-696.555 191.239)" fill="#f3eee7" opacity="0.014"/>
            <path id="Path_41436" data-name="Path 41436" d="M771.231-157.5l40.087-12.628,26.145-17.537-78.572-3.442L731.1-170.115Z" transform="translate(-696.386 191.217)" fill="#f3ede6" opacity="0.019"/>
            <path id="Path_41437" data-name="Path 41437" d="M770.858-157.54l40.087-12.628,25.979-17.469-78.566-3.422L730.722-170.15Z" transform="translate(-696.218 191.196)" fill="#f2ece5" opacity="0.024"/>
            <path id="Path_41438" data-name="Path 41438" d="M770.485-157.579l40.086-12.628,25.813-17.4-78.561-3.4-27.484,20.825Z" transform="translate(-696.049 191.174)" fill="#f1ebe4" opacity="0.029"/>
            <path id="Path_41439" data-name="Path 41439" d="M770.112-157.618,810.2-170.246l25.647-17.334-78.555-3.382-27.334,20.741Z" transform="translate(-695.88 191.153)" fill="#f0eae3" opacity="0.034"/>
            <path id="Path_41440" data-name="Path 41440" d="M769.738-157.658l40.086-12.628,25.481-17.266-78.55-3.362-27.183,20.656Z" transform="translate(-695.711 191.131)" fill="#efeae2" opacity="0.039"/>
            <path id="Path_41441" data-name="Path 41441" d="M769.365-157.7l40.087-12.628,25.314-17.2-78.544-3.342L729.19-170.292Z" transform="translate(-695.543 191.11)" fill="#eee9e1" opacity="0.043"/>
            <path id="Path_41442" data-name="Path 41442" d="M768.992-157.736l40.086-12.628,25.149-17.13-78.539-3.322-26.882,20.488Z" transform="translate(-695.374 191.088)" fill="#ede8e0" opacity="0.048"/>
            <path id="Path_41443" data-name="Path 41443" d="M768.619-157.775,808.706-170.4l24.982-17.062-78.533-3.3-26.731,20.4Z" transform="translate(-695.205 191.067)" fill="#ece7df" opacity="0.053"/>
            <path id="Path_41444" data-name="Path 41444" d="M768.246-157.814l40.087-12.628,24.816-16.995-78.527-3.282L728.041-170.4Z" transform="translate(-695.037 191.045)" fill="#ece6de" opacity="0.058"/>
            <path id="Path_41445" data-name="Path 41445" d="M767.926-157.853l40.087-12.628,24.65-16.927-78.522-3.262-26.43,20.235Z" transform="translate(-694.891 191.024)" fill="#ebe5dd" opacity="0.063"/>
            <path id="Path_41446" data-name="Path 41446" d="M767.557-157.892l40.087-12.628,24.484-16.859-78.516-3.242L727.332-170.47Z" transform="translate(-694.724 191.002)" fill="#eae4dc" opacity="0.067"/>
            <path id="Path_41447" data-name="Path 41447" d="M767.188-157.931l40.086-12.628,24.318-16.791-78.511-3.222-26.129,20.066Z" transform="translate(-694.558 190.981)" fill="#e9e3db" opacity="0.072"/>
            <path id="Path_41448" data-name="Path 41448" d="M766.819-157.97,806.905-170.6l24.152-16.723-78.505-3.2-25.978,19.982Z" transform="translate(-694.391 190.959)" fill="#e8e2da" opacity="0.077"/>
            <path id="Path_41449" data-name="Path 41449" d="M766.449-158.01l40.087-12.628,23.986-16.655-78.5-3.182-25.827,19.9Z" transform="translate(-694.224 190.938)" fill="#e7e1d9" opacity="0.082"/>
            <path id="Path_41450" data-name="Path 41450" d="M766.08-158.049l40.086-12.628,23.82-16.587-78.494-3.162-25.677,19.813Z" transform="translate(-694.057 190.916)" fill="#e6e0d8" opacity="0.087"/>
            <path id="Path_41451" data-name="Path 41451" d="M765.711-158.088,805.8-170.715l23.654-16.52-78.489-3.142-25.526,19.729Z" transform="translate(-693.89 190.895)" fill="#e5dfd7" opacity="0.092"/>
            <path id="Path_41452" data-name="Path 41452" d="M765.342-158.127l40.087-12.628,23.488-16.452-78.483-3.122-25.376,19.645Z" transform="translate(-693.723 190.874)" fill="#e5ded6" opacity="0.096"/>
            <path id="Path_41453" data-name="Path 41453" d="M764.973-158.166l40.087-12.628,23.322-16.384-78.478-3.1-25.225,19.56Z" transform="translate(-693.556 190.852)" fill="#e4ddd5" opacity="0.101"/>
            <path id="Path_41454" data-name="Path 41454" d="M764.6-158.205l40.086-12.628,23.156-16.316-78.472-3.082L724.3-170.754Z" transform="translate(-693.389 190.831)" fill="#e3dcd4" opacity="0.106"/>
            <path id="Path_41455" data-name="Path 41455" d="M764.235-158.244l40.087-12.628,22.99-16.248-78.467-3.062L723.921-170.79Z" transform="translate(-693.222 190.809)" fill="#e2dcd3" opacity="0.111"/>
            <path id="Path_41456" data-name="Path 41456" d="M763.866-158.283l40.087-12.628,22.824-16.18-78.461-3.042-24.773,19.308Z" transform="translate(-693.055 190.788)" fill="#e1dbd2" opacity="0.116"/>
            <path id="Path_41457" data-name="Path 41457" d="M763.5-158.322l40.087-12.628,22.658-16.113-78.456-3.022-24.622,19.223Z" transform="translate(-692.888 190.766)" fill="#e0dad1" opacity="0.12"/>
            <path id="Path_41458" data-name="Path 41458" d="M763.128-158.361l40.086-12.628,22.492-16.045-78.45-3L722.784-170.9Z" transform="translate(-692.722 190.745)" fill="#dfd9d0" opacity="0.125"/>
            <path id="Path_41459" data-name="Path 41459" d="M762.759-158.4l40.086-12.628,22.326-15.977-78.445-2.981-24.321,19.055Z" transform="translate(-692.555 190.723)" fill="#ded8cf" opacity="0.13"/>
            <path id="Path_41460" data-name="Path 41460" d="M762.39-158.44l40.086-12.628,22.16-15.909L746.2-189.938l-24.171,18.97Z" transform="translate(-692.388 190.702)" fill="#ded7ce" opacity="0.135"/>
            <path id="Path_41461" data-name="Path 41461" d="M762.021-158.479l40.086-12.628L824.1-186.948l-78.433-2.941L721.647-171Z" transform="translate(-692.221 190.68)" fill="#ddd6cd" opacity="0.14"/>
            <path id="Path_41462" data-name="Path 41462" d="M761.652-158.518l40.087-12.628,21.827-15.773-78.428-2.921-23.869,18.8Z" transform="translate(-692.054 190.659)" fill="#dcd5cc" opacity="0.145"/>
            <path id="Path_41463" data-name="Path 41463" d="M761.283-158.557l40.087-12.628,21.661-15.706-78.422-2.9L720.89-171.074Z" transform="translate(-691.887 190.637)" fill="#dbd4cb" opacity="0.149"/>
            <path id="Path_41464" data-name="Path 41464" d="M760.914-158.6,801-171.224l21.5-15.638-78.417-2.881L720.511-171.11Z" transform="translate(-691.72 190.616)" fill="#dad3ca" opacity="0.154"/>
            <path id="Path_41465" data-name="Path 41465" d="M760.545-158.635l40.086-12.628,21.329-15.57-78.411-2.861-23.417,18.549Z" transform="translate(-691.553 190.594)" fill="#d9d2c9" opacity="0.159"/>
            <path id="Path_41466" data-name="Path 41466" d="M760.176-158.674,800.262-171.3l21.163-15.5-78.406-2.841-23.267,18.465Z" transform="translate(-691.386 190.573)" fill="#d8d1c8" opacity="0.164"/>
            <path id="Path_41467" data-name="Path 41467" d="M759.807-158.713l40.086-12.628,21-15.434-78.4-2.821-23.116,18.38Z" transform="translate(-691.219 190.551)" fill="#d7d0c7" opacity="0.169"/>
            <path id="Path_41468" data-name="Path 41468" d="M759.438-158.753l20.983-12.5,39.934-15.495-78.395-2.8-22.965,18.3Z" transform="translate(-691.053 190.53)" fill="#d7cfc6" opacity="0.173"/>
            <path id="Path_41469" data-name="Path 41469" d="M759.069-158.792l40.086-12.628,20.665-15.3L741.431-189.5l-22.815,18.212Z" transform="translate(-690.886 190.508)" fill="#d6cec5" opacity="0.178"/>
            <path id="Path_41470" data-name="Path 41470" d="M758.7-158.831l13.508-12.2,4.217-3.809,3.866-1.819,8.587-4.041,30.408-5.987L740.9-189.45l-22.664,18.127Z" transform="translate(-690.719 190.487)" fill="#d5cec4" opacity="0.183"/>
            <path id="Path_41471" data-name="Path 41471" d="M758.331-158.87,798.417-171.5,818.75-186.66,740.372-189.4l-22.514,18.043Z" transform="translate(-690.552 190.465)" fill="#d4cdc3" opacity="0.188"/>
            <path id="Path_41472" data-name="Path 41472" d="M757.961-158.909l40.087-12.628,20.167-15.1-78.373-2.721-22.363,17.959Z" transform="translate(-690.385 190.444)" fill="#d3ccc2" opacity="0.193"/>
            <path id="Path_41473" data-name="Path 41473" d="M757.592-158.948l40.086-12.628,20-15.027-78.367-2.7L717.1-171.43Z" transform="translate(-690.218 190.423)" fill="#d2cbc1" opacity="0.198"/>
            <path id="Path_41474" data-name="Path 41474" d="M757.223-158.987l40.086-12.628,19.835-14.959-78.361-2.681-22.062,17.79Z" transform="translate(-690.051 190.401)" fill="#d1cac0" opacity="0.202"/>
            <path id="Path_41475" data-name="Path 41475" d="M756.854-159.026l40.086-12.628,19.669-14.892-78.356-2.661L716.342-171.5Z" transform="translate(-689.884 190.38)" fill="#d0c9bf" opacity="0.207"/>
            <path id="Path_41476" data-name="Path 41476" d="M756.485-159.065l40.087-12.628,19.5-14.824-78.351-2.641-21.76,17.622Z" transform="translate(-689.717 190.358)" fill="#d0c8be" opacity="0.212"/>
            <path id="Path_41477" data-name="Path 41477" d="M756.116-159.1,796.2-171.732l19.336-14.756-78.345-2.621-21.61,17.537Z" transform="translate(-689.55 190.337)" fill="#cfc7bd" opacity="0.217"/>
            <path id="Path_41478" data-name="Path 41478" d="M755.747-159.144l40.087-12.628L815-186.459l-78.339-2.6-21.459,17.453Z" transform="translate(-689.383 190.315)" fill="#cec6bc" opacity="0.222"/>
            <path id="Path_41479" data-name="Path 41479" d="M755.378-159.183l40.086-12.628,19-14.62-78.334-2.581-21.308,17.369Z" transform="translate(-689.216 190.294)" fill="#cdc5bb" opacity="0.227"/>
            <path id="Path_41480" data-name="Path 41480" d="M755.009-159.222,795.1-171.85,813.934-186.4l-78.328-2.561-21.158,17.284Z" transform="translate(-689.05 190.272)" fill="#ccc4ba" opacity="0.231"/>
            <path id="Path_41481" data-name="Path 41481" d="M754.64-159.261l40.087-12.628L813.4-186.373l-78.323-2.541-21.007,17.2Z" transform="translate(-688.883 190.251)" fill="#cbc3b9" opacity="0.236"/>
            <path id="Path_41482" data-name="Path 41482" d="M754.271-159.3l40.087-12.628,18.506-14.417-78.318-2.521L713.69-171.749Z" transform="translate(-688.716 190.229)" fill="#cac2b8" opacity="0.241"/>
            <path id="Path_41483" data-name="Path 41483" d="M753.9-159.339l40.087-12.628,18.34-14.349-78.312-2.5-20.706,17.032Z" transform="translate(-688.549 190.208)" fill="#c9c1b7" opacity="0.246"/>
            <path id="Path_41484" data-name="Path 41484" d="M753.533-159.378l40.086-12.628,18.174-14.281-78.306-2.481L712.932-171.82Z" transform="translate(-688.382 190.186)" fill="#c9c0b6" opacity="0.251"/>
            <path id="Path_41485" data-name="Path 41485" d="M753.164-159.417l40.087-12.628,18.008-14.213-78.3-2.461-20.4,16.863Z" transform="translate(-688.215 190.165)" fill="#c8c0b5" opacity="0.255"/>
            <path id="Path_41486" data-name="Path 41486" d="M752.795-159.456l40.086-12.628,17.842-14.145-78.3-2.441-20.254,16.779Z" transform="translate(-688.048 190.143)" fill="#c7bfb4" opacity="0.26"/>
            <path id="Path_41487" data-name="Path 41487" d="M752.426-159.5l40.087-12.628L810.188-186.2l-78.29-2.421-20.1,16.694Z" transform="translate(-687.881 190.122)" fill="#c6beb3" opacity="0.265"/>
            <path id="Path_41488" data-name="Path 41488" d="M752.057-159.535l40.086-12.628,17.51-14.01-78.284-2.4-19.953,16.61Z" transform="translate(-687.714 190.1)" fill="#c5bdb2" opacity="0.27"/>
            <path id="Path_41489" data-name="Path 41489" d="M751.688-159.574,791.774-172.2l17.344-13.942-78.278-2.381L711.037-172Z" transform="translate(-687.547 190.079)" fill="#c4bcb1" opacity="0.275"/>
            <path id="Path_41490" data-name="Path 41490" d="M751.319-159.613,791.4-172.241l17.178-13.874-78.273-2.361-19.651,16.441Z" transform="translate(-687.38 190.057)" fill="#c3bbb0" opacity="0.28"/>
            <path id="Path_41491" data-name="Path 41491" d="M750.949-159.652l40.087-12.628,17.012-13.806-78.267-2.341-19.5,16.357Z" transform="translate(-687.213 190.036)" fill="#c2baaf" opacity="0.284"/>
            <path id="Path_41492" data-name="Path 41492" d="M750.581-159.691l40.086-12.628,16.846-13.738-78.262-2.321L709.9-172.1Z" transform="translate(-687.047 190.015)" fill="#c2b9ae" opacity="0.289"/>
            <path id="Path_41493" data-name="Path 41493" d="M750.211-159.73,790.3-172.358l16.679-13.67-78.256-2.3-19.2,16.189Z" transform="translate(-686.88 189.993)" fill="#c1b8ad" opacity="0.294"/>
            <path id="Path_41494" data-name="Path 41494" d="M749.842-159.769,789.929-172.4,806.442-186l-78.251-2.281-19.049,16.1Z" transform="translate(-686.713 189.972)" fill="#c0b7ac" opacity="0.299"/>
            <path id="Path_41495" data-name="Path 41495" d="M749.473-159.808l40.087-12.628,16.348-13.535-78.245-2.261-18.9,16.02Z" transform="translate(-686.546 189.95)" fill="#bfb6ab" opacity="0.304"/>
            <path id="Path_41496" data-name="Path 41496" d="M749.1-159.848l40.086-12.628,16.181-13.467-78.24-2.241-18.748,15.936Z" transform="translate(-686.379 189.929)" fill="#beb5aa" opacity="0.308"/>
            <path id="Path_41497" data-name="Path 41497" d="M748.735-159.887l40.086-12.628,16.015-13.4-78.234-2.22-18.6,15.851Z" transform="translate(-686.212 189.907)" fill="#bdb4a9" opacity="0.313"/>
            <path id="Path_41498" data-name="Path 41498" d="M748.366-159.926l40.087-12.628L804.3-185.885l-78.229-2.2-18.447,15.767Z" transform="translate(-686.045 189.886)" fill="#bcb3a8" opacity="0.318"/>
            <path id="Path_41499" data-name="Path 41499" d="M748-159.965l40.087-12.628,15.683-13.263-78.223-2.18-18.3,15.683Z" transform="translate(-685.878 189.864)" fill="#bbb2a7" opacity="0.323"/>
            <path id="Path_41500" data-name="Path 41500" d="M747.628-160l40.086-12.628,15.517-13.2-78.218-2.16-18.145,15.6Z" transform="translate(-685.711 189.843)" fill="#bbb2a6" opacity="0.328"/>
            <path id="Path_41501" data-name="Path 41501" d="M747.259-160.043l40.086-12.628L802.7-185.8l-78.212-2.14L706.49-172.425Z" transform="translate(-685.544 189.821)" fill="#bab1a5" opacity="0.333"/>
            <path id="Path_41502" data-name="Path 41502" d="M746.89-160.082l40.087-12.628,15.185-13.06-78.206-2.12-17.844,15.43Z" transform="translate(-685.378 189.8)" fill="#b9b0a4" opacity="0.337"/>
            <path id="Path_41503" data-name="Path 41503" d="M746.521-160.121l40.087-12.628,15.019-12.992-78.2-2.1L705.732-172.5Z" transform="translate(-685.211 189.778)" fill="#b8afa3" opacity="0.342"/>
            <path id="Path_41504" data-name="Path 41504" d="M746.152-160.16l40.086-12.628,14.853-12.924-78.2-2.08-17.543,15.261Z" transform="translate(-685.044 189.757)" fill="#b7aea2" opacity="0.347"/>
            <path id="Path_41505" data-name="Path 41505" d="M745.783-160.2l40.086-12.628,14.687-12.856-78.19-2.06-17.392,15.177Z" transform="translate(-684.877 189.735)" fill="#b6ada1" opacity="0.352"/>
            <path id="Path_41506" data-name="Path 41506" d="M745.414-160.239,785.5-172.866l14.521-12.789-78.184-2.04L704.6-172.6Z" transform="translate(-684.71 189.714)" fill="#b5aca0" opacity="0.357"/>
            <path id="Path_41507" data-name="Path 41507" d="M745.045-160.278l40.087-12.628,14.355-12.721-78.179-2.02-17.091,15.008Z" transform="translate(-684.543 189.692)" fill="#b4ab9f" opacity="0.361"/>
            <path id="Path_41508" data-name="Path 41508" d="M744.676-160.317l40.087-12.628L798.951-185.6l-78.173-2-16.94,14.924Z" transform="translate(-684.376 189.671)" fill="#b4aa9e" opacity="0.366"/>
            <path id="Path_41509" data-name="Path 41509" d="M744.307-160.356l40.087-12.628,14.023-12.585-78.168-1.98-16.789,14.84Z" transform="translate(-684.209 189.649)" fill="#b3a99d" opacity="0.371"/>
            <path id="Path_41510" data-name="Path 41510" d="M743.938-160.4l40.086-12.628,13.857-12.517-78.162-1.96-16.639,14.756Z" transform="translate(-684.042 189.628)" fill="#b2a89c" opacity="0.376"/>
            <path id="Path_41511" data-name="Path 41511" d="M743.569-160.434l40.086-12.628,13.69-12.449-78.157-1.94L702.7-172.78Z" transform="translate(-683.875 189.607)" fill="#b1a79b" opacity="0.381"/>
            <path id="Path_41512" data-name="Path 41512" d="M743.2-160.473,783.286-173.1l13.524-12.381-78.151-1.92-16.338,14.587Z" transform="translate(-683.709 189.585)" fill="#b0a69a" opacity="0.386"/>
            <path id="Path_41513" data-name="Path 41513" d="M742.83-160.512l40.086-12.628,13.358-12.314-78.146-1.9-16.187,14.5Z" transform="translate(-683.542 189.564)" fill="#afa599" opacity="0.39"/>
            <path id="Path_41514" data-name="Path 41514" d="M742.461-160.551l40.087-12.628,13.192-12.246-78.14-1.88-16.036,14.418Z" transform="translate(-683.375 189.542)" fill="#aea498" opacity="0.395"/>
            <path id="Path_41515" data-name="Path 41515" d="M742.092-160.591l40.087-12.628L795.205-185.4l-78.135-1.86-15.886,14.334Z" transform="translate(-683.208 189.521)" fill="#ada497" opacity="0.4"/>
            <path id="Path_41516" data-name="Path 41516" d="M741.723-160.63l40.087-12.628,12.86-12.11-78.129-1.84-15.735,14.25Z" transform="translate(-683.041 189.499)" fill="#ada396" opacity="0.405"/>
            <path id="Path_41517" data-name="Path 41517" d="M741.354-160.669,781.441-173.3l12.694-12.042-78.124-1.82-15.584,14.165Z" transform="translate(-682.874 189.478)" fill="#aca295" opacity="0.41"/>
            <path id="Path_41518" data-name="Path 41518" d="M740.985-160.708l40.087-12.628L793.6-185.31l-78.118-1.8-15.434,14.081Z" transform="translate(-682.707 189.456)" fill="#aba194" opacity="0.414"/>
            <path id="Path_41519" data-name="Path 41519" d="M740.616-160.747,780.7-173.375l12.362-11.907-78.113-1.78-15.283,14Z" transform="translate(-682.54 189.435)" fill="#aaa093" opacity="0.419"/>
            <path id="Path_41520" data-name="Path 41520" d="M740.247-160.786l40.086-12.628,12.2-11.839-78.107-1.76L699.29-173.1Z" transform="translate(-682.373 189.413)" fill="#a99f92" opacity="0.424"/>
            <path id="Path_41521" data-name="Path 41521" d="M739.878-160.825l40.086-12.628,12.03-11.771-78.1-1.74-14.982,13.828Z" transform="translate(-682.206 189.392)" fill="#a89e91" opacity="0.429"/>
            <path id="Path_41522" data-name="Path 41522" d="M739.509-160.864,779.6-173.492l11.864-11.7-78.1-1.72-14.831,13.744Z" transform="translate(-682.039 189.37)" fill="#a79d90" opacity="0.434"/>
            <path id="Path_41523" data-name="Path 41523" d="M739.14-160.9l40.086-12.628,11.7-11.635-78.09-1.7-14.681,13.66Z" transform="translate(-681.872 189.349)" fill="#a79c8f" opacity="0.439"/>
            <path id="Path_41524" data-name="Path 41524" d="M738.771-160.943l40.086-12.628,11.532-11.567-78.085-1.68-14.53,13.575Z" transform="translate(-681.706 189.327)" fill="#a69b8e" opacity="0.443"/>
            <path id="Path_41525" data-name="Path 41525" d="M738.4-160.982l40.086-12.628,11.366-11.5-78.079-1.66L697.4-173.278Z" transform="translate(-681.539 189.306)" fill="#a59a8d" opacity="0.448"/>
            <path id="Path_41526" data-name="Path 41526" d="M738.033-161.021l40.087-12.628,11.2-11.432-78.074-1.64-14.229,13.407Z" transform="translate(-681.372 189.284)" fill="#a4998c" opacity="0.453"/>
            <path id="Path_41527" data-name="Path 41527" d="M737.664-161.06l40.086-12.628,11.034-11.364-78.068-1.62-14.078,13.322Z" transform="translate(-681.205 189.263)" fill="#a3988b" opacity="0.458"/>
            <path id="Path_41528" data-name="Path 41528" d="M737.295-161.1l40.086-12.628,10.868-11.3-78.063-1.6-13.928,13.238Z" transform="translate(-681.038 189.241)" fill="#a2978a" opacity="0.463"/>
            <path id="Path_41529" data-name="Path 41529" d="M736.926-161.138l40.086-12.628,10.7-11.228-78.057-1.58L695.88-173.42Z" transform="translate(-680.871 189.22)" fill="#a19689" opacity="0.467"/>
            <path id="Path_41530" data-name="Path 41530" d="M736.557-161.177,776.643-173.8l10.536-11.16-78.052-1.56L695.5-173.455Z" transform="translate(-680.704 189.198)" fill="#a09588" opacity="0.472"/>
            <path id="Path_41531" data-name="Path 41531" d="M736.188-161.216l40.087-12.628,10.369-11.093-78.046-1.54-13.476,12.985Z" transform="translate(-680.537 189.177)" fill="#a09587" opacity="0.477"/>
            <path id="Path_41532" data-name="Path 41532" d="M735.819-161.255l40.086-12.628,10.2-11.025-78.041-1.52-13.325,12.9Z" transform="translate(-680.37 189.156)" fill="#9f9486" opacity="0.482"/>
            <path id="Path_41533" data-name="Path 41533" d="M735.449-161.295l40.086-12.628,10.037-10.957-78.035-1.5-13.174,12.817Z" transform="translate(-680.203 189.134)" fill="#9e9385" opacity="0.487"/>
            <path id="Path_41534" data-name="Path 41534" d="M735.08-161.334l40.086-12.628,9.871-10.889-78.03-1.48L693.985-173.6Z" transform="translate(-680.036 189.113)" fill="#9d9284" opacity="0.492"/>
            <path id="Path_41535" data-name="Path 41535" d="M734.711-161.373,774.8-174l9.705-10.821-78.024-1.46-12.873,12.648Z" transform="translate(-679.869 189.091)" fill="#9c9183" opacity="0.496"/>
            <path id="Path_41536" data-name="Path 41536" d="M734.342-161.412l40.087-12.628,9.539-10.753-78.018-1.44-12.723,12.564Z" transform="translate(-679.703 189.07)" fill="#9b9082" opacity="0.501"/>
            <path id="Path_41537" data-name="Path 41537" d="M733.973-161.451l40.086-12.628,9.373-10.685-78.013-1.42L692.848-173.7Z" transform="translate(-679.536 189.048)" fill="#9a8f81" opacity="0.506"/>
            <path id="Path_41538" data-name="Path 41538" d="M733.6-161.49l40.086-12.628,9.207-10.618-78.007-1.4-12.421,12.4Z" transform="translate(-679.369 189.027)" fill="#998e80" opacity="0.511"/>
            <path id="Path_41539" data-name="Path 41539" d="M733.235-161.529l40.087-12.628,9.041-10.55-78-1.379L692.09-173.775Z" transform="translate(-679.202 189.005)" fill="#998d7f" opacity="0.516"/>
            <path id="Path_41540" data-name="Path 41540" d="M732.866-161.568,772.952-174.2l8.875-10.482-78-1.359-12.12,12.227Z" transform="translate(-679.035 188.984)" fill="#988c7e" opacity="0.52"/>
            <path id="Path_41541" data-name="Path 41541" d="M732.5-161.607l40.086-12.628,8.709-10.414L703.3-185.989l-11.969,12.142Z" transform="translate(-678.868 188.962)" fill="#978b7d" opacity="0.525"/>
            <path id="Path_41542" data-name="Path 41542" d="M732.128-161.646l40.086-12.628,8.543-10.346-77.985-1.319-11.819,12.058Z" transform="translate(-678.701 188.941)" fill="#968a7c" opacity="0.53"/>
            <path id="Path_41543" data-name="Path 41543" d="M731.759-161.686l40.087-12.628,8.376-10.279-77.98-1.3-11.668,11.974Z" transform="translate(-678.534 188.919)" fill="#95897b" opacity="0.535"/>
            <path id="Path_41544" data-name="Path 41544" d="M731.39-161.725l40.086-12.628,8.211-10.211-77.974-1.279L690.2-173.953Z" transform="translate(-678.367 188.898)" fill="#94887a" opacity="0.54"/>
            <path id="Path_41545" data-name="Path 41545" d="M731.021-161.764l40.087-12.628,8.044-10.143-77.969-1.259-11.367,11.805Z" transform="translate(-678.2 188.876)" fill="#938779" opacity="0.545"/>
            <path id="Path_41546" data-name="Path 41546" d="M730.652-161.8l40.087-12.628,7.878-10.075-77.963-1.239-11.216,11.721Z" transform="translate(-678.033 188.855)" fill="#928778" opacity="0.549"/>
            <path id="Path_41547" data-name="Path 41547" d="M730.283-161.842l40.087-12.628,7.712-10.007L700.124-185.7,689.058-174.06Z" transform="translate(-677.867 188.833)" fill="#928677" opacity="0.554"/>
            <path id="Path_41548" data-name="Path 41548" d="M729.914-161.881,770-174.509l7.546-9.939-77.952-1.2L688.679-174.1Z" transform="translate(-677.7 188.812)" fill="#918576" opacity="0.559"/>
            <path id="Path_41549" data-name="Path 41549" d="M729.545-161.92l40.087-12.628,7.38-9.871L699.065-185.6,688.3-174.131Z" transform="translate(-677.533 188.79)" fill="#908475" opacity="0.564"/>
            <path id="Path_41550" data-name="Path 41550" d="M729.176-161.959l40.086-12.628,7.214-9.8-77.941-1.159-10.614,11.384Z" transform="translate(-677.366 188.769)" fill="#8f8374" opacity="0.569"/>
            <path id="Path_41551" data-name="Path 41551" d="M728.807-162l40.086-12.628,7.048-9.736L698.006-185.5l-10.463,11.3Z" transform="translate(-677.199 188.747)" fill="#8e8273" opacity="0.573"/>
            <path id="Path_41552" data-name="Path 41552" d="M728.438-162.038l40.087-12.628,6.882-9.668-77.93-1.119-10.312,11.215Z" transform="translate(-677.032 188.726)" fill="#8d8172" opacity="0.578"/>
            <path id="Path_41553" data-name="Path 41553" d="M728.068-162.077,768.155-174.7l6.716-9.6-77.924-1.1-10.162,11.131Z" transform="translate(-676.865 188.705)" fill="#8c8071" opacity="0.583"/>
            <path id="Path_41554" data-name="Path 41554" d="M727.7-162.116l40.086-12.628,6.55-9.532-77.919-1.079-10.011,11.047Z" transform="translate(-676.698 188.683)" fill="#8b7f70" opacity="0.588"/>
            <path id="Path_41555" data-name="Path 41555" d="M727.33-162.155l40.086-12.628,6.384-9.464-77.913-1.059-9.861,10.962Z" transform="translate(-676.531 188.662)" fill="#8b7e6f" opacity="0.593"/>
            <path id="Path_41556" data-name="Path 41556" d="M726.961-162.194l40.087-12.628,6.218-9.4-77.908-1.039-9.71,10.878Z" transform="translate(-676.364 188.64)" fill="#8a7d6e" opacity="0.598"/>
            <path id="Path_41557" data-name="Path 41557" d="M726.592-162.233l40.086-12.628,6.052-9.329-77.9-1.019-9.559,10.794Z" transform="translate(-676.197 188.619)" fill="#897c6d" opacity="0.602"/>
            <path id="Path_41558" data-name="Path 41558" d="M726.223-162.272,766.31-174.9l5.886-9.261-77.9-1L684.89-174.45Z" transform="translate(-676.03 188.597)" fill="#887b6c" opacity="0.607"/>
            <path id="Path_41559" data-name="Path 41559" d="M725.854-162.311l40.086-12.628,5.72-9.193-77.891-.979-9.258,10.625Z" transform="translate(-675.864 188.576)" fill="#877a6b" opacity="0.612"/>
            <path id="Path_41560" data-name="Path 41560" d="M725.485-162.35l40.087-12.628,5.554-9.125-77.886-.959-9.107,10.541Z" transform="translate(-675.697 188.554)" fill="#86796a" opacity="0.617"/>
            <path id="Path_41561" data-name="Path 41561" d="M725.116-162.39,765.2-175.017l5.388-9.057-77.88-.939-8.957,10.456Z" transform="translate(-675.53 188.533)" fill="#857969" opacity="0.622"/>
            <path id="Path_41562" data-name="Path 41562" d="M724.747-162.429l40.087-12.628,5.222-8.99-77.875-.919-8.806,10.372Z" transform="translate(-675.363 188.511)" fill="#847868" opacity="0.627"/>
            <path id="Path_41563" data-name="Path 41563" d="M724.378-162.468,764.464-175.1l5.056-8.922-77.869-.9L683-174.628Z" transform="translate(-675.196 188.49)" fill="#847767" opacity="0.631"/>
            <path id="Path_41564" data-name="Path 41564" d="M724.009-162.507,764.1-175.135l4.89-8.854-77.864-.879-8.5,10.2Z" transform="translate(-675.029 188.468)" fill="#837666" opacity="0.636"/>
            <path id="Path_41565" data-name="Path 41565" d="M723.64-162.546l40.086-12.628,4.724-8.786-77.858-.859L682.237-174.7Z" transform="translate(-674.862 188.447)" fill="#827565" opacity="0.641"/>
            <path id="Path_41566" data-name="Path 41566" d="M723.271-162.585l40.087-12.628,4.557-8.718-77.852-.839-8.2,10.035Z" transform="translate(-674.695 188.425)" fill="#817464" opacity="0.646"/>
            <path id="Path_41567" data-name="Path 41567" d="M722.9-162.624l40.087-12.628,4.391-8.65-77.847-.819-8.053,9.951Z" transform="translate(-674.528 188.404)" fill="#807363" opacity="0.651"/>
            <path id="Path_41568" data-name="Path 41568" d="M722.533-162.663l40.087-12.628,4.225-8.583-77.841-.8-7.9,9.866Z" transform="translate(-674.361 188.382)" fill="#7f7262" opacity="0.655"/>
            <path id="Path_41569" data-name="Path 41569" d="M722.164-162.7,762.25-175.33l4.059-8.515-77.836-.779-7.752,9.782Z" transform="translate(-674.194 188.361)" fill="#7e7161" opacity="0.66"/>
            <path id="Path_41570" data-name="Path 41570" d="M721.795-162.741l40.087-12.628,3.893-8.447-77.83-.759-7.6,9.7Z" transform="translate(-674.028 188.339)" fill="#7d7060" opacity="0.665"/>
            <path id="Path_41571" data-name="Path 41571" d="M721.426-162.781l40.087-12.628,3.727-8.379-77.825-.739-7.45,9.613Z" transform="translate(-673.861 188.318)" fill="#7d6f5f" opacity="0.67"/>
            <path id="Path_41572" data-name="Path 41572" d="M721.057-162.82l40.086-12.628,3.561-8.311-77.819-.719-7.3,9.529Z" transform="translate(-673.694 188.297)" fill="#7c6e5e" opacity="0.675"/>
            <path id="Path_41573" data-name="Path 41573" d="M720.688-162.859l40.086-12.628,3.395-8.243-77.814-.7-7.149,9.445Z" transform="translate(-673.527 188.275)" fill="#7b6d5d" opacity="0.68"/>
            <path id="Path_41574" data-name="Path 41574" d="M720.319-162.9,760.4-175.526l3.229-8.175-77.808-.679-7,9.361Z" transform="translate(-673.36 188.254)" fill="#7a6c5c" opacity="0.684"/>
            <path id="Path_41575" data-name="Path 41575" d="M719.949-162.937l40.086-12.628,3.063-8.108-77.8-.659-6.848,9.276Z" transform="translate(-673.193 188.232)" fill="#796b5b" opacity="0.689"/>
            <path id="Path_41576" data-name="Path 41576" d="M719.58-162.976,759.667-175.6l2.9-8.04-77.8-.639-6.7,9.192Z" transform="translate(-673.026 188.211)" fill="#786b5a" opacity="0.694"/>
            <path id="Path_41577" data-name="Path 41577" d="M719.211-163.015,759.3-175.643l2.731-7.972-77.792-.619-6.547,9.108Z" transform="translate(-672.859 188.189)" fill="#776a59" opacity="0.699"/>
            <path id="Path_41578" data-name="Path 41578" d="M718.842-163.054l40.086-12.628,2.565-7.9-77.786-.6-6.4,9.023Z" transform="translate(-672.692 188.168)" fill="#766958" opacity="0.704"/>
            <path id="Path_41579" data-name="Path 41579" d="M718.473-163.093l40.087-12.628,2.4-7.836-77.781-.578-6.245,8.939Z" transform="translate(-672.525 188.146)" fill="#766857" opacity="0.708"/>
            <path id="Path_41580" data-name="Path 41580" d="M718.1-163.133l40.087-12.628,2.232-7.768-77.775-.558-6.095,8.855Z" transform="translate(-672.358 188.125)" fill="#756756" opacity="0.713"/>
            <path id="Path_41581" data-name="Path 41581" d="M717.735-163.172,757.822-175.8l2.066-7.7-77.77-.538-5.944,8.77Z" transform="translate(-672.191 188.103)" fill="#746655" opacity="0.718"/>
            <path id="Path_41582" data-name="Path 41582" d="M717.366-163.211l40.086-12.628,1.9-7.633-77.764-.518L675.8-175.3Z" transform="translate(-672.025 188.082)" fill="#736554" opacity="0.723"/>
            <path id="Path_41583" data-name="Path 41583" d="M717-163.25l40.087-12.628,1.734-7.565-77.758-.5-5.643,8.6Z" transform="translate(-671.858 188.06)" fill="#726453" opacity="0.728"/>
            <path id="Path_41584" data-name="Path 41584" d="M716.628-163.289l40.086-12.628,1.568-7.5-77.753-.478-5.492,8.518Z" transform="translate(-671.691 188.039)" fill="#716352" opacity="0.733"/>
            <path id="Path_41585" data-name="Path 41585" d="M716.259-163.328l40.087-12.628,1.4-7.429L680-183.843l-5.342,8.433Z" transform="translate(-671.524 188.017)" fill="#706251" opacity="0.737"/>
            <path id="Path_41586" data-name="Path 41586" d="M715.89-163.367l40.086-12.628,1.236-7.361-77.742-.438-5.191,8.349Z" transform="translate(-671.357 187.996)" fill="#6f6150" opacity="0.742"/>
            <path id="Path_41587" data-name="Path 41587" d="M715.521-163.406l40.086-12.628,1.07-7.294-77.736-.418-5.04,8.265Z" transform="translate(-671.19 187.974)" fill="#6f604f" opacity="0.747"/>
            <path id="Path_41588" data-name="Path 41588" d="M715.152-163.445l40.086-12.628.9-7.226-77.731-.4-4.89,8.18Z" transform="translate(-671.023 187.953)" fill="#6e5f4e" opacity="0.752"/>
            <path id="Path_41589" data-name="Path 41589" d="M714.783-163.484l40.087-12.628.738-7.158-77.725-.378-4.739,8.1Z" transform="translate(-670.856 187.931)" fill="#6d5e4d" opacity="0.757"/>
            <path id="Path_41590" data-name="Path 41590" d="M714.414-163.524,754.5-176.151l.572-7.09-77.72-.358-4.589,8.012Z" transform="translate(-670.689 187.91)" fill="#6c5d4c" opacity="0.761"/>
            <path id="Path_41591" data-name="Path 41591" d="M714.045-163.563l40.087-12.628.406-7.022-77.714-.338-4.438,7.928Z" transform="translate(-670.522 187.888)" fill="#6b5d4b" opacity="0.766"/>
            <path id="Path_41592" data-name="Path 41592" d="M713.676-163.6l40.086-12.628.24-6.954-77.709-.318-4.287,7.843Z" transform="translate(-670.355 187.867)" fill="#6a5c4a" opacity="0.771"/>
            <path id="Path_41593" data-name="Path 41593" d="M713.306-163.641l40.087-12.628.074-6.887-77.7-.3-4.137,7.759Z" transform="translate(-670.189 187.846)" fill="#695b49" opacity="0.776"/>
            <path id="Path_41594" data-name="Path 41594" d="M712.855-163.68l40.086-12.628-.092-6.819-77.7-.278-3.986,7.675Z" transform="translate(-669.985 187.824)" fill="#685a48" opacity="0.781"/>
            <path id="Path_41595" data-name="Path 41595" d="M712.337-163.719l40.087-12.628-.258-6.751-77.692-.258-3.835,7.59Z" transform="translate(-669.753 187.803)" fill="#685947" opacity="0.786"/>
            <path id="Path_41596" data-name="Path 41596" d="M711.82-163.758l40.086-12.628-.425-6.683-77.686-.238-3.685,7.506Z" transform="translate(-669.521 187.781)" fill="#675846" opacity="0.79"/>
            <path id="Path_41597" data-name="Path 41597" d="M711.3-163.8l40.086-12.628-.59-6.615-77.681-.218-3.534,7.422Z" transform="translate(-669.289 187.76)" fill="#665745" opacity="0.795"/>
            <path id="Path_41598" data-name="Path 41598" d="M669.056-175.872l41.729,12.036,40.087-12.628-.757-6.547-77.675-.2Z" transform="translate(-669.056 187.738)" fill="#655644" opacity="0.8"/>
          </g>
          <g id="Group_19172" data-name="Group 19172" transform="translate(1.592)">
            <g id="Group_19170" data-name="Group 19170" transform="translate(0.051 39.384)">
              <g id="Group_19169" data-name="Group 19169" clip-path="url(#clip-path)">
                <g id="Group_19168" data-name="Group 19168" transform="translate(0 0.411)">
                  <g id="Group_19165" data-name="Group 19165" transform="translate(40.086)" style="isolation: isolate">
                    <g id="Group_19164" data-name="Group 19164">
                      <path id="Path_41599" data-name="Path 41599" d="M780.1-182.755l3.617-1.063v3.793l-3.563,1.255-.054-3.985m-4.411,1.209.052,4.2,4.3-1.391-.054-3.991-4.3,1.178m-4.924,1.349.047,4.448,4.8-1.553-.052-4.21-4.8,1.315m-5.521,1.512.043,4.722,5.385-1.741-.048-4.455-5.38,1.474M759-176.974l.035,5.033,6.094-1.97-.042-4.73L759-176.974m-7.106,1.947.026,5.386,6.937-2.243-.035-5.041-6.927,1.9m-8.263,2.24v5.794l8.084-2.582-.026-5.4-8.058,2.184m38.452-14.635.055,3.875,1.579-.5v-3.784l-1.634.408m-38.452,8.515v5.773l4.1-1.088-.02-5.574-4.081.89m34.264-7.586.053,4.081,4.083-1.107-.055-3.88-4.082.905m-4.652,1.032.05,4.311,4.537-1.229-.052-4.087-4.534,1.005m-5.207,1.155.045,4.568,5.08-1.377-.05-4.317-5.075,1.126m-5.857,1.3.039,4.857,5.719-1.55-.045-4.575-5.714,1.268m-6.649,1.475.031,5.187,6.49-1.759-.039-4.866-6.482,1.438m-7.6,1.686.02,5.563,7.426-2.012-.031-5.2-7.415,1.645M780-190.092l.039,2.885,3.678-.849V-190.8l-3.717.711m-4.406.807.037,3.043,4.3-.941-.04-2.889-4.294.787m-4.917.9.035,3.218,4.795-1.05-.037-3.047-4.792.878m-5.511,1.01.031,3.415,5.375-1.177-.034-3.223-5.372.984m-6.232,1.142.026,3.639,6.079-1.331-.031-3.42-6.074,1.113m-7.089,1.3.019,3.893,6.917-1.515-.025-3.645-6.911,1.267m-.2.038-8.011,1.449v4.193l8.029-1.742Z" transform="translate(-743.634 213.729)" fill="url(#linear-gradient)"/>
                      <path id="Path_41600" data-name="Path 41600" d="M780-189.533l-.112.021.04,2.889-4.3.94-.037-3.042-.125.023.037,3.047-4.795,1.049-.035-3.218-.139.026.034,3.223L765.2-183.4l-.031-3.415-.157.029.031,3.42-6.079,1.331-.026-3.639-.178.033.025,3.645-6.917,1.514-.019-3.893-.2.037.019,3.9-8.029,1.742v.346l4.081-.89.02,5.574-4.1,1.088v.347l8.058-2.184.026,5.4-8.084,2.582v.426l40.086-13.262v-.2l-3.563,1.256L780.1-182.2l3.617-1.063v-.228l-1.579.5-.055-3.875,1.634-.408v-.227l-3.678.849Zm-2.224,3.626.052,4.087-4.537,1.229-.05-4.311Zm-4.666,1.035.05,4.317-5.08,1.377-.045-4.568Zm-5.218,1.157.045,4.575-5.719,1.55-.039-4.857Zm-5.881,1.3.039,4.866-6.49,1.759-.031-5.186Zm-14.061,8.687-.02-5.563,7.415-1.645.031,5.2Zm3.969,4.642-.026-5.387,6.927-1.9.035,5.041Zm7.115-2.3L759-176.414l6.087-1.668.042,4.73Zm6.252-2.022-.043-4.722,5.38-1.474.048,4.455Zm5.525-1.787-.047-4.448,4.8-1.315.052,4.21Zm4.928-1.593-.052-4.2,4.3-1.178.054,3.991Zm6.291-6.176-4.083,1.107-.053-4.081,4.082-.906Z" transform="translate(-743.634 213.17)" fill="url(#linear-gradient-2)"/>
                      <path id="Path_41601" data-name="Path 41601" d="M743.634-231.776v30.283l8.011-1.449.2-.038,6.911-1.266.178-.033,6.074-1.113.157-.029,5.371-.985.14-.025,4.792-.878.125-.023,4.294-.787.112-.021,3.717-.711v-11.112Z" transform="translate(-743.634 231.776)" fill="url(#linear-gradient-3)"/>
                    </g>
                  </g>
                  <g id="Group_19167" data-name="Group 19167" style="isolation: isolate">
                    <g id="Group_19166" data-name="Group 19166">
                      <path id="Path_41602" data-name="Path 41602" d="M675.609-182.755l-.054,3.985-3.563-1.255v-3.793l3.617,1.063m4.412,1.209-4.3-1.178-.054,3.991,4.3,1.391.052-4.2m4.924,1.349-4.8-1.315-.051,4.21,4.8,1.553.047-4.448m5.52,1.512-5.38-1.474-.047,4.455,5.385,1.741.043-4.722m6.244,1.71-6.087-1.667-.042,4.73,6.094,1.97.035-5.033m7.106,1.947-6.928-1.9-.035,5.041,6.937,2.243.026-5.386m8.263,2.24-8.058-2.184-.026,5.4,8.084,2.582v-5.794m-38.452-14.635-1.634-.408v3.784l1.579.5.055-3.875m38.452,8.515L708-179.8l-.02,5.574,4.1,1.088v-5.773m-34.264-7.586-4.082-.905-.055,3.88,4.084,1.107.053-4.081m4.652,1.032-4.534-1.005-.053,4.087,4.537,1.229.05-4.311m5.207,1.155-5.075-1.126-.05,4.317,5.079,1.377.045-4.568m5.857,1.3-5.714-1.268-.045,4.575,5.72,1.55.039-4.857m6.649,1.475-6.482-1.438-.039,4.866,6.49,1.759.031-5.187m7.6,1.686-7.415-1.645-.031,5.2,7.426,2.012.02-5.563m-32.069-10.247-3.717-.711v2.747l3.677.849.04-2.885m4.406.807-4.294-.787-.039,2.889,4.3.941.037-3.043m4.917.9-4.792-.878-.037,3.047,4.8,1.05.035-3.218m5.511,1.01-5.371-.984-.034,3.223,5.375,1.177.031-3.415m6.232,1.142-6.074-1.113-.031,3.42,6.079,1.331.026-3.639m7.089,1.3-6.911-1.267-.025,3.645,6.917,1.515.019-3.893m.2.038-.019,3.9,8.029,1.742v-4.193Z" transform="translate(-671.992 213.729)" fill="url(#linear-gradient-4)"/>
                      <path id="Path_41603" data-name="Path 41603" d="M712.078-178.347v-.346l-8.029-1.742.019-3.9-.2-.037-.019,3.893-6.917-1.514.025-3.645-.178-.033-.026,3.639-6.079-1.331.031-3.42-.157-.029-.031,3.415-5.375-1.177.034-3.223-.139-.026L685-184.606l-4.8-1.049.037-3.047-.125-.023-.037,3.042-4.3-.94.039-2.889-.112-.021-.039,2.885-3.678-.849v.227l1.634.408-.055,3.875-1.579-.5v.228l3.617,1.063-.054,3.985-3.563-1.256v.2l40.086,13.262v-.426l-8.084-2.582.026-5.4,8.058,2.184v-.347l-4.1-1.088.02-5.574ZM693.7-182.41l6.482,1.438-.031,5.186-6.49-1.759Zm-5.881-1.3,5.714,1.268-.039,4.857-5.72-1.55Zm-5.218-1.157,5.075,1.126-.045,4.568-5.08-1.377Zm-4.666-1.035,4.534,1.005-.05,4.311-4.537-1.229Zm-4.255,2.948.055-3.88,4.082.906-.053,4.081Zm6.291,6.176-4.3-1.391.054-3.991,4.3,1.178Zm4.928,1.593-4.8-1.553.051-4.21,4.8,1.315Zm5.525,1.787-5.385-1.741.047-4.455,5.38,1.474Zm6.252,2.022-6.094-1.97.042-4.73,6.087,1.668Zm7.115,2.3-6.937-2.243.035-5.041,6.928,1.9Zm3.969-4.642-7.426-2.012.031-5.2,7.415,1.645Z" transform="translate(-671.992 213.17)" fill="url(#linear-gradient-2)"/>
                      <path id="Path_41604" data-name="Path 41604" d="M671.992-219.962v11.112l3.717.711.112.021,4.294.787.125.023,4.792.878.14.025,5.371.985.157.029,6.074,1.113.178.033,6.911,1.266.2.038,8.011,1.449v-30.283Z" transform="translate(-671.992 231.776)" fill="url(#linear-gradient-6)"/>
                    </g>
                  </g>
                </g>
              </g>
            </g>
            <g id="Group_19171" data-name="Group 19171">
              <path id="Path_41606" data-name="Path 41606" d="M743.634-283.664l40.137,13.259v5.045l-40.137-10.706v-7.6m38.523,20.085.074,5.157,1.54.244v-5.067l-1.614-.334m-12.309-2.969.063,5.955,8.842,1.559-.072-5.382-8.833-2.131m-16.838-4.062.037,7.043,12.187,2.149-.057-6.257-12.168-2.935m-9.376-2.283v7.668l2.79.491-.024-7.47-2.766-.671v-.018m36.829,9.473-.961,1.856,1.018,2.272.94-1.863-1-2.265m-12.888-3.019-1.309,2.111,1.356,2.671,1.277-2.121-1.324-2.661M749.8-270.6l-1.878,2.444,1.9,3.239,1.823-2.46L749.8-270.6" transform="translate(-703.497 294.426)" fill="url(#linear-gradient-7)"/>
              <path id="Path_41607" data-name="Path 41607" d="M712.038-283.664v7.6L671.9-265.36v-5.045l40.137-13.259m-38.523,20.085-1.614.334v5.067l1.54-.244.074-5.157m12.309-2.969-8.833,2.131-.072,5.382,8.842-1.559.063-5.955m16.838-4.062-12.168,2.935-.057,6.257,12.187-2.149.038-7.043m9.376-2.283v.018l-2.766.671-.023,7.47,2.79-.491v-7.668m-36.829,9.473-1,2.265.941,1.863,1.018-2.272-.961-1.856m12.888-3.019-1.324,2.661,1.277,2.121,1.356-2.671-1.309-2.111M705.87-270.6l-1.848,3.222,1.823,2.46,1.9-3.239L705.87-270.6" transform="translate(-671.901 294.426)" fill="url(#linear-gradient-8)"/>
              <path id="Path_41608" data-name="Path 41608" d="M712.038-302.9v10.762L671.9-278.877v-7.159ZM671.9-266.65l1.54-.244.074-5.157-1.614.334v-2.116l40.137-10.706v3.19l-2.766.671-.024,7.47,2.79-.491v39.811c-7.981,0-10.163-17.573-10.163-17.573s-3.011,14.972-10.675,13.331c-6.186-1.324-7.177-12.549-7.177-12.549-1.409,11.148-10.2,13.672-12.071,2.191Zm32.121-9.2,1.823,2.46,1.9-3.239-1.878-2.444Zm-13.584,5.962,12.187-2.149.038-7.043-12.168,2.935Zm-3.664-2.36,1.277,2.121,1.356-2.671-1.309-2.111Zm-9.855,4.744,8.842-1.559.063-5.955-8.833,2.131Zm-2.706-2.121.941,1.863,1.018-2.272-.961-1.856Z" transform="translate(-671.901 302.898)" fill="url(#linear-gradient-9)"/>
              <path id="Path_41609" data-name="Path 41609" d="M783.771-286.036v7.159l-40.137-13.259V-302.9ZM743.634-273.7l2.79.491-.024-7.47-2.766-.671v-3.19l40.137,10.706v2.116l-1.614-.334.074,5.157,1.54.244-.051,18.163c-1.881,11.481-10.667,8.956-12.077-2.191,0,0-.991,11.225-7.169,12.549-7.664,1.641-10.675-13.331-10.675-13.331s-2.191,17.573-10.164,17.573h0Zm35.868,3.662,1.018,2.272.94-1.863-1-2.265Zm-9.654-4.984.063,5.955,8.842,1.559-.072-5.382Zm-3.582,2.22,1.356,2.671,1.277-2.121-1.324-2.661Zm-13.256-6.282.037,7.043,12.187,2.149-.057-6.257Zm-5.086,2.452,1.9,3.239,1.823-2.46-1.848-3.222Z" transform="translate(-703.497 302.898)" fill="#14110c"/>
            </g>
          </g>
        </g>
      </g>
    </g>
  </g>
</svg>
