<svg width="16" height="16" viewBox="0 0 16 16" fill="none" xmlns="http://www.w3.org/2000/svg">
<path d="M13.0313 7.14336L10.1126 5.88711L9.4626 5.61211C9.3626 5.56211 9.2751 5.43086 9.2751 5.31836V3.40586C9.2751 2.80586 8.83135 2.09336 8.29385 1.81836C8.10635 1.72461 7.88135 1.72461 7.69385 1.81836C7.1626 2.09336 6.71885 2.81211 6.71885 3.41211V5.32461C6.71885 5.43711 6.63135 5.56836 6.53135 5.61836L2.96885 7.14961C2.5751 7.31211 2.25635 7.80586 2.25635 8.23086V9.05586C2.25635 9.58711 2.65635 9.84961 3.1501 9.63711L6.28135 8.28711C6.5251 8.18086 6.7251 8.31211 6.7251 8.58086V9.27461V10.3996C6.7251 10.5434 6.64385 10.7496 6.54385 10.8496L5.09385 12.3059C4.94385 12.4559 4.8751 12.7496 4.94385 12.9621L5.2251 13.8121C5.3376 14.1809 5.75635 14.3559 6.1001 14.1809L7.5876 12.9309C7.8126 12.7371 8.18135 12.7371 8.40635 12.9309L9.89385 14.1809C10.2376 14.3496 10.6563 14.1809 10.7813 13.8121L11.0626 12.9621C11.1313 12.7559 11.0626 12.4559 10.9126 12.3059L9.4626 10.8496C9.35635 10.7496 9.2751 10.5434 9.2751 10.3996V8.58086C9.2751 8.31211 9.46885 8.18711 9.71885 8.28711L12.8501 9.63711C13.3438 9.84961 13.7438 9.58711 13.7438 9.05586V8.23086C13.7438 7.80586 13.4251 7.31211 13.0313 7.14336Z" fill="#FF9F43"/>
</svg>
