<svg width="13" height="13" viewBox="0 0 13 13" fill="none" xmlns="http://www.w3.org/2000/svg">
<path d="M4.11927 2.13167C5.22327 1.59917 7.61277 1.08392 10.318 2.84642C10.4429 2.92303 10.5927 2.9479 10.7357 2.91574C10.8786 2.88358 11.0033 2.79692 11.0834 2.6742C11.1634 2.55148 11.1924 2.40239 11.1641 2.25862C11.1359 2.11486 11.0527 1.98778 10.9323 1.90442C7.84002 -0.110835 5.02227 0.446415 3.63027 1.11917C3.56132 1.14973 3.49923 1.19384 3.44768 1.24889C3.39613 1.30393 3.35617 1.36878 3.33019 1.43957C3.3042 1.51037 3.29272 1.58566 3.29641 1.66099C3.30011 1.73631 3.31892 1.81012 3.35172 1.87803C3.38451 1.94594 3.43063 2.00656 3.48733 2.05628C3.54402 2.10601 3.61014 2.14383 3.68175 2.16749C3.75335 2.19115 3.82898 2.20018 3.90415 2.19402C3.97931 2.18787 4.05246 2.16666 4.11927 2.13167ZM2.83827 2.34167C2.92003 2.46631 2.94897 2.61831 2.91874 2.76428C2.8885 2.91025 2.80156 3.03825 2.67702 3.12017C2.31702 3.35642 1.89627 3.88592 1.73502 4.16042C1.69759 4.22414 1.64798 4.27987 1.58901 4.32442C1.53005 4.36897 1.46289 4.40147 1.39136 4.42006C1.31984 4.43866 1.24535 4.44298 1.17216 4.43279C1.09896 4.4226 1.02849 4.39809 0.964766 4.36067C0.901042 4.32324 0.845314 4.27363 0.800763 4.21466C0.756213 4.1557 0.723712 4.08854 0.705117 4.01701C0.686522 3.94549 0.682197 3.871 0.692389 3.79781C0.702581 3.72461 0.727089 3.65414 0.764516 3.59042C0.974516 3.23267 1.50327 2.54567 2.05902 2.18042C2.12072 2.13978 2.18982 2.11169 2.26238 2.09777C2.33494 2.08384 2.40953 2.08434 2.48189 2.09925C2.55425 2.11415 2.62297 2.14316 2.68412 2.18463C2.74527 2.2261 2.79765 2.27995 2.83827 2.34167ZM6.87477 2.21792C6.72558 2.21792 6.58251 2.27718 6.47702 2.38267C6.37153 2.48816 6.31227 2.63123 6.31227 2.78042C6.31227 2.9296 6.37153 3.07267 6.47702 3.17816C6.58251 3.28365 6.72558 3.34292 6.87477 3.34292C8.03952 3.34292 10.8453 4.32242 11.5728 8.10542C11.5861 8.1785 11.6138 8.24821 11.6543 8.31053C11.6947 8.37284 11.7471 8.42653 11.8084 8.46848C11.8698 8.51044 11.9388 8.53983 12.0115 8.55496C12.0843 8.5701 12.1593 8.57067 12.2322 8.55666C12.3052 8.54264 12.3746 8.51431 12.4366 8.4733C12.4985 8.43229 12.5518 8.37941 12.5932 8.31772C12.6346 8.25603 12.6633 8.18675 12.6778 8.11388C12.6923 8.04101 12.6922 7.966 12.6775 7.89317C11.8345 3.50942 8.50377 2.21792 6.87477 2.21792ZM5.74227 2.80067C5.76748 2.8701 5.77878 2.94383 5.7755 3.01763C5.77223 3.09143 5.75445 3.16386 5.72318 3.23079C5.6919 3.29772 5.64776 3.35783 5.59325 3.4077C5.53875 3.45756 5.47496 3.4962 5.40552 3.52142C2.45052 4.59391 1.70952 7.42142 1.99452 9.42017C2.00783 9.49452 2.00603 9.5708 1.98923 9.64444C1.97242 9.71809 1.94096 9.7876 1.89671 9.84882C1.85246 9.91004 1.79633 9.96172 1.73167 10.0008C1.66701 10.0398 1.59515 10.0655 1.52037 10.0762C1.44559 10.0868 1.36943 10.0823 1.29642 10.063C1.22341 10.0436 1.15506 10.0097 1.09544 9.96329C1.03581 9.9169 0.986145 9.85899 0.949392 9.79299C0.912639 9.727 0.889554 9.65427 0.881516 9.57916C0.548516 7.25116 1.39902 3.77942 5.02152 2.46392C5.16175 2.41325 5.31637 2.42035 5.45138 2.48363C5.58638 2.54692 5.69074 2.66122 5.74152 2.80142L5.74227 2.80067ZM5.09127 5.74067C3.88302 6.67592 3.15327 8.68517 4.37727 11.1219C4.44299 11.255 4.45342 11.4087 4.40629 11.5495C4.35915 11.6903 4.25828 11.8067 4.12565 11.8734C3.99302 11.9402 3.83939 11.9517 3.69827 11.9056C3.55714 11.8596 3.43996 11.7595 3.37227 11.6274C1.93452 8.76542 2.72202 6.15242 4.40202 4.85117C5.23452 4.20617 6.28302 3.89267 7.34202 4.06442C8.40702 4.23692 9.42102 4.89092 10.1995 6.06317C10.2751 6.18726 10.2997 6.33579 10.2682 6.47762C10.2367 6.61946 10.1515 6.74361 10.0306 6.82407C9.90958 6.90452 9.76217 6.93505 9.61918 6.90925C9.4762 6.88345 9.34875 6.80333 9.26352 6.68567C8.63127 5.73541 7.87452 5.29067 7.16202 5.17517C6.44202 5.05817 5.70327 5.26667 5.09127 5.74067ZM10.8115 7.96892C10.8075 7.89515 10.7889 7.82289 10.757 7.75628C10.725 7.68967 10.6803 7.63001 10.6252 7.5807C10.5702 7.5314 10.506 7.49341 10.4363 7.46891C10.3666 7.44441 10.2928 7.43388 10.219 7.43792C10.1452 7.44195 10.073 7.46048 10.0064 7.49244C9.93978 7.52441 9.88011 7.56917 9.8308 7.62419C9.7815 7.67921 9.74351 7.7434 9.71901 7.8131C9.69451 7.8828 9.68398 7.95665 9.68802 8.03042C9.76602 9.46292 10.6548 10.2339 11.203 10.4102C11.3456 10.4543 11.5 10.44 11.632 10.3704C11.7641 10.3008 11.8631 10.1815 11.9073 10.0389C11.9514 9.8963 11.9371 9.74197 11.8675 9.6099C11.7979 9.47783 11.6786 9.37882 11.536 9.33467C11.4917 9.31287 11.4495 9.287 11.41 9.25741C11.3168 9.18605 11.2338 9.10227 11.1633 9.00842C10.9983 8.79092 10.8378 8.45567 10.8115 7.96892ZM7.43727 8.37467C7.43727 8.22548 7.378 8.08241 7.27251 7.97692C7.16702 7.87143 7.02395 7.81217 6.87477 7.81217C6.72558 7.81217 6.58251 7.87143 6.47702 7.97692C6.37153 8.08241 6.31227 8.22548 6.31227 8.37467C6.31227 9.17566 6.41127 9.80417 6.65277 10.4222C6.88977 11.0252 7.25277 11.5884 7.72752 12.2619C7.77016 12.3223 7.82428 12.3737 7.88679 12.4131C7.94929 12.4526 8.01896 12.4794 8.09181 12.4919C8.16465 12.5044 8.23926 12.5025 8.31136 12.4862C8.38346 12.4699 8.45164 12.4396 8.51202 12.3969C8.57239 12.3543 8.62378 12.3001 8.66323 12.2376C8.70269 12.1751 8.72946 12.1055 8.74199 12.0326C8.75453 11.9598 8.75259 11.8852 8.7363 11.8131C8.72 11.741 8.68966 11.6728 8.64702 11.6124C8.17677 10.9472 7.88352 10.4784 7.70052 10.0112C7.52202 9.55667 7.43802 9.07366 7.43802 8.37467H7.43727ZM6.59052 11.8524C5.03952 9.04591 5.58552 7.68617 6.12627 7.24742C6.71352 6.77042 7.60152 6.98117 7.85127 7.78892C7.89852 7.93892 7.93602 8.12341 7.98627 8.36417L8.01252 8.49166C8.07252 8.78117 8.14752 9.12167 8.26227 9.47267C8.49327 10.1807 8.89527 10.9607 9.70752 11.5599C9.82775 11.6446 9.97638 11.6789 10.1216 11.6553C10.2667 11.6318 10.3969 11.5523 10.4842 11.4339C10.5715 11.3155 10.6089 11.1677 10.5885 11.022C10.5681 10.8764 10.4915 10.7445 10.375 10.6547C9.81327 10.2399 9.51852 9.69466 9.33177 9.12317C9.23727 8.83442 9.17277 8.54567 9.11427 8.26217L9.08952 8.14592C9.04586 7.91354 8.99155 7.6833 8.92677 7.45592C8.42577 5.83742 6.58152 5.42792 5.41677 6.37367C4.20702 7.35617 3.98352 9.46067 5.60652 12.3962C5.67973 12.5246 5.80059 12.6191 5.94294 12.6592C6.08529 12.6992 6.23769 12.6816 6.36714 12.6101C6.49659 12.5386 6.59269 12.419 6.63463 12.2772C6.67658 12.1354 6.66025 11.9828 6.59052 11.8524Z" fill="#FF9F43"/>
</svg>
