<svg width="14" height="14" viewBox="0 0 14 14" fill="none" xmlns="http://www.w3.org/2000/svg">
<path d="M9.61875 0.75H4.38125C2.10625 0.75 0.75 2.10625 0.75 4.38125V9.61875C0.75 11.8938 2.10625 13.25 4.38125 13.25H9.61875C11.8938 13.25 13.25 11.8938 13.25 9.61875V4.38125C13.25 2.10625 11.8938 0.75 9.61875 0.75ZM5.73125 8.8125L4.325 10.2188C4.23125 10.3125 4.1125 10.3563 3.99375 10.3563C3.875 10.3563 3.75 10.3125 3.6625 10.2188L3.19375 9.75C3.00625 9.56875 3.00625 9.26875 3.19375 9.0875C3.375 8.90625 3.66875 8.90625 3.85625 9.0875L3.99375 9.225L5.06875 8.15C5.25 7.96875 5.54375 7.96875 5.73125 8.15C5.9125 8.33125 5.9125 8.63125 5.73125 8.8125ZM5.73125 4.4375L4.325 5.84375C4.23125 5.9375 4.1125 5.98125 3.99375 5.98125C3.875 5.98125 3.75 5.9375 3.6625 5.84375L3.19375 5.375C3.00625 5.19375 3.00625 4.89375 3.19375 4.7125C3.375 4.53125 3.66875 4.53125 3.85625 4.7125L3.99375 4.85L5.06875 3.775C5.25 3.59375 5.54375 3.59375 5.73125 3.775C5.9125 3.95625 5.9125 4.25625 5.73125 4.4375ZM10.475 9.8875H7.19375C6.9375 9.8875 6.725 9.675 6.725 9.41875C6.725 9.1625 6.9375 8.95 7.19375 8.95H10.475C10.7375 8.95 10.9437 9.1625 10.9437 9.41875C10.9437 9.675 10.7375 9.8875 10.475 9.8875ZM10.475 5.5125H7.19375C6.9375 5.5125 6.725 5.3 6.725 5.04375C6.725 4.7875 6.9375 4.575 7.19375 4.575H10.475C10.7375 4.575 10.9437 4.7875 10.9437 5.04375C10.9437 5.3 10.7375 5.5125 10.475 5.5125Z" fill="#FF9F43"/>
</svg>
