<svg width="16" height="16" viewBox="0 0 16 16" fill="none" xmlns="http://www.w3.org/2000/svg">
<path d="M13.519 5.50626L9.42522 2.23126C8.62522 1.59376 7.37522 1.58751 6.58147 2.22501L2.48772 5.50626C1.90022 5.97501 1.54397 6.91251 1.66897 7.65001L2.45647 12.3625C2.63772 13.4188 3.61897 14.25 4.68772 14.25H11.3127C12.369 14.25 13.369 13.4 13.5502 12.3563L14.3377 7.64376C14.4502 6.91251 14.094 5.97501 13.519 5.50626ZM8.46897 11.75C8.46897 12.0063 8.25647 12.2188 8.00022 12.2188C7.74397 12.2188 7.53147 12.0063 7.53147 11.75V9.87501C7.53147 9.61876 7.74397 9.40626 8.00022 9.40626C8.25647 9.40626 8.46897 9.61876 8.46897 9.87501V11.75Z" fill="#FF9F43"/>
</svg>
