<svg width="11" height="13" viewBox="0 0 11 13" fill="none" xmlns="http://www.w3.org/2000/svg">
<path d="M1.12523 2.12523C1.12529 2.00462 1.09045 1.88657 1.0249 1.78532C0.959362 1.68406 0.865923 1.60394 0.755859 1.55461C0.845859 1.48398 0.95461 1.43586 1.07461 1.41836L7.82336 0.453984C8.00066 0.42864 8.18134 0.441695 8.35316 0.492263C8.52498 0.542832 8.68392 0.629733 8.81923 0.747082C8.95453 0.86443 9.06304 1.00949 9.13741 1.17242C9.21177 1.33536 9.25025 1.51238 9.25023 1.69148V2.20398C9.04605 2.15153 8.83605 2.12507 8.62523 2.12523H1.12523ZM4.09398 7.12523C4.09398 6.75227 4.24214 6.39459 4.50587 6.13086C4.76959 5.86714 5.12727 5.71898 5.50023 5.71898C5.8732 5.71898 6.23088 5.86714 6.4946 6.13086C6.75833 6.39459 6.90648 6.75227 6.90648 7.12523C6.90648 7.49819 6.75833 7.85588 6.4946 8.1196C6.23088 8.38333 5.8732 8.53148 5.50023 8.53148C5.12727 8.53148 4.76959 8.38333 4.50587 8.1196C4.24214 7.85588 4.09398 7.49819 4.09398 7.12523Z" fill="#FF9F43"/>
<path fill-rule="evenodd" clip-rule="evenodd" d="M9.25 2.85625C9.97812 3.11438 10.5 3.80875 10.5 4.625V10.875C10.5 11.3723 10.3025 11.8492 9.95083 12.2008C9.59919 12.5525 9.12228 12.75 8.625 12.75H2.375C1.87772 12.75 1.40081 12.5525 1.04917 12.2008C0.697544 11.8492 0.5 11.3723 0.5 10.875V2.125C0.5 2.29076 0.565848 2.44973 0.683058 2.56694C0.800269 2.68415 0.95924 2.75 1.125 2.75H8.625C8.84375 2.75 9.05438 2.7875 9.25 2.85625ZM5.5 4.78125C4.8784 4.78125 4.28226 5.02818 3.84272 5.46772C3.40318 5.90726 3.15625 6.5034 3.15625 7.125C3.15625 7.7466 3.40318 8.34274 3.84272 8.78228C4.28226 9.22182 4.8784 9.46875 5.5 9.46875C6.1216 9.46875 6.71774 9.22182 7.15728 8.78228C7.59682 8.34274 7.84375 7.7466 7.84375 7.125C7.84375 6.5034 7.59682 5.90726 7.15728 5.46772C6.71774 5.02818 6.1216 4.78125 5.5 4.78125ZM4.25 10.4062C4.12568 10.4062 4.00645 10.4556 3.91854 10.5435C3.83064 10.6315 3.78125 10.7507 3.78125 10.875C3.78125 10.9993 3.83064 11.1185 3.91854 11.2065C4.00645 11.2944 4.12568 11.3438 4.25 11.3438H6.75C6.87432 11.3438 6.99355 11.2944 7.08146 11.2065C7.16936 11.1185 7.21875 10.9993 7.21875 10.875C7.21875 10.7507 7.16936 10.6315 7.08146 10.5435C6.99355 10.4556 6.87432 10.4062 6.75 10.4062H4.25Z" fill="#FF9F43"/>
</svg>
