<svg width="15" height="15" viewBox="0 0 15 15" fill="none" xmlns="http://www.w3.org/2000/svg">
<path d="M11.6811 7.20625C11.3248 7.1125 10.9061 7.0625 10.4061 7.0625C9.7123 7.0625 9.45605 7.23125 9.0998 7.5C9.08105 7.5125 9.0623 7.53125 9.04355 7.55L8.4498 8.18125C7.95605 8.7125 7.0498 8.7125 6.5498 8.18125L5.95605 7.55625C5.9373 7.53125 5.91855 7.5125 5.8998 7.5C5.5373 7.23125 5.28105 7.0625 4.59355 7.0625C4.09355 7.0625 3.6748 7.10625 3.31855 7.20625C1.83105 7.60625 1.83105 8.7875 1.83105 9.825V10.4062C1.83105 11.975 1.83105 13.75 5.1748 13.75H9.8248C12.0436 13.75 13.1686 12.625 13.1686 10.4062V9.825C13.1686 8.7875 13.1686 7.60625 11.6811 7.20625Z" fill="#FF9F43"/>
<path d="M9.24365 1.25H5.75615C2.99365 1.25 2.99365 2.71875 2.99365 4.0125V6.325C3.01865 6.3125 3.0499 6.30625 3.0749 6.3C3.5124 6.18125 4.00615 6.125 4.59365 6.125C5.55615 6.125 6.0124 6.40625 6.4624 6.75C6.5249 6.79375 6.5874 6.85 6.64365 6.9125L7.23115 7.53125C7.29365 7.6 7.39365 7.6375 7.4999 7.6375C7.60615 7.6375 7.70615 7.6 7.7624 7.5375L8.3624 6.90625C8.4124 6.85625 8.46865 6.8 8.53115 6.75625C8.99365 6.40625 9.44365 6.125 10.4062 6.125C10.9937 6.125 11.4874 6.18125 11.9249 6.3C11.9499 6.30625 11.9812 6.3125 12.0062 6.325V4.0125C12.0062 2.71875 12.0062 1.25 9.24365 1.25ZM8.46865 5.3125H6.53115C6.29365 5.3125 6.09365 5.1125 6.09365 4.875C6.09365 4.63125 6.29365 4.4375 6.53115 4.4375H8.46865C8.70615 4.4375 8.90615 4.63125 8.90615 4.875C8.90615 5.1125 8.70615 5.3125 8.46865 5.3125ZM8.95615 3.56875H6.04365C5.80615 3.56875 5.6124 3.36875 5.6124 3.13125C5.6124 2.8875 5.80615 2.69375 6.04365 2.69375H8.95615C9.19365 2.69375 9.3874 2.8875 9.3874 3.13125C9.3874 3.36875 9.19365 3.56875 8.95615 3.56875Z" fill="#FF9F43"/>
</svg>
