<svg width="15" height="15" viewBox="0 0 15 15" fill="none" xmlns="http://www.w3.org/2000/svg">
<path d="M11.6811 7.20625C11.3248 7.1125 10.9061 7.0625 10.4061 7.0625C9.7123 7.0625 9.45605 7.23125 9.0998 7.5C9.08105 7.5125 9.0623 7.53125 9.04355 7.55L8.4498 8.18125C7.9498 8.70625 7.0498 8.7125 6.5498 8.175L5.95605 7.55C5.9373 7.53125 5.91855 7.5125 5.8998 7.5C5.54355 7.23125 5.2873 7.0625 4.59355 7.0625C4.09355 7.0625 3.6748 7.1125 3.31855 7.20625C1.83105 7.60625 1.83105 8.7875 1.83105 9.825V10.4062C1.83105 11.975 1.83105 13.75 5.1748 13.75H9.8248C12.0436 13.75 13.1686 12.625 13.1686 10.4062V9.825C13.1686 8.7875 13.1686 7.60625 11.6811 7.20625ZM8.95605 11.5H6.04355C5.80605 11.5 5.6123 11.3063 5.6123 11.0625C5.6123 10.8187 5.80605 10.625 6.04355 10.625H8.95605C9.19355 10.625 9.3873 10.8187 9.3873 11.0625C9.3873 11.3063 9.19355 11.5 8.95605 11.5Z" fill="#FF9F43"/>
<path d="M12.0062 4.0125V6.325C11.9812 6.3125 11.9499 6.30625 11.9249 6.3C11.4874 6.18125 10.9937 6.125 10.4062 6.125C9.44365 6.125 8.99365 6.40625 8.53115 6.75625C8.46865 6.8 8.4124 6.85625 8.3624 6.90625L7.7624 7.5375C7.70615 7.6 7.60615 7.6375 7.4999 7.6375C7.39365 7.6375 7.29365 7.6 7.23115 7.53125L6.64365 6.9125C6.5874 6.85 6.5249 6.79375 6.4624 6.75C6.0124 6.40625 5.55615 6.125 4.59365 6.125C4.00615 6.125 3.5124 6.18125 3.0749 6.3C3.0499 6.30625 3.01865 6.3125 2.99365 6.325V4.0125C2.99365 2.71875 2.99365 1.25 5.75615 1.25H9.24365C12.0062 1.25 12.0062 2.71875 12.0062 4.0125Z" fill="#FF9F43"/>
</svg>
