<svg width="15" height="15" viewBox="0 0 15 15" fill="none" xmlns="http://www.w3.org/2000/svg">
<path d="M9.8748 1.38155C9.61855 1.1253 9.1748 1.3003 9.1748 1.65655V3.8378C9.1748 4.7503 9.9498 5.50655 10.8936 5.50655C11.4873 5.5128 12.3123 5.5128 13.0186 5.5128C13.3748 5.5128 13.5623 5.09405 13.3123 4.84405C12.4123 3.9378 10.7998 2.30655 9.8748 1.38155Z" fill="#FF9F43"/>
<path d="M12.8125 6.36875H11.0063C9.525 6.36875 8.31875 5.1625 8.31875 3.68125V1.875C8.31875 1.53125 8.0375 1.25 7.69375 1.25H5.04375C3.11875 1.25 1.5625 2.5 1.5625 4.73125V10.2688C1.5625 12.5 3.11875 13.75 5.04375 13.75H9.95625C11.8813 13.75 13.4375 12.5 13.4375 10.2688V6.99375C13.4375 6.65 13.1562 6.36875 12.8125 6.36875ZM7.1875 11.0938H4.6875C4.43125 11.0938 4.21875 10.8813 4.21875 10.625C4.21875 10.3687 4.43125 10.1562 4.6875 10.1562H7.1875C7.44375 10.1562 7.65625 10.3687 7.65625 10.625C7.65625 10.8813 7.44375 11.0938 7.1875 11.0938ZM8.4375 8.59375H4.6875C4.43125 8.59375 4.21875 8.38125 4.21875 8.125C4.21875 7.86875 4.43125 7.65625 4.6875 7.65625H8.4375C8.69375 7.65625 8.90625 7.86875 8.90625 8.125C8.90625 8.38125 8.69375 8.59375 8.4375 8.59375Z" fill="#FF9F43"/>
</svg>
