<svg width="24" height="24" viewBox="0 0 24 24" fill="none" xmlns="http://www.w3.org/2000/svg">
<circle cx="12" cy="12" r="11.5" fill="white" stroke="#FF9F43"/>
<path d="M12.5 6.25C10.8625 6.25 9.53125 7.58125 9.53125 9.21875C9.53125 10.825 10.7875 12.125 12.425 12.1812C12.475 12.175 12.525 12.175 12.5625 12.1812C12.575 12.1812 12.5812 12.1812 12.5937 12.1812C12.6 12.1812 12.6 12.1812 12.6063 12.1812C14.2063 12.125 15.4625 10.825 15.4688 9.21875C15.4688 7.58125 14.1375 6.25 12.5 6.25Z" fill="#FF9F43"/>
<path d="M15.6751 13.8504C13.9313 12.6879 11.0876 12.6879 9.33135 13.8504C8.5376 14.3754 8.1001 15.0941 8.1001 15.8629C8.1001 16.6316 8.5376 17.3441 9.3251 17.8691C10.2001 18.4566 11.3501 18.7504 12.5001 18.7504C13.6501 18.7504 14.8001 18.4566 15.6751 17.8691C16.4626 17.3379 16.9001 16.6254 16.9001 15.8504C16.8938 15.0879 16.4626 14.3691 15.6751 13.8504ZM13.9563 15.3504L12.3813 16.9254C12.3063 17.0004 12.2063 17.0379 12.1063 17.0379C12.0063 17.0379 11.9063 16.9941 11.8313 16.9254L11.0438 16.1379C10.8938 15.9879 10.8938 15.7379 11.0438 15.5879C11.1938 15.4379 11.4438 15.4379 11.5938 15.5879L12.1063 16.1004L13.4063 14.8004C13.5563 14.6504 13.8063 14.6504 13.9563 14.8004C14.1126 14.9504 14.1126 15.2004 13.9563 15.3504Z" fill="#FF9F43"/>
</svg>
