<svg width="15" height="15" viewBox="0 0 15 15" fill="none" xmlns="http://www.w3.org/2000/svg">
<path d="M8.96885 1.25H6.03135C5.38135 1.25 4.8501 1.775 4.8501 2.425V3.0125C4.8501 3.6625 5.3751 4.1875 6.0251 4.1875H8.96885C9.61885 4.1875 10.1438 3.6625 10.1438 3.0125V2.425C10.1501 1.775 9.61885 1.25 8.96885 1.25Z" fill="#FF9F43"/>
<path d="M10.7749 3.01169C10.7749 4.00544 9.9624 4.81794 8.96865 4.81794H6.03115C5.0374 4.81794 4.2249 4.00544 4.2249 3.01169C4.2249 2.66169 3.8499 2.44294 3.5374 2.60544C2.65615 3.07419 2.05615 4.00544 2.05615 5.07419V10.9554C2.05615 12.4929 3.3124 13.7492 4.8499 13.7492H10.1499C11.6874 13.7492 12.9437 12.4929 12.9437 10.9554V5.07419C12.9437 4.00544 12.3437 3.07419 11.4624 2.60544C11.1499 2.44294 10.7749 2.66169 10.7749 3.01169ZM9.5874 7.95544L7.0874 10.4554C6.99365 10.5492 6.8749 10.5929 6.75615 10.5929C6.6374 10.5929 6.51865 10.5492 6.4249 10.4554L5.4874 9.51794C5.30615 9.33669 5.30615 9.03669 5.4874 8.85544C5.66865 8.67419 5.96865 8.67419 6.1499 8.85544L6.75615 9.46169L8.9249 7.29294C9.10615 7.11169 9.40615 7.11169 9.5874 7.29294C9.76865 7.47419 9.76865 7.77419 9.5874 7.95544Z" fill="#FF9F43"/>
</svg>
