<svg width="10" height="10" viewBox="0 0 10 10" fill="none" xmlns="http://www.w3.org/2000/svg">
<g id="fi-sr-angle-down" clip-path="url(#clip0_1003_18429)">
<path id="Vector" d="M0.62919 2.53291C0.711266 2.5328 0.792552 2.54894 0.868357 2.58041C0.944162 2.61187 1.01299 2.65804 1.07086 2.71624L4.26794 5.9129C4.36467 6.00966 4.47952 6.08641 4.60591 6.13878C4.73231 6.19114 4.86779 6.2181 5.00461 6.2181C5.14142 6.2181 5.2769 6.19114 5.4033 6.13878C5.5297 6.08641 5.64454 6.00966 5.74127 5.9129L8.93336 2.72041C8.99101 2.66071 9.05998 2.6131 9.13623 2.58034C9.21248 2.54759 9.29449 2.53035 9.37748 2.52963C9.46047 2.5289 9.54277 2.54472 9.61958 2.57614C9.69639 2.60757 9.76617 2.65398 9.82485 2.71266C9.88354 2.77134 9.92994 2.84113 9.96137 2.91794C9.99279 2.99475 10.0086 3.07704 10.0079 3.16003C10.0072 3.24302 9.98993 3.32503 9.95717 3.40128C9.92441 3.47754 9.8768 3.5465 9.81711 3.60416L6.62502 6.79665C6.19498 7.22589 5.61221 7.46697 5.00461 7.46697C4.39701 7.46697 3.81423 7.22589 3.38419 6.79665L0.187107 3.59999C0.0996415 3.51258 0.0400705 3.40119 0.0159312 3.27992C-0.00820798 3.15864 0.00416958 3.03293 0.0514977 2.91869C0.0988258 2.80445 0.178977 2.70682 0.28181 2.63815C0.384643 2.56948 0.505535 2.53285 0.62919 2.53291Z" fill="#374957"/>
</g>
<defs>
<clipPath id="clip0_1003_18429">
<rect width="10" height="10" fill="white"/>
</clipPath>
</defs>
</svg>
